<svg width="204" height="204" viewBox="0 0 204 204" fill="none" xmlns="http://www.w3.org/2000/svg">
<g clip-path="url(#clip0_1_21128)">
<path fill-rule="evenodd" clip-rule="evenodd" d="M106.266 180.335C95.2985 190.43 80.5823 190.177 66.6936 192.609C50.513 195.442 32.1557 204.426 20.1655 195.41C7.71003 186.043 5.26723 166.606 9.85329 149.865C13.856 135.253 28.9383 126.59 41.5651 117.291C51.0476 110.308 61.2139 107.173 72.1243 104.009C87.8212 99.4566 105.733 86.7968 117.835 95.1729C130.097 103.661 126.159 123.765 123.968 139.893C121.983 154.502 117.756 169.76 106.266 180.335Z" fill="#212121"/>
<path fill-rule="evenodd" clip-rule="evenodd" d="M90.5172 16.6696C115.787 13.1372 145.902 -7.18227 163.923 10.8874C181.946 28.9601 163.555 59.4056 157.983 84.3183C154.121 101.584 150.073 118.893 137.082 130.899C124.569 142.462 107.365 144.146 90.5172 146.665C68.9502 149.889 45.1965 160.138 27.5905 147.267C8.90732 133.608 3.768 107.42 5.2358 84.3183C6.61937 62.542 18.0201 42.4507 35.1114 28.8932C50.5166 16.6732 71.0457 19.3914 90.5172 16.6696Z" fill="#606060"/>
<path fill-rule="evenodd" clip-rule="evenodd" d="M138.383 175.31C116.585 181.892 92.8243 205.018 74.4474 190.182C56.0674 175.344 68.0977 144.113 69.584 119.769C70.6141 102.897 71.8028 85.9606 81.6076 72.911C91.051 60.3424 105.99 56.5451 120.501 52.0016C139.076 46.1853 158.612 33.4253 175.908 43.383C194.263 53.9498 202.397 78.1336 204.281 100.235C206.056 121.068 198.766 141.584 185.56 156.63C173.656 170.191 155.179 170.238 138.383 175.31Z" fill="#3D3D3D"/>
<path d="M97.2671 139.344H18.4864C17.8689 139.343 17.2769 139.097 16.8403 138.661C16.4036 138.224 16.1578 137.632 16.1567 137.015V26.2712C16.1632 25.6572 16.4113 25.0705 16.8474 24.6382C17.2835 24.2059 17.8724 23.963 18.4864 23.9619H97.2671C97.8843 23.963 98.4758 24.2089 98.9118 24.6457C99.3478 25.0825 99.5927 25.6744 99.5927 26.2916V137.015C99.5927 137.632 99.3478 138.224 98.9118 138.661C98.4758 139.097 97.8843 139.343 97.2671 139.344ZM18.4864 24.0435C17.8959 24.0446 17.3299 24.2796 16.9124 24.6972C16.4949 25.1147 16.2598 25.6807 16.2587 26.2712V137.015C16.2598 137.605 16.4949 138.171 16.9124 138.589C17.3299 139.006 17.8959 139.241 18.4864 139.242H97.2671C97.8572 139.241 98.4228 139.006 98.8397 138.588C99.2566 138.171 99.4907 137.605 99.4907 137.015V26.2712C99.4907 25.6811 99.2566 25.1151 98.8397 24.6974C98.4228 24.2798 97.8572 24.0446 97.2671 24.0435H18.4864Z" fill="#E6E6E6"/>
<path d="M185.518 139.344H106.733C106.116 139.343 105.524 139.097 105.088 138.661C104.652 138.224 104.407 137.632 104.407 137.015V26.2712C104.413 25.6576 104.66 25.0709 105.095 24.6385C105.531 24.2061 106.119 23.963 106.733 23.9619H185.518C186.131 23.963 186.72 24.2061 187.155 24.6385C187.591 25.0709 187.838 25.6576 187.843 26.2712V137.015C187.843 137.632 187.598 138.224 187.162 138.661C186.726 139.097 186.135 139.343 185.518 139.344ZM106.733 24.0435C106.143 24.0446 105.577 24.2798 105.16 24.6974C104.743 25.1151 104.509 25.6811 104.509 26.2712V137.015C104.509 137.605 104.743 138.171 105.16 138.588C105.577 139.006 106.143 139.241 106.733 139.242H185.518C186.108 139.241 186.675 139.006 187.093 138.589C187.511 138.171 187.747 137.605 187.749 137.015V26.2712C187.747 25.6803 187.511 25.1143 187.093 24.6969C186.675 24.2795 186.108 24.0446 185.518 24.0435H106.733Z" fill="#E6E6E6"/>
<path d="M84.7622 80.5637L84.2032 128.52C82.2285 144.477 53.9418 157.145 53.9418 157.145C53.9418 157.145 25.6511 144.489 23.6641 128.52L23.0889 80.5637L53.3217 70.6125L84.7622 80.5637Z" fill="#F5F5F5"/>
<path d="M80.8164 83.5991L80.3309 126.659C78.6091 140.576 53.9374 151.625 53.9374 151.625C53.9374 151.625 29.2656 140.576 27.5479 126.659L27.0298 83.5991L53.3988 74.9209L80.8164 83.5991Z" fill="#E0E0E0"/>
<path d="M79.0865 86.3164L78.6296 125.848C76.9976 138.904 53.8844 149.25 53.8844 149.25C53.8844 149.25 30.7548 138.891 29.1432 125.848L28.6577 86.3164L53.3784 78.1809L79.0865 86.3164Z" stroke="white" stroke-width="3" stroke-linecap="round" stroke-linejoin="round"/>
<path d="M179.65 64.3782H125.231V159.866H179.65V64.3782Z" fill="#F5F5F5"/>
<path d="M175.705 68.1318H129.254V159.867H175.705V68.1318Z" fill="#E0E0E0"/>
<path d="M130.56 160.275C130.478 160.275 130.398 160.258 130.323 160.226C130.249 160.196 130.183 160.152 130.127 160.095C130.068 160.039 130.022 159.971 129.993 159.895C129.963 159.821 129.948 159.742 129.948 159.663C129.948 159.572 129.968 159.483 130.007 159.401C130.045 159.32 130.102 159.248 130.171 159.19C130.241 159.133 130.323 159.092 130.41 159.07C130.498 159.048 130.589 159.045 130.678 159.063L130.792 159.095L130.898 159.153C130.931 159.176 130.963 159.202 130.992 159.23C131.021 159.258 131.046 159.289 131.066 159.324C131.089 159.357 131.109 159.392 131.123 159.43C131.139 159.467 131.152 159.505 131.16 159.544C131.164 159.584 131.164 159.623 131.16 159.663C131.16 159.743 131.143 159.822 131.111 159.895C131.081 159.97 131.037 160.038 130.98 160.095C130.868 160.206 130.718 160.27 130.56 160.275Z" fill="white"/>
<path d="M129.94 144.632C129.94 144.551 129.957 144.471 129.988 144.397C130.02 144.323 130.066 144.255 130.124 144.199C130.181 144.142 130.249 144.098 130.324 144.068C130.399 144.038 130.479 144.023 130.56 144.024C130.722 144.024 130.878 144.089 130.993 144.203C131.108 144.318 131.172 144.474 131.172 144.636C131.172 144.798 131.108 144.954 130.993 145.069C130.878 145.184 130.722 145.248 130.56 145.248C130.479 145.249 130.398 145.234 130.322 145.203C130.247 145.173 130.178 145.128 130.121 145.07C130.063 145.013 130.017 144.945 129.986 144.869C129.955 144.794 129.939 144.713 129.94 144.632ZM129.94 129.605C129.94 129.443 130.004 129.287 130.119 129.173C130.234 129.058 130.39 128.993 130.552 128.993C130.714 128.993 130.87 129.058 130.985 129.173C131.099 129.287 131.164 129.443 131.164 129.605C131.164 129.768 131.099 129.923 130.985 130.038C130.87 130.153 130.714 130.217 130.552 130.217C130.39 130.217 130.234 130.153 130.119 130.038C130.004 129.923 129.94 129.768 129.94 129.605ZM129.94 114.575C129.94 114.412 130.004 114.257 130.119 114.142C130.234 114.027 130.39 113.963 130.552 113.963C130.714 113.963 130.87 114.027 130.985 114.142C131.099 114.257 131.164 114.412 131.164 114.575C131.164 114.737 131.099 114.893 130.985 115.007C130.87 115.122 130.714 115.187 130.552 115.187C130.472 115.187 130.392 115.171 130.318 115.14C130.243 115.109 130.176 115.064 130.119 115.007C130.062 114.951 130.017 114.883 129.987 114.809C129.956 114.735 129.94 114.655 129.94 114.575ZM129.94 99.5439C129.94 99.3816 130.004 99.2259 130.119 99.1112C130.234 98.9964 130.39 98.9319 130.552 98.9319C130.714 98.9319 130.87 98.9964 130.985 99.1112C131.099 99.2259 131.164 99.3816 131.164 99.5439C131.164 99.7062 131.099 99.8619 130.985 99.9767C130.87 100.091 130.714 100.156 130.552 100.156C130.391 100.156 130.237 100.093 130.122 99.9796C130.008 99.8665 129.942 99.713 129.94 99.5521V99.5439ZM129.94 84.5173C129.94 84.355 130.004 84.1993 130.119 84.0845C130.234 83.9698 130.39 83.9053 130.552 83.9053C130.714 83.9053 130.87 83.9698 130.985 84.0845C131.099 84.1993 131.164 84.355 131.164 84.5173C131.164 84.6796 131.099 84.8353 130.985 84.95C130.87 85.0648 130.714 85.1293 130.552 85.1293C130.472 85.1293 130.392 85.1134 130.318 85.0827C130.243 85.0519 130.176 85.0069 130.119 84.95C130.062 84.8932 130.017 84.8257 129.987 84.7515C129.956 84.6772 129.94 84.5976 129.94 84.5173Z" fill="white"/>
<path d="M130.56 70.0985C130.48 70.0989 130.4 70.0832 130.326 70.0523C130.251 70.0215 130.184 69.9762 130.127 69.919C130.097 69.8915 130.071 69.8599 130.05 69.8251C130.029 69.7925 130.009 69.7584 129.993 69.7231C129.976 69.6855 129.965 69.6457 129.96 69.6048C129.956 69.5655 129.956 69.5258 129.96 69.4865C129.961 69.3244 130.026 69.1692 130.14 69.054C130.167 69.025 130.197 68.9991 130.229 68.9765C130.263 68.9548 130.298 68.937 130.336 68.9234C130.372 68.9075 130.411 68.8952 130.45 68.8867C130.529 68.8704 130.611 68.8704 130.691 68.8867C130.73 68.8952 130.768 68.9075 130.805 68.9234C130.842 68.937 130.878 68.9548 130.911 68.9765C130.944 69.0001 130.975 69.026 131.005 69.054C131.119 69.1692 131.183 69.3244 131.184 69.4865C131.188 69.5258 131.188 69.5655 131.184 69.6048C131.176 69.6453 131.163 69.6849 131.147 69.7231C131.132 69.7592 131.113 69.7935 131.09 69.8251C131.071 69.8598 131.046 69.8914 131.017 69.919C130.957 69.9784 130.886 70.025 130.807 70.0559C130.728 70.0867 130.644 70.1012 130.56 70.0985Z" fill="white"/>
<path d="M159.071 69.4865C159.071 69.3242 159.135 69.1685 159.25 69.0538C159.365 68.939 159.521 68.8745 159.683 68.8745C159.845 68.8745 160.001 68.939 160.116 69.0538C160.23 69.1685 160.295 69.3242 160.295 69.4865C160.295 69.6488 160.23 69.8045 160.116 69.9193C160.001 70.034 159.845 70.0985 159.683 70.0985C159.521 70.0985 159.365 70.034 159.25 69.9193C159.135 69.8045 159.071 69.6488 159.071 69.4865ZM144.505 69.4865C144.505 69.3242 144.57 69.1685 144.685 69.0538C144.799 68.939 144.955 68.8745 145.117 68.8745C145.28 68.8745 145.435 68.939 145.55 69.0538C145.665 69.1685 145.729 69.3242 145.729 69.4865C145.729 69.6488 145.665 69.8045 145.55 69.9193C145.435 70.034 145.28 70.0985 145.117 70.0985C144.955 70.0985 144.799 70.034 144.685 69.9193C144.57 69.8045 144.505 69.6488 144.505 69.4865Z" fill="white"/>
<path d="M174.249 70.0984C174.209 70.1025 174.17 70.1025 174.13 70.0984L174.016 70.0658L173.91 70.0087C173.877 69.9851 173.846 69.9592 173.816 69.9312C173.701 69.8165 173.637 69.6609 173.637 69.4987C173.638 69.3366 173.702 69.1814 173.816 69.0662C173.845 69.0383 173.876 69.0136 173.91 68.9928C173.942 68.9683 173.978 68.949 174.016 68.9356C174.053 68.9192 174.091 68.9068 174.13 68.8989C174.21 68.8827 174.292 68.8827 174.371 68.8989L174.485 68.9356C174.522 68.9491 174.557 68.9683 174.587 68.9928C174.622 69.0125 174.654 69.0373 174.681 69.0662C174.795 69.1814 174.86 69.3366 174.861 69.4987C174.861 69.6609 174.796 69.8165 174.681 69.9312C174.653 69.9602 174.621 69.9861 174.587 70.0087C174.555 70.0301 174.521 70.0492 174.485 70.0658L174.371 70.0984C174.33 70.1025 174.289 70.1025 174.249 70.0984Z" fill="white"/>
<path d="M173.637 144.632C173.637 144.47 173.701 144.314 173.816 144.199C173.931 144.084 174.086 144.02 174.249 144.02C174.411 144.02 174.567 144.084 174.681 144.199C174.796 144.314 174.861 144.47 174.861 144.632C174.861 144.794 174.796 144.95 174.681 145.065C174.567 145.18 174.411 145.244 174.249 145.244C174.086 145.244 173.931 145.18 173.816 145.065C173.701 144.95 173.637 144.794 173.637 144.632ZM173.637 129.605C173.637 129.443 173.701 129.287 173.816 129.173C173.931 129.058 174.086 128.993 174.249 128.993C174.411 128.993 174.567 129.058 174.681 129.173C174.796 129.287 174.861 129.443 174.861 129.605C174.861 129.768 174.796 129.923 174.681 130.038C174.567 130.153 174.411 130.217 174.249 130.217C174.086 130.217 173.931 130.153 173.816 130.038C173.701 129.923 173.637 129.768 173.637 129.605ZM173.637 114.575C173.637 114.412 173.701 114.257 173.816 114.142C173.931 114.027 174.086 113.963 174.249 113.963C174.411 113.963 174.567 114.027 174.681 114.142C174.796 114.257 174.861 114.412 174.861 114.575C174.861 114.737 174.796 114.893 174.681 115.007C174.567 115.122 174.411 115.187 174.249 115.187C174.168 115.187 174.089 115.171 174.015 115.14C173.94 115.109 173.873 115.064 173.816 115.007C173.759 114.951 173.714 114.883 173.683 114.809C173.653 114.735 173.637 114.655 173.637 114.575ZM173.637 99.5439C173.637 99.3816 173.701 99.2259 173.816 99.1112C173.931 98.9964 174.086 98.9319 174.249 98.9319C174.411 98.9319 174.567 98.9964 174.681 99.1112C174.796 99.2259 174.861 99.3816 174.861 99.5439C174.861 99.7062 174.796 99.8619 174.681 99.9767C174.567 100.091 174.411 100.156 174.249 100.156C174.088 100.156 173.933 100.093 173.819 99.9796C173.704 99.8665 173.639 99.713 173.637 99.5521V99.5439ZM173.637 84.5173C173.637 84.355 173.701 84.1993 173.816 84.0845C173.931 83.9698 174.086 83.9053 174.249 83.9053C174.411 83.9053 174.567 83.9698 174.681 84.0845C174.796 84.1993 174.861 84.355 174.861 84.5173C174.861 84.6796 174.796 84.8353 174.681 84.95C174.567 85.0648 174.411 85.1293 174.249 85.1293C174.168 85.1293 174.089 85.1134 174.015 85.0827C173.94 85.0519 173.873 85.0069 173.816 84.95C173.759 84.8932 173.714 84.8257 173.683 84.7515C173.653 84.6772 173.637 84.5976 173.637 84.5173Z" fill="white"/>
<path d="M174.249 160.274C174.128 160.274 174.009 160.238 173.909 160.171C173.808 160.104 173.73 160.008 173.684 159.897C173.637 159.785 173.625 159.662 173.649 159.543C173.673 159.425 173.731 159.316 173.816 159.23C173.846 159.202 173.877 159.176 173.91 159.152L174.016 159.095L174.13 159.063C174.21 159.046 174.292 159.046 174.371 159.063L174.485 159.095C174.521 159.112 174.555 159.131 174.587 159.152C174.621 159.175 174.653 159.201 174.681 159.23C174.796 159.345 174.861 159.5 174.861 159.662C174.862 159.743 174.846 159.823 174.815 159.897C174.784 159.971 174.739 160.039 174.681 160.095C174.566 160.21 174.411 160.274 174.249 160.274Z" fill="white"/>
<path d="M38.76 160.022H21.9463V160.124H38.76V160.022Z" fill="#E0E0E0"/>
<path d="M73.0321 159.206H56.1694V159.308H73.0321V159.206Z" fill="#E0E0E0"/>
<path d="M94.974 159.206H90.894V159.308H94.974V159.206Z" fill="#E0E0E0"/>
<path d="M54.1947 162.69H35.3247V162.792H54.1947V162.69Z" fill="#E0E0E0"/>
<path d="M119.462 159.969H110.649V160.071H119.462V159.969Z" fill="#E0E0E0"/>
<path d="M134.489 159.969H123.094V160.071H134.489V159.969Z" fill="#E0E0E0"/>
<path d="M189.447 161.694H163.971V161.796H189.447V161.694Z" fill="#E0E0E0"/>
<path d="M95.2311 35.7613H76.4346L77.4627 24.0476H96.2552L95.2311 35.7613Z" fill="#EBEBEB"/>
<path d="M95.6109 22.4563L95.0968 28.5722L94.5827 35.9244H76.5083L77.5365 22.4563H95.6109Z" fill="#FAFAFA"/>
<path d="M93.8849 24.0475L94.909 35.7612H76.1165L75.0884 24.0475H76.6877L77.2426 23.1663H82.3059L83.0321 24.0475H93.8849Z" fill="#E0E0E0"/>
<path d="M124.362 38.3765H104.362V58.3766H124.362V38.3765Z" fill="#EBEBEB"/>
<path d="M124.872 38.3765H124.362V58.3766H124.872V38.3765Z" fill="#E0E0E0"/>
<path d="M122.51 40.2288H106.207V56.5324H122.51V40.2288Z" fill="#F5F5F5"/>
<path d="M106.361 40.2288H106.21V56.5324H106.361V40.2288Z" fill="#E0E0E0"/>
<path d="M114.513 50.7349C116.269 50.7349 117.692 48.9228 117.692 46.6875C117.692 44.4522 116.269 42.6401 114.513 42.6401C112.758 42.6401 111.335 44.4522 111.335 46.6875C111.335 48.9228 112.758 50.7349 114.513 50.7349Z" fill="#E0E0E0"/>
<path d="M112.853 52.783H116.203V49.4333H112.853V52.783Z" fill="#E0E0E0"/>
<path d="M120.552 56.5325H108.279V55.3901C108.279 54.3469 108.693 53.3465 109.431 52.6089C110.168 51.8713 111.169 51.457 112.212 51.457H116.635C117.678 51.457 118.678 51.8713 119.416 52.6089C120.153 53.3465 120.568 54.3469 120.568 55.3901V56.5325H120.552Z" fill="#E0E0E0"/>
<path d="M107.973 49.7271C107.973 50.3921 109.197 50.9511 109.197 50.9511C109.197 50.9511 110.421 50.4084 110.421 49.7271C110.421 49.4088 109.981 49.2293 109.691 49.3191C109.58 49.3578 109.478 49.4181 109.39 49.4965C109.303 49.5749 109.232 49.6699 109.181 49.776C109.025 49.5656 108.819 49.3973 108.581 49.2864C108.512 49.262 108.437 49.2549 108.364 49.2655C108.291 49.2762 108.222 49.3044 108.162 49.3477C108.102 49.391 108.054 49.4481 108.021 49.5142C107.988 49.5803 107.972 49.6533 107.973 49.7271Z" fill="#E0E0E0"/>
<path d="M118.834 46.7526C118.834 47.6298 120.421 48.3397 120.421 48.3397C120.421 48.3397 122.008 47.6298 122.008 46.7526C122.008 46.3446 121.421 46.1039 121.05 46.21C120.77 46.3218 120.544 46.5384 120.421 46.8138C120.214 46.5389 119.944 46.3178 119.634 46.1692C119.542 46.1366 119.444 46.127 119.347 46.1411C119.251 46.1551 119.159 46.1925 119.08 46.25C119.001 46.3075 118.938 46.3833 118.895 46.4709C118.852 46.5584 118.831 46.6551 118.834 46.7526Z" fill="#E0E0E0"/>
<path d="M83.9298 146.603C84.1175 147.782 84.9702 148.798 85.0355 149.989C85.0885 150.923 84.652 151.8 84.4357 152.71C84.2195 153.62 84.3256 154.75 85.1212 155.232C85.4106 155.379 85.7341 155.446 86.0582 155.427C86.3823 155.407 86.6954 155.302 86.9653 155.122C87.4982 154.753 87.9381 154.265 88.2505 153.698C89.502 151.675 90.1855 149.352 90.2293 146.974C90.2293 145.974 90.1273 144.913 89.5398 144.118C87.7201 141.576 83.4647 143.665 83.9298 146.603Z" fill="#F5F5F5"/>
<path d="M82.416 143.481C82.5915 143.673 82.8202 143.808 83.0729 143.869C83.2257 143.919 83.3887 143.929 83.5464 143.898C83.7042 143.867 83.8515 143.797 83.9745 143.694C84.0683 143.573 84.135 143.434 84.1702 143.285C84.2054 143.137 84.2082 142.982 84.1785 142.833C84.1536 142.457 84.025 142.095 83.8073 141.788C83.6978 141.637 83.5527 141.515 83.3847 141.433C83.2167 141.351 83.0311 141.312 82.8444 141.319C82.658 141.334 82.4825 141.413 82.3474 141.542C82.2122 141.672 82.1255 141.843 82.1018 142.029C82.0564 142.534 82.166 143.04 82.416 143.481Z" fill="#F5F5F5"/>
<path d="M85.8063 141.029C85.7229 140.9 85.6034 140.798 85.4627 140.737C85.322 140.675 85.1662 140.656 85.0148 140.682C84.865 140.716 84.7289 140.794 84.624 140.906C84.5192 141.018 84.4507 141.159 84.4273 141.311C84.4207 141.41 84.4207 141.509 84.4273 141.609C84.4288 141.769 84.4465 141.929 84.4803 142.086C84.5144 142.237 84.586 142.377 84.6884 142.494C84.8284 142.63 85.0061 142.721 85.1984 142.755C85.3174 142.783 85.4415 142.783 85.5601 142.753C85.6787 142.723 85.7884 142.665 85.8798 142.584C85.961 142.485 86.0216 142.371 86.058 142.248C86.0944 142.125 86.106 141.997 86.0919 141.87C86.0826 141.567 85.9831 141.275 85.8063 141.029Z" fill="#F5F5F5"/>
<path d="M87.6955 140.927C87.6287 140.804 87.5197 140.709 87.3886 140.66C87.2575 140.61 87.113 140.61 86.9815 140.658C86.8532 140.711 86.7399 140.795 86.6517 140.903C86.5635 141.01 86.503 141.138 86.4756 141.274C86.4756 141.364 86.4511 141.453 86.447 141.543C86.4446 141.692 86.461 141.84 86.496 141.984C86.5253 142.126 86.5997 142.255 86.7081 142.351C86.8238 142.448 86.966 142.508 87.1161 142.522C87.2139 142.534 87.3131 142.525 87.4068 142.495C87.5005 142.464 87.5865 142.414 87.6588 142.347C87.8174 142.167 87.9044 141.934 87.9036 141.694C87.9215 141.422 87.8482 141.153 87.6955 140.927Z" fill="#F5F5F5"/>
<path d="M89.3805 141.319C89.1806 141.021 88.9725 141.001 88.744 141.127C88.541 141.276 88.3966 141.491 88.336 141.735C88.3131 141.814 88.2967 141.894 88.2871 141.976C88.265 142.111 88.265 142.249 88.2871 142.384C88.3137 142.515 88.3896 142.63 88.4992 142.706C88.6003 142.769 88.7191 142.798 88.8379 142.788C88.9922 142.774 89.1367 142.706 89.2459 142.596C89.396 142.435 89.4916 142.231 89.5192 142.013C89.5606 141.772 89.5112 141.525 89.3805 141.319Z" fill="#F5F5F5"/>
<path d="M89.7111 142.971C89.6888 143.068 89.6888 143.169 89.7111 143.265C89.7193 143.315 89.7396 143.362 89.7702 143.401C89.8008 143.441 89.8408 143.473 89.8865 143.494C89.9699 143.513 90.057 143.507 90.1369 143.476C90.2168 143.446 90.2858 143.392 90.3353 143.322C90.456 143.199 90.5442 143.047 90.5923 142.882C90.6162 142.799 90.623 142.712 90.6125 142.627C90.602 142.541 90.5743 142.458 90.5312 142.384C90.168 141.792 89.76 142.678 89.7111 142.971Z" fill="#F5F5F5"/>
<path d="M90.0414 173.853C90.3147 172.89 90.4739 171.833 90.1107 170.899C88.9887 167.99 84.3539 168.916 84.0479 171.878L90.0414 173.853Z" fill="#F5F5F5"/>
<path d="M83.4034 168.475C83.5245 168.706 83.7122 168.895 83.942 169.018C84.0765 169.105 84.2311 169.156 84.391 169.167C84.5509 169.178 84.7109 169.148 84.8559 169.079C84.9751 168.986 85.0731 168.868 85.1434 168.733C85.2137 168.599 85.2548 168.451 85.2639 168.3C85.3359 167.932 85.3048 167.55 85.1741 167.198C85.1065 167.023 84.9967 166.867 84.8543 166.743C84.712 166.62 84.5416 166.534 84.3581 166.493C84.1746 166.46 83.9855 166.491 83.8222 166.581C83.6589 166.671 83.5313 166.814 83.4605 166.986C83.2916 167.465 83.2717 167.985 83.4034 168.475Z" fill="#F5F5F5"/>
<path d="M87.3119 166.97C87.2635 166.824 87.1737 166.696 87.0534 166.6C86.9331 166.504 86.7876 166.446 86.6346 166.431C86.4813 166.426 86.3298 166.467 86.1997 166.548C86.0696 166.63 85.9668 166.748 85.9043 166.888C85.8684 166.982 85.8384 167.077 85.8146 167.174C85.7733 167.329 85.7487 167.487 85.7411 167.647C85.7308 167.806 85.7632 167.966 85.835 168.108C85.9317 168.271 86.0734 168.403 86.243 168.488C86.3504 168.545 86.4701 168.575 86.5918 168.575C86.7135 168.575 86.8332 168.545 86.9406 168.488C87.0476 168.415 87.1389 168.322 87.209 168.213C87.2791 168.104 87.3266 167.983 87.3486 167.855C87.4219 167.563 87.4091 167.255 87.3119 166.97Z" fill="#F5F5F5"/>
<path d="M89.1479 167.358C89.1146 167.223 89.0349 167.105 88.923 167.024C88.811 166.942 88.6739 166.903 88.5359 166.913C88.3978 166.933 88.2667 166.986 88.1537 167.067C88.0407 167.149 87.9492 167.257 87.8872 167.382C87.8503 167.463 87.8176 167.546 87.7892 167.631C87.7433 167.77 87.7159 167.914 87.7076 168.059C87.6995 168.203 87.7366 168.346 87.8137 168.467C87.9041 168.595 88.0327 168.691 88.1809 168.741C88.2726 168.778 88.3714 168.794 88.4702 168.789C88.5689 168.783 88.6652 168.755 88.7521 168.708C88.9524 168.577 89.0976 168.376 89.1601 168.145C89.2429 167.888 89.2386 167.612 89.1479 167.358Z" fill="#F5F5F5"/>
<path d="M90.6741 168.169C90.5598 167.827 90.3436 167.761 90.111 167.818C89.8734 167.907 89.6741 168.076 89.548 168.296C89.5072 168.367 89.4704 168.441 89.4378 168.516C89.3879 168.638 89.3576 168.768 89.3481 168.9C89.3403 169.031 89.3825 169.161 89.4664 169.263C89.5472 169.351 89.6548 169.409 89.7724 169.43C89.9251 169.46 90.0835 169.432 90.2171 169.352C90.4011 169.234 90.5437 169.062 90.6251 168.859C90.7247 168.643 90.7421 168.397 90.6741 168.169Z" fill="#F5F5F5"/>
<path d="M90.576 169.85C90.5261 169.936 90.4968 170.033 90.4903 170.132C90.4862 170.182 90.4941 170.232 90.5133 170.278C90.5325 170.324 90.5623 170.365 90.6004 170.397C90.676 170.437 90.7616 170.454 90.8465 170.445C90.9315 170.436 91.012 170.403 91.0778 170.348C91.2255 170.259 91.3499 170.136 91.4409 169.989C91.485 169.915 91.5139 169.833 91.5258 169.747C91.5377 169.662 91.5324 169.575 91.5103 169.491C91.2981 168.826 90.7065 169.585 90.576 169.85Z" fill="#F5F5F5"/>
<path d="M73.958 156.533C74.109 157.72 73.55 158.932 73.8356 160.095C74.0437 161.005 74.7087 161.727 75.1657 162.543C75.6226 163.359 75.8389 164.469 75.2024 165.154C74.9661 165.376 74.6746 165.531 74.3583 165.603C74.0419 165.675 73.7122 165.661 73.4031 165.562C72.7891 165.352 72.231 165.004 71.7711 164.546C70.009 162.949 68.7096 160.907 68.0094 158.634C67.7156 157.676 67.5361 156.627 67.8788 155.685C68.9518 152.751 73.5949 153.583 73.958 156.533Z" fill="#F5F5F5"/>
<path d="M74.5335 153.122C74.4188 153.354 74.2368 153.546 74.0113 153.673C73.8788 153.764 73.7251 153.82 73.565 153.834C73.4049 153.848 73.2438 153.821 73.0974 153.755C72.9731 153.665 72.8697 153.55 72.7943 153.417C72.719 153.284 72.6734 153.136 72.6608 152.984C72.5821 152.616 72.6046 152.234 72.7261 151.878C72.7921 151.7 72.9011 151.541 73.0436 151.416C73.186 151.291 73.3573 151.203 73.5421 151.16C73.725 151.123 73.9151 151.15 74.0806 151.236C74.2462 151.322 74.3772 151.462 74.4519 151.633C74.5661 152.013 74.7089 152.751 74.5335 153.122Z" fill="#F5F5F5"/>
<path d="M70.6125 151.698C70.6575 151.551 70.7443 151.421 70.8624 151.322C70.9805 151.223 71.1248 151.161 71.2776 151.144C71.431 151.136 71.5832 151.174 71.7148 151.253C71.8463 151.332 71.9512 151.449 72.016 151.588C72.0555 151.68 72.0882 151.774 72.114 151.87C72.158 152.023 72.1853 152.18 72.1956 152.339C72.2103 152.499 72.1807 152.66 72.1099 152.804C72.0192 152.979 71.8767 153.121 71.7019 153.212C71.5969 153.274 71.4783 153.309 71.3566 153.314C71.2349 153.319 71.1139 153.294 71.0042 153.241C70.8977 153.169 70.8067 153.076 70.7366 152.968C70.6665 152.86 70.6188 152.739 70.5962 152.612C70.5076 152.313 70.5133 151.994 70.6125 151.698Z" fill="#F5F5F5"/>
<path d="M68.7683 152.123C68.7983 151.986 68.8767 151.864 68.9891 151.78C69.1015 151.696 69.2404 151.656 69.3803 151.666C69.5182 151.683 69.65 151.733 69.7644 151.812C69.8787 151.89 69.9723 151.996 70.0372 152.119C70.0764 152.199 70.1104 152.283 70.1392 152.368C70.1891 152.506 70.2207 152.65 70.233 152.796C70.2412 152.939 70.2057 153.082 70.131 153.204C70.044 153.333 69.9184 153.432 69.772 153.486C69.6812 153.525 69.5829 153.543 69.4841 153.54C69.3852 153.536 69.2885 153.511 69.2008 153.465C69.0013 153.336 68.856 153.139 68.7928 152.91C68.698 152.658 68.6894 152.381 68.7683 152.123Z" fill="#F5F5F5"/>
<path d="M67.2587 152.967C67.3689 152.625 67.581 152.559 67.8177 152.604C68.0571 152.689 68.2592 152.855 68.3889 153.073C68.4316 153.143 68.4698 153.215 68.5031 153.29C68.558 153.409 68.5912 153.538 68.601 153.669C68.6139 153.801 68.5743 153.933 68.4909 154.036C68.4119 154.125 68.3058 154.185 68.189 154.208C68.0364 154.241 67.8768 154.218 67.7402 154.142C67.5508 154.028 67.4012 153.859 67.3118 153.657C67.2112 153.441 67.1923 153.196 67.2587 152.967Z" fill="#F5F5F5"/>
<path d="M67.3974 154.632C67.4479 154.718 67.4799 154.814 67.4912 154.913C67.4957 154.963 67.4885 155.014 67.4701 155.061C67.4517 155.107 67.4226 155.149 67.3851 155.183C67.3095 155.223 67.2238 155.241 67.1384 155.233C67.053 155.226 66.9715 155.194 66.9037 155.142C66.7543 155.057 66.6281 154.936 66.5365 154.791C66.4901 154.718 66.4593 154.636 66.446 154.55C66.4327 154.465 66.4371 154.377 66.459 154.293C66.6507 153.636 67.2586 154.383 67.3974 154.632Z" fill="#F5F5F5"/>
<path d="M63.9458 58.5848C63.0068 58.7168 62.0498 58.5674 61.1958 58.1555C60.3417 57.7436 59.629 57.0876 59.1478 56.2706C58.6665 55.4537 58.4383 54.5123 58.4921 53.5657C58.5458 52.619 58.8791 51.7095 59.4498 50.9523C60.0204 50.195 60.8028 49.624 61.698 49.3114C62.5932 48.9989 63.5609 48.9588 64.4789 49.1962C65.3969 49.4337 66.2238 49.938 66.8552 50.6454C67.4865 51.3529 67.8939 52.2316 68.0258 53.1706C68.2004 54.4293 67.869 55.7058 67.1043 56.7206C66.3396 57.7354 65.2038 58.4057 63.9458 58.5848ZM62.9747 51.608C62.5342 51.6687 62.1215 51.8587 61.789 52.1541C61.4564 52.4494 61.219 52.8367 61.1066 53.267C60.9942 53.6973 61.012 54.1512 61.1577 54.5714C61.3034 54.9916 61.5704 55.3592 61.925 55.6276C62.2797 55.8959 62.7059 56.0531 63.1499 56.0792C63.5938 56.1053 64.0356 55.9991 64.4192 55.7741C64.8028 55.5491 65.111 55.2153 65.3049 54.8151C65.4988 54.4148 65.5696 53.9661 65.5084 53.5256C65.4254 52.9359 65.1122 52.4031 64.6374 52.0438C64.1626 51.6844 63.5648 51.5277 62.9747 51.608Z" fill="#E0E0E0"/>
<path d="M62.1489 39.5364L60.3467 39.7881L61.9657 51.3811L63.7679 51.1294L62.1489 39.5364Z" fill="#E0E0E0"/>
<path d="M63.6733 37.923L60.2925 38.4011L60.5472 40.2026L63.928 39.7245L63.6733 37.923Z" fill="#E0E0E0"/>
<path d="M63.9512 40.3738L60.771 40.8174L61.0224 42.6196L64.2025 42.1761L63.9512 40.3738Z" fill="#E0E0E0"/>
<path d="M64.4148 43.6409L61.6387 44.0281L61.89 45.8303L64.6661 45.4431L64.4148 43.6409Z" fill="#E0E0E0"/>
<path d="M102 180.577C145.69 180.577 181.107 178.509 181.107 175.958C181.107 173.407 145.69 171.34 102 171.34C58.3105 171.34 22.8931 173.407 22.8931 175.958C22.8931 178.509 58.3105 180.577 102 180.577Z" fill="#F5F5F5"/>
<path d="M60.1679 99.2566C63.9294 95.3273 63.5031 88.8148 59.2157 84.7105C54.9283 80.6062 48.4033 80.4643 44.6418 84.3937C40.8804 88.323 41.3067 94.8355 45.5941 98.9398C49.8815 103.044 56.4064 103.186 60.1679 99.2566Z" fill="#AFA11E"/>
<g opacity="0.8">
<path d="M60.1679 99.2566C63.9294 95.3273 63.5031 88.8148 59.2157 84.7105C54.9283 80.6062 48.4033 80.4643 44.6418 84.3937C40.8804 88.323 41.3067 94.8355 45.5941 98.9398C49.8815 103.044 56.4064 103.186 60.1679 99.2566Z" fill="white"/>
</g>
<path d="M47.6097 85.3699C47.524 85.3699 47.4406 85.343 47.3711 85.2929C47.3016 85.2428 47.2497 85.1722 47.2226 85.091C47.1955 85.0097 47.1947 84.922 47.2202 84.8403C47.2458 84.7585 47.2964 84.6869 47.3649 84.6355C48.7387 83.6495 50.3946 83.1342 52.0854 83.1667C52.1936 83.1667 52.2974 83.2097 52.3739 83.2862C52.4504 83.3627 52.4934 83.4665 52.4934 83.5747C52.4934 83.6829 52.4504 83.7867 52.3739 83.8632C52.2974 83.9397 52.1936 83.9827 52.0854 83.9827C50.5711 83.9494 49.0867 84.4074 47.8545 85.2883C47.7838 85.3413 47.6979 85.3699 47.6097 85.3699Z" fill="#AFA11E"/>
<path d="M49.5396 99.4052C49.4726 99.4048 49.4067 99.388 49.3478 99.3562C48.0974 98.6876 47.0125 97.7477 46.1724 96.6055C45.3323 95.4633 44.7583 94.1476 44.4926 92.7548C44.2334 91.55 44.2453 90.3026 44.5276 89.103C44.8098 87.9034 45.3553 86.7816 46.1246 85.8188C46.1938 85.7355 46.2934 85.6831 46.4012 85.6731C46.5091 85.6632 46.6166 85.6965 46.6999 85.7657C46.7832 85.835 46.8356 85.9345 46.8455 86.0424C46.8555 86.1503 46.8222 86.2577 46.7529 86.341C46.058 87.2125 45.566 88.2278 45.3126 89.3133C45.0593 90.3987 45.0509 91.527 45.2882 92.6161C45.5326 93.8893 46.0579 95.092 46.8258 96.1365C47.5937 97.1811 48.5849 98.0413 49.7272 98.6545C49.807 98.6975 49.8702 98.7659 49.9067 98.8488C49.9433 98.9318 49.9513 99.0245 49.9293 99.1125C49.9073 99.2004 49.8566 99.2785 49.7853 99.3345C49.714 99.3904 49.6261 99.421 49.5355 99.4215L49.5396 99.4052Z" fill="#AFA11E"/>
<path d="M53.6237 100.47C52.7105 100.466 51.8034 100.32 50.935 100.038C50.8839 100.021 50.8365 99.9944 50.7956 99.9594C50.7546 99.9245 50.721 99.8819 50.6966 99.834C50.6721 99.786 50.6574 99.7338 50.6531 99.6801C50.6489 99.6265 50.6553 99.5726 50.6719 99.5214C50.6885 99.4702 50.715 99.4228 50.7499 99.3819C50.7849 99.341 50.8275 99.3074 50.8754 99.2829C50.9234 99.2585 50.9756 99.2437 51.0293 99.2395C51.0829 99.2353 51.1368 99.2416 51.188 99.2582C53.6972 100.074 56.2023 99.6173 58.0587 98.0342C59.0005 97.203 59.7122 96.1431 60.1253 94.9568C60.5383 93.7705 60.6388 92.4978 60.417 91.2614C60.3996 91.1532 60.426 91.0426 60.4903 90.9538C60.5546 90.865 60.6515 90.8055 60.7597 90.7882C60.8679 90.7708 60.9785 90.7972 61.0673 90.8615C61.156 90.9258 61.2156 91.0227 61.233 91.1309C61.4803 92.5048 61.3679 93.9193 60.9068 95.2369C60.4457 96.5546 59.6514 97.7305 58.6014 98.6503C57.2178 99.8405 55.4487 100.487 53.6237 100.47Z" fill="#AFA11E"/>
<path d="M60.4863 90.2171C60.3997 90.2167 60.3155 90.1889 60.2459 90.1375C60.1762 90.0862 60.1246 90.014 60.0987 89.9315C59.7234 88.7729 59.1089 87.706 58.295 86.8C57.4811 85.8941 56.486 85.1692 55.374 84.6724C55.2745 84.6291 55.1962 84.548 55.1564 84.447C55.1166 84.346 55.1186 84.2334 55.1619 84.1338C55.2052 84.0342 55.2862 83.956 55.3872 83.9162C55.4882 83.8764 55.6009 83.8784 55.7004 83.9216C56.9181 84.466 58.0079 85.2601 58.8991 86.2526C59.7903 87.245 60.4631 88.4136 60.8739 89.6826C60.9073 89.7854 60.8986 89.8973 60.8497 89.9937C60.8007 90.0901 60.7155 90.1631 60.6128 90.1967C60.5717 90.2091 60.5292 90.2159 60.4863 90.2171Z" fill="#AFA11E"/>
<path d="M54.0562 84.2112C54.0251 84.2154 53.9935 84.2154 53.9624 84.2112C53.3484 84.0682 52.7201 83.9956 52.0896 83.995C51.9814 83.995 51.8777 83.952 51.8011 83.8755C51.7246 83.7989 51.6816 83.6952 51.6816 83.587C51.6816 83.4787 51.7246 83.375 51.8011 83.2985C51.8777 83.2219 51.9814 83.179 52.0896 83.179C52.7766 83.181 53.4611 83.2618 54.1296 83.4197C54.2378 83.4321 54.3367 83.487 54.4044 83.5724C54.4721 83.6577 54.5032 83.7664 54.4907 83.8746C54.4783 83.9828 54.4234 84.0816 54.338 84.1494C54.2527 84.2171 54.144 84.2481 54.0358 84.2357L54.0562 84.2112Z" fill="#AFA11E"/>
<path d="M46.8588 93.9585C46.7754 93.9587 46.694 93.9335 46.6254 93.886C46.5569 93.8386 46.5045 93.7713 46.4753 93.6933C46.0928 92.706 45.9583 91.64 46.0835 90.5887C46.2087 89.5374 46.5898 88.5329 47.1934 87.663C47.7639 86.839 48.5281 86.1677 49.4188 85.7082C50.3094 85.2486 51.2993 85.0148 52.3015 85.0273C52.4097 85.0273 52.5135 85.0703 52.59 85.1468C52.6665 85.2233 52.7095 85.3271 52.7095 85.4353C52.7095 85.5435 52.6665 85.6473 52.59 85.7238C52.5135 85.8003 52.4097 85.8433 52.3015 85.8433C51.4308 85.8331 50.5707 86.0359 49.7963 86.4341C49.0219 86.8324 48.3566 87.4139 47.8584 88.1281C47.3291 88.8941 46.9961 89.7784 46.8887 90.7033C46.7813 91.6281 46.9027 92.5652 47.2423 93.4321C47.2793 93.5333 47.2747 93.645 47.2296 93.7429C47.1845 93.8407 47.1025 93.9167 47.0016 93.9544C46.9545 93.9636 46.9063 93.9649 46.8588 93.9585Z" fill="#AFA11E"/>
<path d="M53.3296 98.6178C52.1067 98.5769 50.9117 98.2414 49.8462 97.6398C48.7807 97.0381 47.8762 96.1882 47.2096 95.1621C47.1601 95.0719 47.1464 94.9664 47.1714 94.8666C47.1963 94.7668 47.258 94.6802 47.3442 94.624C47.4303 94.5677 47.5345 94.5461 47.6359 94.5634C47.7373 94.5808 47.8284 94.6357 47.891 94.7173C48.4834 95.6302 49.2869 96.387 50.2336 96.9238C51.1802 97.4607 52.2421 97.7618 53.3296 97.8018C53.4378 97.8018 53.5416 97.8448 53.6181 97.9213C53.6946 97.9978 53.7376 98.1016 53.7376 98.2098C53.7376 98.318 53.6946 98.4218 53.6181 98.4983C53.5416 98.5748 53.4378 98.6178 53.3296 98.6178Z" fill="#AFA11E"/>
<path d="M54.8557 98.4424C54.7625 98.4451 54.6711 98.4158 54.5969 98.3594C54.5227 98.303 54.47 98.2228 54.4477 98.1323C54.4218 98.0273 54.4386 97.9164 54.4944 97.8238C54.5503 97.7313 54.6406 97.6647 54.7455 97.6386C58.0544 96.8226 58.9112 93.9217 58.6378 91.6941C58.2829 88.7891 55.9899 85.8474 52.2893 85.8433C52.1811 85.8433 52.0774 85.8004 52.0008 85.7238C51.9243 85.6473 51.8813 85.5436 51.8813 85.4353C51.8813 85.3271 51.9243 85.2234 52.0008 85.1468C52.0774 85.0703 52.1811 85.0273 52.2893 85.0273C56.4632 85.0273 59.0499 88.3321 59.4497 91.5961C59.8577 94.9621 58.0911 97.6468 54.9413 98.4301C54.9133 98.4373 54.8846 98.4414 54.8557 98.4424Z" fill="#AFA11E"/>
<path d="M50.6329 88.0956C50.5556 88.095 50.48 88.0724 50.415 88.0305C50.35 87.9886 50.2982 87.9291 50.2657 87.8589C50.2197 87.761 50.2146 87.6488 50.2513 87.547C50.288 87.4453 50.3636 87.3623 50.4616 87.3163C51.087 87.0396 51.7646 86.9005 52.4485 86.9083C52.5567 86.9083 52.6605 86.9513 52.737 87.0278C52.8135 87.1043 52.8565 87.2081 52.8565 87.3163C52.8565 87.4245 52.8135 87.5283 52.737 87.6048C52.6605 87.6813 52.5567 87.7243 52.4485 87.7243C51.8854 87.7246 51.3289 87.8457 50.8165 88.0792C50.7574 88.0986 50.6946 88.1042 50.6329 88.0956Z" fill="#AFA11E"/>
<path d="M53.2562 96.7165C52.2228 96.6999 51.2159 96.3874 50.3547 95.8162C49.4935 95.2449 48.814 94.4388 48.3969 93.4933C47.5523 91.6532 47.8012 89.7315 49.0619 88.3443C49.1351 88.265 49.2367 88.2178 49.3445 88.2133C49.4523 88.2087 49.5576 88.247 49.6372 88.3198C49.7165 88.393 49.7636 88.4946 49.7682 88.6024C49.7728 88.7102 49.7345 88.8155 49.6617 88.8951C49.1547 89.4685 48.8334 90.1821 48.7402 90.9418C48.647 91.7015 48.7862 92.4716 49.1394 93.1505C49.5 93.9747 50.0948 94.6747 50.85 95.1636C51.6051 95.6525 52.4872 95.9087 53.3867 95.9005C54.0672 95.8955 54.7317 95.6937 55.3001 95.3194C55.8684 94.9451 56.3162 94.4143 56.5895 93.7911C56.8968 93.0559 56.9894 92.2486 56.8565 91.4629C56.7237 90.6773 56.3708 89.9453 55.8388 89.3521C55.804 89.3113 55.7775 89.2642 55.7609 89.2132C55.7443 89.1623 55.7379 89.1085 55.7421 89.0551C55.7463 89.0017 55.7609 88.9496 55.7852 88.9019C55.8095 88.8541 55.843 88.8116 55.8837 88.7768C55.9244 88.7419 55.9716 88.7155 56.0225 88.6989C56.0735 88.6823 56.1272 88.6759 56.1806 88.6801C56.234 88.6842 56.2861 88.6989 56.3339 88.7232C56.3816 88.7475 56.4241 88.7809 56.459 88.8217C57.0923 89.532 57.5109 90.4076 57.6662 91.3465C57.8215 92.2855 57.7071 93.2492 57.3362 94.1257C57.0014 94.8903 56.4529 95.5419 55.7566 96.0023C55.0603 96.4626 54.2459 96.712 53.4112 96.7205L53.2562 96.7165Z" fill="#AFA11E"/>
<path d="M54.974 88.4544C54.897 88.4549 54.8217 88.4321 54.7578 88.3891C54.0689 87.9457 53.2678 87.708 52.4485 87.7037C52.3403 87.7037 52.2365 87.6607 52.16 87.5842C52.0835 87.5077 52.0405 87.4039 52.0405 87.2957C52.0405 87.1875 52.0835 87.0837 52.16 87.0072C52.2365 86.9307 52.3403 86.8877 52.4485 86.8877C53.423 86.8913 54.376 87.1745 55.1944 87.7037C55.2683 87.7514 55.3248 87.8218 55.3554 87.9042C55.3861 87.9867 55.3893 88.0769 55.3645 88.1613C55.3397 88.2457 55.2883 88.3199 55.2179 88.3727C55.1476 88.4255 55.062 88.4542 54.974 88.4544Z" fill="#AFA11E"/>
<path d="M53.0399 94.8763C52.5632 94.8731 52.093 94.7655 51.6623 94.5611C51.2316 94.3567 50.8509 94.0604 50.547 93.6931C50.1549 93.2443 49.9002 92.6921 49.8134 92.1025C49.7266 91.5129 49.8113 90.9107 50.0574 90.3679C50.2771 89.8753 50.6367 89.458 51.0915 89.1678C51.5463 88.8777 52.0762 88.7275 52.6156 88.7359C52.7238 88.7359 52.8276 88.7789 52.9041 88.8554C52.9806 88.9319 53.0236 89.0357 53.0236 89.1439C53.0236 89.2521 52.9806 89.3559 52.9041 89.4324C52.8276 89.5089 52.7238 89.5519 52.6156 89.5519C52.2341 89.5449 51.8589 89.6497 51.5362 89.8535C51.2136 90.0572 50.9577 90.3509 50.8 90.6984C50.6206 91.0991 50.5602 91.5429 50.6261 91.9769C50.6919 92.411 50.8811 92.8169 51.1713 93.1464C51.4601 93.5003 51.8435 93.765 52.2769 93.9094C52.7103 94.0539 53.1758 94.0723 53.6193 93.9624C53.98 93.8812 54.3099 93.6981 54.5696 93.4348C54.8292 93.1715 55.0078 92.8392 55.084 92.4773C55.1074 92.3719 55.1717 92.28 55.2627 92.2219C55.3537 92.1638 55.464 92.1441 55.5695 92.1672C55.6221 92.1783 55.6719 92.1998 55.7162 92.2302C55.7605 92.2607 55.7983 92.2996 55.8275 92.3447C55.8567 92.3898 55.8767 92.4402 55.8863 92.4931C55.8959 92.546 55.8951 92.6002 55.8837 92.6527C55.7756 93.1633 55.5239 93.6324 55.1581 94.0047C54.7924 94.3769 54.3278 94.6369 53.8192 94.7539C53.5652 94.8256 53.3036 94.8667 53.0399 94.8763Z" fill="#AFA11E"/>
<path d="M55.4146 91.6451C55.3246 91.6492 55.2357 91.6234 55.1619 91.5718C55.0881 91.5201 55.0335 91.4455 55.0066 91.3595C54.8437 90.8483 54.5255 90.4006 54.0962 90.0788C53.6669 89.7571 53.148 89.5772 52.6116 89.5643C52.5034 89.5643 52.3996 89.5213 52.3231 89.4448C52.2466 89.3683 52.2036 89.2645 52.2036 89.1563C52.2036 89.0481 52.2466 88.9443 52.3231 88.8678C52.3996 88.7913 52.5034 88.7483 52.6116 88.7483C53.321 88.7641 54.0078 89.0004 54.5767 89.4245C55.1455 89.8486 55.5682 90.4394 55.7859 91.1147C55.8023 91.1659 55.8086 91.2198 55.8041 91.2733C55.7997 91.3269 55.7847 91.3791 55.7601 91.4268C55.7355 91.4746 55.7016 91.5171 55.6605 91.5517C55.6194 91.5864 55.5719 91.6125 55.5207 91.6288C55.4862 91.6389 55.4505 91.6443 55.4146 91.6451Z" fill="#AFA11E"/>
<path d="M53.1505 93.1791C53.0422 93.1791 52.9385 93.1361 52.862 93.0596C52.7854 92.9831 52.7425 92.8793 52.7425 92.7711C52.7425 92.6629 52.7854 92.5591 52.862 92.4826C52.9385 92.4061 53.0422 92.3631 53.1505 92.3631C53.2062 92.3632 53.2613 92.3519 53.3125 92.3299C53.3636 92.3079 53.4097 92.2756 53.448 92.2351C53.4862 92.1946 53.5157 92.1466 53.5347 92.0943C53.5537 92.0419 53.5618 91.9862 53.5585 91.9306C53.5606 91.8512 53.547 91.7721 53.5183 91.698C53.4897 91.6238 53.4466 91.5562 53.3915 91.4988C53.3365 91.4415 53.2706 91.3957 53.1977 91.3641C53.1248 91.3324 53.0463 91.3156 52.9669 91.3145C52.907 91.3161 52.8481 91.3296 52.7934 91.3541C52.7388 91.3786 52.6896 91.4137 52.6486 91.4573C52.6068 91.5067 52.5752 91.5638 52.5556 91.6254C52.536 91.6871 52.5288 91.7519 52.5344 91.8164C52.5376 91.87 52.5302 91.9236 52.5127 91.9744C52.4952 92.0251 52.4678 92.0719 52.4322 92.112C52.3966 92.1522 52.3534 92.185 52.3051 92.2084C52.2569 92.2319 52.2044 92.2456 52.1509 92.2489C52.0973 92.2521 52.0436 92.2447 51.9929 92.2272C51.9421 92.2096 51.8953 92.1823 51.8552 92.1467C51.815 92.1111 51.7823 92.0679 51.7588 92.0196C51.7353 91.9713 51.7216 91.9189 51.7184 91.8653C51.7039 91.6941 51.7245 91.5218 51.779 91.3588C51.8335 91.1959 51.9208 91.0458 52.0354 90.9178C52.15 90.7898 52.2896 90.6866 52.4456 90.6145C52.6016 90.5424 52.7706 90.5029 52.9424 90.4985C53.1291 90.4991 53.314 90.5366 53.4861 90.6091C53.6582 90.6815 53.8143 90.7874 53.9452 90.9206C54.0761 91.0538 54.1793 91.2117 54.2488 91.3851C54.3183 91.5584 54.3527 91.7439 54.35 91.9306C54.3532 92.0934 54.324 92.2552 54.2639 92.4065C54.2039 92.5579 54.1142 92.6957 54.0002 92.812C53.8863 92.9282 53.7502 93.0206 53.6001 93.0836C53.45 93.1467 53.2888 93.1791 53.126 93.1791H53.1505Z" fill="#AFA11E"/>
<path d="M63.6482 91.8206C64.1459 97.5041 59.9394 102.11 54.2642 102.11H53.8235C59.2336 101.833 63.1626 97.3368 62.6812 91.8329C62.4032 89.1388 61.1813 86.6298 59.2318 84.7498C57.2823 82.8697 54.7307 81.7396 52.0283 81.5594C52.1711 81.5594 52.318 81.5594 52.4649 81.5594C58.1565 81.5349 63.1667 86.1413 63.6482 91.8206Z" fill="#AFA11E"/>
<g opacity="0.4">
<path d="M63.6482 91.8206C64.1459 97.5041 59.9394 102.11 54.2642 102.11H53.8235C59.2336 101.833 63.1626 97.3368 62.6812 91.8329C62.4032 89.1388 61.1813 86.6298 59.2318 84.7498C57.2823 82.8697 54.7307 81.7396 52.0283 81.5594C52.1711 81.5594 52.318 81.5594 52.4649 81.5594C58.1565 81.5349 63.1667 86.1413 63.6482 91.8206Z" fill="white"/>
</g>
<path d="M71.9791 41.6733C71.9892 41.7951 72.0055 41.9163 72.0281 42.0364C72.182 42.8225 72.5855 43.538 73.1786 44.0764C73.8507 44.7056 74.7346 45.0595 75.6552 45.0678H110.127C110.53 45.0759 110.929 45.004 111.304 44.8561C111.678 44.7082 112.019 44.4873 112.307 44.2064C112.596 43.9254 112.825 43.59 112.982 43.2195C113.14 42.8491 113.222 42.4511 113.224 42.0486C113.23 41.9277 113.23 41.8065 113.224 41.6855C113.128 40.772 112.702 39.9249 112.026 39.303C111.35 38.6811 110.47 38.327 109.552 38.3073H75.0718C74.6395 38.2985 74.2104 38.3818 73.8128 38.5517C73.4152 38.7215 73.0584 38.974 72.7659 39.2924C72.4734 39.6107 72.2519 39.9877 72.1163 40.3982C71.9807 40.8087 71.9339 41.2433 71.9791 41.6733Z" fill="#AFA11E"/>
<path opacity="0.8" d="M71.9791 41.6733C71.9892 41.7951 72.0055 41.9163 72.0281 42.0364C72.182 42.8225 72.5855 43.538 73.1786 44.0764C73.8507 44.7056 74.7346 45.0595 75.6552 45.0678H110.127C110.53 45.0759 110.929 45.004 111.304 44.8561C111.678 44.7082 112.019 44.4873 112.307 44.2064C112.596 43.9254 112.825 43.59 112.982 43.2195C113.14 42.8491 113.222 42.4511 113.224 42.0486C113.23 41.9277 113.23 41.8065 113.224 41.6855C113.128 40.772 112.702 39.9249 112.026 39.303C111.35 38.6811 110.47 38.327 109.552 38.3073H75.0718C74.6395 38.2985 74.2104 38.3818 73.8128 38.5517C73.4152 38.7215 73.0584 38.974 72.7659 39.2924C72.4734 39.6107 72.2519 39.9877 72.1163 40.3982C71.9807 40.8087 71.9339 41.2433 71.9791 41.6733Z" fill="white"/>
<path d="M113.224 42.0241C113.224 42.1334 113.216 42.2425 113.2 42.3505C113.078 41.4577 112.641 40.6378 111.967 40.0392C111.294 39.4405 110.429 39.1026 109.528 39.0865L72.877 39.1681C73.1675 38.8855 73.5109 38.6629 73.8876 38.5131C74.2642 38.3633 74.6667 38.2892 75.072 38.295H109.544C110.462 38.3148 111.342 38.6688 112.018 39.2907C112.694 39.9126 113.12 40.7597 113.216 41.6732C113.224 41.79 113.227 41.9071 113.224 42.0241Z" fill="#AFA11E"/>
<path opacity="0.5" d="M113.224 42.0241C113.224 42.1334 113.216 42.2425 113.2 42.3505C113.078 41.4577 112.641 40.6378 111.967 40.0392C111.294 39.4405 110.429 39.1026 109.528 39.0865L72.877 39.1681C73.1675 38.8855 73.5109 38.6629 73.8876 38.5131C74.2642 38.3633 74.6667 38.2892 75.072 38.295H109.544C110.462 38.3148 111.342 38.6688 112.018 39.2907C112.694 39.9126 113.12 40.7597 113.216 41.6732C113.224 41.79 113.227 41.9071 113.224 42.0241Z" fill="white"/>
<path d="M107.304 39.9269L107.451 41.5589L108.985 40.9877L109.348 41.8037L107.781 42.3259L108.907 43.7091L108.202 44.2272L107.104 42.7911L106.288 44.2272L105.517 43.7091L106.386 42.3259L104.754 41.8037L104.974 40.9877L106.627 41.5385L106.48 39.9065L107.304 39.9269Z" fill="#AFA11E"/>
<path d="M97.8588 39.9269L98.0057 41.5589L99.5397 40.9877L99.9069 41.8037L98.328 42.3381L99.454 43.7213L98.7523 44.2394L97.6548 42.8033L96.8388 44.2394L96.0636 43.7213L96.9367 42.3381L95.3047 41.8159L95.525 40.9999L97.1774 41.5507L97.0346 39.9187L97.8588 39.9269Z" fill="#AFA11E"/>
<path d="M88.4339 39.9269L88.5767 41.5589L90.1108 40.9877L90.478 41.8037L88.9072 42.3259L90.0333 43.709L89.3519 44.2394L88.2544 42.8033L87.4384 44.2394L86.6673 43.7213L87.5363 42.3381L85.9043 41.8159L86.1287 40.9999L87.7607 41.5507L87.6179 39.9187L88.4339 39.9269Z" fill="#AFA11E"/>
<path d="M79.0051 39.9269L79.1479 41.5589L80.686 40.9877L81.0492 41.8037L79.4784 42.3259L80.6085 43.7091L79.9027 44.2272L78.8052 42.7911L77.9892 44.2272L77.218 43.7091L78.0871 42.3259L76.4551 41.8037L76.6754 40.9877L78.3074 41.5385L78.1646 39.9065L79.0051 39.9269Z" fill="#AFA11E"/>
<path d="M101.857 36.6956H100.25V37.1036H101.857V36.6956Z" fill="#AFA11E"/>
<path d="M108.764 36.6956H103.521V37.1036H108.764V36.6956Z" fill="#AFA11E"/>
<path opacity="0.8" d="M162.298 51.914L160.63 70.9921C160.565 71.601 160.281 72.1655 159.831 72.5801C159.38 72.9946 158.794 73.2308 158.182 73.2442H144.934C144.647 73.2458 144.363 73.1869 144.101 73.0714C143.838 72.9558 143.603 72.7863 143.411 72.5738C143.218 72.3613 143.073 72.1106 142.984 71.838C142.895 71.5655 142.864 71.2772 142.894 70.9921L144.563 51.9099C144.624 51.3 144.908 50.7339 145.359 50.3189C145.81 49.9038 146.398 49.6686 147.011 49.6577H160.258C160.545 49.6561 160.83 49.7151 161.092 49.8309C161.355 49.9467 161.59 50.1166 161.783 50.3296C161.976 50.5425 162.121 50.7937 162.21 51.0668C162.299 51.3398 162.329 51.6285 162.298 51.914Z" fill="#AFA11E"/>
<path opacity="0.8" d="M162.298 51.914L160.63 70.9921C160.565 71.601 160.281 72.1655 159.831 72.5801C159.38 72.9946 158.794 73.2308 158.182 73.2442H144.934C144.647 73.2458 144.363 73.1869 144.101 73.0714C143.838 72.9558 143.603 72.7863 143.411 72.5738C143.218 72.3613 143.073 72.1106 142.984 71.838C142.895 71.5655 142.864 71.2772 142.894 70.9921L144.563 51.9099C144.624 51.3 144.908 50.7339 145.359 50.3189C145.81 49.9038 146.398 49.6686 147.011 49.6577H160.258C160.545 49.6561 160.83 49.7151 161.092 49.8309C161.355 49.9467 161.59 50.1166 161.783 50.3296C161.976 50.5425 162.121 50.7937 162.21 51.0668C162.299 51.3398 162.329 51.6285 162.298 51.914Z" fill="white"/>
<path d="M145.77 54.9903H145.734C145.626 54.981 145.526 54.9293 145.457 54.8467C145.387 54.7641 145.353 54.6573 145.362 54.5497L145.517 52.8034C145.527 52.7017 145.574 52.6071 145.649 52.5384C145.725 52.4696 145.823 52.4317 145.925 52.4321H147.769C147.878 52.4321 147.981 52.4751 148.058 52.5516C148.134 52.6281 148.177 52.7319 148.177 52.8401C148.177 52.9483 148.134 53.0521 148.058 53.1286C147.981 53.2051 147.878 53.2481 147.769 53.2481H146.301L146.178 54.619C146.169 54.7207 146.122 54.8153 146.047 54.8841C145.971 54.9528 145.872 54.9907 145.77 54.9903Z" fill="#AFA11E"/>
<path d="M160.605 54.9903H160.568C160.461 54.981 160.361 54.9293 160.291 54.8467C160.222 54.7641 160.188 54.6573 160.197 54.5497L160.311 53.2481H158.916C158.808 53.2481 158.704 53.2051 158.627 53.1286C158.551 53.0521 158.508 52.9483 158.508 52.8401C158.508 52.7319 158.551 52.6281 158.627 52.5516C158.704 52.4751 158.808 52.4321 158.916 52.4321H160.752C160.809 52.4319 160.865 52.4435 160.917 52.4663C160.969 52.4891 161.016 52.5224 161.054 52.5643C161.093 52.6062 161.122 52.6556 161.14 52.7094C161.158 52.7632 161.165 52.8203 161.16 52.8769L161.005 54.619C160.996 54.7193 160.95 54.8128 160.876 54.8813C160.802 54.9499 160.706 54.9887 160.605 54.9903Z" fill="#AFA11E"/>
<path d="M146.472 68.1564H144.628C144.572 68.1562 144.517 68.1445 144.466 68.1221C144.414 68.0996 144.368 68.0669 144.33 68.0258C144.292 67.9843 144.263 67.9353 144.245 67.8819C144.226 67.8286 144.219 67.772 144.224 67.7158L144.375 65.9695C144.384 65.8613 144.436 65.7612 144.519 65.6912C144.602 65.6212 144.71 65.587 144.818 65.5962C144.926 65.6054 145.026 65.6572 145.096 65.7402C145.166 65.8232 145.2 65.9307 145.191 66.0389L145.077 67.3404H146.472C146.58 67.3404 146.684 67.3834 146.761 67.4599C146.837 67.5364 146.88 67.6402 146.88 67.7484C146.88 67.8566 146.837 67.9604 146.761 68.0369C146.684 68.1134 146.58 68.1564 146.472 68.1564Z" fill="#AFA11E"/>
<path d="M159.451 68.1565H157.611C157.502 68.1565 157.399 68.1135 157.322 68.037C157.246 67.9605 157.203 67.8567 157.203 67.7485C157.203 67.6403 157.246 67.5365 157.322 67.46C157.399 67.3835 157.502 67.3405 157.611 67.3405H159.079L159.198 65.9696C159.207 65.862 159.259 65.7625 159.341 65.6929C159.424 65.6233 159.531 65.5893 159.638 65.5984C159.746 65.6077 159.846 65.6593 159.915 65.7419C159.985 65.8245 160.019 65.9314 160.01 66.039L159.859 67.7852C159.85 67.887 159.803 67.9815 159.727 68.0503C159.651 68.119 159.553 68.1569 159.451 68.1565Z" fill="#AFA11E"/>
<path d="M158.046 61.5781C158.967 58.0063 157.386 54.5104 154.515 53.77C151.643 53.0295 148.569 55.3248 147.648 58.8966C146.727 62.4685 148.308 65.9643 151.179 66.7047C154.051 67.4452 157.125 65.1499 158.046 61.5781Z" fill="white"/>
<path d="M154.449 70.3922H149.165L149.626 65.1086H154.91L154.449 70.3922Z" fill="white"/>
<path d="M160.63 70.9922C160.565 71.6011 160.281 72.1656 159.831 72.5802C159.38 72.9947 158.794 73.2309 158.182 73.2443H144.934C144.647 73.2459 144.363 73.187 144.101 73.0715C143.838 72.9559 143.603 72.7864 143.411 72.5739C143.218 72.3614 143.073 72.1107 142.984 71.8381C142.895 71.5656 142.864 71.2773 142.894 70.9922C142.894 70.9922 148.981 69.0664 149.732 69.0664H154.436L160.63 70.9922Z" fill="white"/>
<path d="M163.068 57.4896L162.45 64.9836L162.857 65.0171L163.474 57.5231L163.068 57.4896Z" fill="#AFA11E"/>
<path d="M163.497 54.0603L163.375 55.5322L163.782 55.5657L163.903 54.0938L163.497 54.0603Z" fill="#AFA11E"/>
<path d="M149.279 99.5806H147.671V99.9886H149.279V99.5806Z" fill="#AFA11E"/>
<path d="M156.187 99.5806H150.944V99.9886H156.187V99.5806Z" fill="#AFA11E"/>
<path d="M165.782 92.6159L164.767 104.244C164.714 104.758 164.475 105.235 164.094 105.584C163.714 105.934 163.219 106.132 162.702 106.141C162.459 106.145 162.218 106.098 161.995 106.002C161.771 105.906 161.571 105.763 161.407 105.584C161.243 105.404 161.119 105.192 161.043 104.961C160.968 104.73 160.942 104.486 160.968 104.244L161.976 92.6159C162.07 91.7486 161.978 90.8713 161.707 90.0422C161.436 89.2131 160.992 88.4511 160.404 87.8067C159.816 87.1624 159.097 86.6504 158.296 86.3049C157.495 85.9593 156.63 85.788 155.758 85.8023H151.613C149.759 85.8374 147.982 86.5497 146.617 87.8049C145.252 89.0601 144.393 90.7713 144.203 92.6159L143.795 97.365H140.001L140.409 92.6159C140.919 86.7652 146.096 82.0079 151.943 82.0079H156.105C157.463 81.9855 158.81 82.2522 160.056 82.7902C161.303 83.3282 162.422 84.1253 163.337 85.1286C164.252 86.1318 164.943 87.3182 165.365 88.6091C165.787 89.9 165.929 91.2658 165.782 92.6159Z" fill="#AFA11E"/>
<g opacity="0.5">
<path d="M165.782 92.6159L164.767 104.244C164.714 104.758 164.475 105.235 164.094 105.584C163.714 105.934 163.219 106.132 162.702 106.141C162.459 106.145 162.218 106.098 161.995 106.002C161.771 105.906 161.571 105.763 161.407 105.584C161.243 105.404 161.119 105.192 161.043 104.961C160.968 104.73 160.942 104.486 160.968 104.244L161.976 92.6159C162.07 91.7486 161.978 90.8713 161.707 90.0422C161.436 89.2131 160.992 88.4511 160.404 87.8067C159.816 87.1624 159.097 86.6504 158.296 86.3049C157.495 85.9593 156.63 85.788 155.758 85.8023H151.613C149.759 85.8374 147.982 86.5497 146.617 87.8049C145.252 89.0601 144.393 90.7713 144.203 92.6159L143.795 97.365H140.001L140.409 92.6159C140.919 86.7652 146.096 82.0079 151.943 82.0079H156.105C157.463 81.9855 158.81 82.2522 160.056 82.7902C161.303 83.3282 162.422 84.1253 163.337 85.1286C164.252 86.1318 164.943 87.3182 165.365 88.6091C165.787 89.9 165.929 91.2658 165.782 92.6159Z" fill="white"/>
</g>
<path d="M166.056 103.82L164.077 126.48C164.005 127.182 163.678 127.834 163.158 128.312C162.638 128.789 161.96 129.059 161.254 129.071H138.594C138.262 129.077 137.932 129.012 137.627 128.881C137.322 128.75 137.049 128.555 136.825 128.31C136.601 128.065 136.432 127.775 136.329 127.459C136.226 127.144 136.191 126.81 136.227 126.48L138.21 103.82C138.256 103.368 138.407 102.933 138.653 102.551C138.898 102.169 139.23 101.85 139.622 101.62C140.047 101.36 140.535 101.219 141.033 101.212H163.69C164.153 101.21 164.607 101.339 164.999 101.584C165.366 101.821 165.659 102.156 165.846 102.551C166.032 102.946 166.105 103.385 166.056 103.82Z" fill="#AFA11E"/>
<path d="M142.494 113.718L148.382 122.779L167.798 103.363C167.828 103.327 167.844 103.281 167.844 103.234C167.843 103.187 167.825 103.142 167.794 103.107C167.763 103.072 167.721 103.049 167.674 103.043C167.628 103.037 167.581 103.047 167.541 103.073L149.038 117.577L145.542 111.943L142.494 113.718Z" fill="white"/>
<path d="M49.7759 69.8946H35.0145C34.3315 69.8822 33.6767 69.6201 33.1737 69.1578C32.6708 68.6955 32.3547 68.065 32.285 67.3854L31.0079 52.6322C30.9725 52.3127 31.0056 51.9893 31.105 51.6837C31.2044 51.378 31.3679 51.0971 31.5845 50.8596C31.8012 50.6221 32.0659 50.4336 32.3612 50.3066C32.6565 50.1795 32.9754 50.1169 33.2968 50.123H48.0419C48.7224 50.1384 49.3737 50.402 49.8734 50.8641C50.3731 51.3262 50.6866 51.955 50.7551 52.6322L52.0444 67.3773C52.0809 67.6956 52.0492 68.0181 51.9515 68.3233C51.8539 68.6285 51.6924 68.9095 51.4779 69.1476C51.2634 69.3856 51.0007 69.5753 50.7073 69.7041C50.4138 69.8329 50.0964 69.8979 49.7759 69.8946Z" fill="#AFA11E"/>
<path opacity="0.8" d="M49.7759 69.8946H35.0145C34.3315 69.8822 33.6767 69.6201 33.1737 69.1578C32.6708 68.6955 32.3547 68.065 32.285 67.3854L31.0079 52.6322C30.9725 52.3127 31.0056 51.9893 31.105 51.6837C31.2044 51.378 31.3679 51.0971 31.5845 50.8596C31.8012 50.6221 32.0659 50.4336 32.3612 50.3066C32.6565 50.1795 32.9754 50.1169 33.2968 50.123H48.0419C48.7224 50.1384 49.3737 50.402 49.8734 50.8641C50.3731 51.3262 50.6866 51.955 50.7551 52.6322L52.0444 67.3773C52.0809 67.6956 52.0492 68.0181 51.9515 68.3233C51.8539 68.6285 51.6924 68.9095 51.4779 69.1476C51.2634 69.3856 51.0007 69.5753 50.7073 69.7041C50.4138 69.8329 50.0964 69.8979 49.7759 69.8946Z" fill="white"/>
<path d="M32.293 61.4978C32.293 61.4978 37.5358 54.1987 41.3954 54.3864C45.2551 54.5741 51.6689 61.3224 51.6689 61.3224C51.6689 61.3224 42.2155 66.2877 32.293 61.4978Z" fill="white"/>
<path d="M32.4604 61.608L32.1299 61.3714C32.342 61.0735 37.34 54.1702 41.2487 54.1702H41.4078C45.3083 54.3578 51.5507 60.894 51.8159 61.1714L51.5221 61.453C51.4568 61.3877 45.1247 54.7577 41.3874 54.5782H41.2487C37.5359 54.5863 32.5093 61.5468 32.4604 61.608Z" fill="#263238"/>
<path d="M31.7504 61.7548C30.9589 61.7548 29.9308 61.461 29.5676 60.3431C29.5509 60.2917 29.5553 60.2358 29.5797 60.1876C29.6042 60.1394 29.6468 60.1029 29.6982 60.0861C29.7236 60.0772 29.7506 60.0736 29.7774 60.0754C29.8043 60.0772 29.8305 60.0844 29.8545 60.0966C29.8785 60.1088 29.8998 60.1257 29.9171 60.1464C29.9344 60.167 29.9474 60.1909 29.9552 60.2166C30.4244 61.661 32.1788 61.3142 32.2523 61.2978C32.3052 61.2881 32.3598 61.2992 32.4047 61.3289C32.4496 61.3586 32.4812 61.4045 32.493 61.457C32.4984 61.4832 32.4985 61.5103 32.4934 61.5366C32.4883 61.5629 32.4781 61.5879 32.4633 61.6103C32.4485 61.6326 32.4295 61.6519 32.4073 61.6669C32.3851 61.6819 32.3601 61.6923 32.3339 61.6977C32.1417 61.7357 31.9463 61.7548 31.7504 61.7548Z" fill="#263238"/>
<path d="M34.8634 58.6216C34.8179 58.6225 34.7733 58.6081 34.7369 58.5808C34.6757 58.5318 33.2273 57.4139 32.8601 56.2756C32.8434 56.2242 32.8477 56.1682 32.8722 56.12C32.8967 56.0718 32.9393 56.0353 32.9907 56.0185C33.0421 56.0029 33.0976 56.0077 33.1455 56.0321C33.1934 56.0564 33.23 56.0983 33.2477 56.1491C33.5782 57.165 34.9695 58.2462 34.9858 58.2544C35.0285 58.2874 35.0563 58.3361 35.0631 58.3896C35.07 58.4431 35.0554 58.4972 35.0225 58.54C35.0039 58.5648 34.9799 58.585 34.9524 58.5991C34.9248 58.6133 34.8944 58.6209 34.8634 58.6216Z" fill="#263238"/>
<path d="M37.8581 55.8429C37.8047 55.8399 37.7544 55.8167 37.7173 55.7781C37.6803 55.7395 37.6591 55.6884 37.6582 55.6349C37.4199 54.7462 37.1242 53.874 36.7728 53.0237C36.6708 52.7544 36.5974 52.5585 36.5811 52.5096C36.573 52.4836 36.5701 52.4563 36.5727 52.4292C36.5753 52.4021 36.5833 52.3758 36.5963 52.3518C36.6092 52.3279 36.6268 52.3067 36.648 52.2897C36.6692 52.2726 36.6936 52.26 36.7198 52.2525C36.7455 52.245 36.7725 52.2427 36.7991 52.2456C36.8257 52.2485 36.8515 52.2566 36.875 52.2695C36.8985 52.2824 36.9192 52.2998 36.936 52.3207C36.9528 52.3416 36.9653 52.3655 36.9728 52.3913C36.9728 52.4402 37.0584 52.6197 37.1523 52.8768C37.7235 54.3741 38.0744 55.3574 38.0662 55.643C38.0662 55.67 38.0608 55.6967 38.0502 55.7215C38.0397 55.7463 38.0242 55.7687 38.0048 55.7874C37.9853 55.806 37.9623 55.8206 37.9371 55.8301C37.9119 55.8397 37.885 55.844 37.8581 55.8429Z" fill="#263238"/>
<path d="M41.3957 54.5904C41.3448 54.5888 41.2963 54.5689 41.2588 54.5345C41.2214 54.5 41.1975 54.4533 41.1917 54.4027L40.9061 51.1387C40.9012 51.0846 40.9181 51.0308 40.9529 50.9891C40.9877 50.9474 41.0376 50.9212 41.0917 50.9164C41.1458 50.9115 41.1997 50.9283 41.2414 50.9631C41.2831 50.9979 41.3092 51.0479 41.3141 51.102L41.5997 54.3905C41.6032 54.4437 41.5861 54.4963 41.5519 54.5373C41.5177 54.5783 41.4691 54.6046 41.4161 54.6108L41.3957 54.5904Z" fill="#263238"/>
<path d="M52.2809 61.5306C52.0813 61.5315 51.882 61.5152 51.6852 61.4816C51.659 61.4763 51.634 61.4658 51.6118 61.4508C51.5896 61.4358 51.5706 61.4166 51.5558 61.3942C51.541 61.3719 51.5308 61.3468 51.5257 61.3205C51.5206 61.2942 51.5207 61.2671 51.5261 61.2409C51.5304 61.2145 51.5401 61.1893 51.5546 61.1669C51.569 61.1444 51.5879 61.1251 51.6101 61.1102C51.6322 61.0953 51.6572 61.0851 51.6835 61.0802C51.7097 61.0753 51.7367 61.0758 51.7627 61.0818C51.7627 61.0818 52.7623 61.2735 53.3743 60.841C53.5053 60.7458 53.6144 60.6237 53.6946 60.4831C53.7748 60.3424 53.8242 60.1863 53.8395 60.025C53.8435 59.9983 53.8527 59.9725 53.8667 59.9493C53.8807 59.9261 53.8991 59.9059 53.9209 59.8898C53.9426 59.8737 53.9674 59.862 53.9937 59.8555C54.02 59.8489 54.0473 59.8476 54.0741 59.8516C54.1009 59.8557 54.1266 59.8649 54.1498 59.8789C54.173 59.8928 54.1932 59.9113 54.2094 59.933C54.2255 59.9548 54.2371 59.9796 54.2436 60.0058C54.2502 60.0321 54.2515 60.0595 54.2475 60.0862C54.2228 60.3009 54.1534 60.5081 54.0438 60.6943C53.9342 60.8805 53.7867 61.0417 53.611 61.1674C53.2145 61.4201 52.7508 61.5468 52.2809 61.5306Z" fill="#263238"/>
<path d="M48.6171 58.4053C48.5884 58.4055 48.56 58.3994 48.5339 58.3874C48.5078 58.3754 48.4846 58.3578 48.4661 58.3359C48.447 58.3169 48.4318 58.2944 48.4215 58.2695C48.4111 58.2446 48.4058 58.218 48.4058 58.1911C48.4058 58.1641 48.4111 58.1375 48.4215 58.1126C48.4318 58.0877 48.447 58.0652 48.4661 58.0462C48.4661 58.0462 49.6901 56.9691 49.8207 55.9654C49.8297 55.9123 49.859 55.8648 49.9024 55.8328C49.9457 55.8008 49.9998 55.787 50.0532 55.7941C50.0798 55.798 50.1053 55.8072 50.1282 55.8211C50.1512 55.8349 50.1712 55.8532 50.1872 55.8748C50.2031 55.8964 50.2146 55.9209 50.221 55.947C50.2274 55.973 50.2286 56.0001 50.2246 56.0266C50.0532 57.1772 48.7884 58.3033 48.7354 58.3522C48.7035 58.3834 48.6616 58.4022 48.6171 58.4053Z" fill="#263238"/>
<path d="M45.1694 56.0348H45.1327C45.0795 56.0249 45.0323 55.9946 45.0011 55.9504C44.9698 55.9062 44.957 55.8516 44.9654 55.7982C44.9654 55.7737 45.4142 53.1503 45.4958 52.6117C45.4998 52.5849 45.5091 52.5592 45.523 52.536C45.537 52.5128 45.5554 52.4925 45.5772 52.4764C45.599 52.4603 45.6237 52.4487 45.65 52.4421C45.6763 52.4356 45.7036 52.4343 45.7304 52.4383C45.7572 52.4423 45.7829 52.4516 45.8061 52.4656C45.8293 52.4795 45.8496 52.4979 45.8657 52.5197C45.8818 52.5415 45.8934 52.5662 45.9 52.5925C45.9065 52.6188 45.9078 52.6461 45.9038 52.6729C45.8222 53.2156 45.3775 55.8431 45.3734 55.8676C45.3647 55.9151 45.3394 55.958 45.3021 55.9886C45.2647 56.0192 45.2177 56.0356 45.1694 56.0348Z" fill="#263238"/>
<path d="M45.2894 62.3527C46.9785 60.5882 46.7855 57.6622 44.8582 55.8173C42.931 53.9724 39.9994 53.9072 38.3103 55.6716C36.6212 57.4361 36.8143 60.3621 38.7415 62.207C40.6687 64.0519 43.6003 64.1171 45.2894 62.3527Z" fill="#AFA11E"/>
<path opacity="0.3" d="M43.7131 59.009C43.7192 58.9058 43.7192 58.8022 43.7131 58.699C43.6583 58.167 43.4105 57.6736 43.0165 57.312C42.6226 56.9504 42.1098 56.7456 41.5751 56.7365C41.3238 56.7321 41.0745 56.7813 40.8437 56.8807C40.6128 56.9802 40.4058 57.1276 40.2364 57.3132C40.067 57.4989 39.939 57.7185 39.861 57.9574C39.783 58.1963 39.7568 58.4491 39.784 58.699C39.7908 58.8042 39.8099 58.9083 39.8411 59.009H37.181C37.116 58.4207 37.1771 57.8253 37.3602 57.2624C37.5434 56.6996 37.8444 56.1822 38.2431 55.7448C38.6419 55.3074 39.1294 54.96 39.673 54.7258C40.2165 54.4916 40.8038 54.3759 41.3956 54.3864C42.654 54.4096 43.8604 54.8926 44.7871 55.7442C45.7139 56.5958 46.2969 57.7571 46.4263 59.009H43.7131Z" fill="black"/>
<path opacity="0.7" d="M43.7087 58.6991C43.7148 58.8023 43.7148 58.9059 43.7087 59.0092C43.6794 59.4633 43.4759 59.8886 43.1407 60.1965C42.8055 60.5043 42.3644 60.6709 41.9094 60.6616C41.4298 60.6526 40.9665 60.4859 40.5911 60.1872C40.2157 59.8885 39.9492 59.4745 39.8327 59.0092C39.8015 58.9084 39.7823 58.8043 39.7756 58.6991C39.7483 58.4492 39.7746 58.1964 39.8526 57.9575C39.9306 57.7186 40.0585 57.499 40.228 57.3134C40.3974 57.1277 40.6044 56.9803 40.8352 56.8808C41.0661 56.7814 41.3154 56.7322 41.5667 56.7366C42.1021 56.7448 42.6159 56.9491 43.0106 57.3108C43.4054 57.6725 43.6538 58.1665 43.7087 58.6991Z" fill="black"/>
<path opacity="0.7" d="M44.774 56.7732C44.796 56.9769 44.7744 57.1829 44.7107 57.3776C44.647 57.5723 44.5427 57.7512 44.4045 57.9025C44.2664 58.0537 44.0976 58.1739 43.9095 58.2549C43.7214 58.336 43.5182 58.3761 43.3133 58.3726C42.8784 58.364 42.4616 58.1966 42.1415 57.902C41.8213 57.6074 41.62 57.206 41.5753 56.7732C41.5526 56.5694 41.5736 56.3632 41.6371 56.1682C41.7005 55.9732 41.8049 55.794 41.9432 55.6426C42.0814 55.4912 42.2505 55.371 42.4389 55.2902C42.6274 55.2094 42.8309 55.1697 43.0359 55.1739C43.4711 55.1816 43.8884 55.3487 44.2087 55.6435C44.529 55.9382 44.7301 56.3402 44.774 56.7732Z" fill="white"/>
<path d="M38.4581 48.2991H36.8506V48.7071H38.4581V48.2991Z" fill="#AFA11E"/>
<path d="M45.3654 48.2991H40.1226V48.7071H45.3654V48.2991Z" fill="#AFA11E"/>
<path d="M112.608 78.1931L112.746 78.3604L112.934 78.5767C113.069 78.7195 113.199 78.8704 113.342 79.0091C113.624 79.3029 113.93 79.5885 114.24 79.8782C114.859 80.4496 115.509 80.9876 116.186 81.4898C116.875 82.0039 117.602 82.4731 118.328 82.9382C118.736 83.1585 119.07 83.3911 119.454 83.6032L120.339 84.0928C120.468 84.1496 120.613 84.1582 120.747 84.1173C121.033 84.0316 122.673 82.4078 123.195 81.8039C124.354 80.4779 126.108 78.7317 127.055 77.2466L128.112 78.7031C127.444 80.5227 126.557 82.2544 125.472 83.8603C124.888 84.7284 124.188 85.5123 123.391 86.1899C122.913 86.593 122.373 86.9167 121.792 87.1487C121.055 87.4426 120.247 87.5039 119.474 87.3242C119.275 87.2755 119.079 87.21 118.891 87.1283L118.524 86.9692L117.863 86.6673C117.418 86.4715 116.99 86.2348 116.557 86.0186C115.692 85.5572 114.853 85.0491 114.044 84.4967C113.228 83.9355 112.444 83.3279 111.698 82.6771C111.31 82.3384 110.963 81.9957 110.609 81.6244C110.433 81.4408 110.254 81.2491 110.082 81.0491L109.829 80.7391C109.735 80.6248 109.666 80.5391 109.54 80.3637L112.608 78.1931Z" fill="#FFB573"/>
<path d="M126.888 77.4709L128.781 73.4236L130.588 76.6631C130.588 76.6631 129.401 78.7031 128.112 78.7031L126.888 77.4709Z" fill="#FFB573"/>
<path d="M130.927 71.7427L132.837 74.1988L130.605 76.6591L128.797 73.4236L130.927 71.7427Z" fill="#FFB573"/>
<path d="M130.262 77.777H133.269C133.354 77.7763 133.435 77.7443 133.498 77.687C133.56 77.6297 133.599 77.5513 133.607 77.4669L134.232 70.2575C134.236 70.2104 134.231 70.1628 134.216 70.1179C134.201 70.073 134.177 70.0317 134.145 69.9967C134.113 69.9617 134.074 69.9338 134.031 69.9148C133.987 69.8957 133.94 69.886 133.893 69.8862H130.89C130.805 69.887 130.723 69.9196 130.66 69.9777C130.597 70.0358 130.559 70.1152 130.552 70.2004L129.919 77.4057C129.915 77.453 129.921 77.5007 129.937 77.5456C129.952 77.5906 129.977 77.6318 130.009 77.6667C130.041 77.7016 130.08 77.7294 130.124 77.7484C130.167 77.7674 130.214 77.7771 130.262 77.777Z" fill="#AFA11E"/>
<path opacity="0.3" d="M130.295 77.0549H133.306L133.869 70.6125H130.858L130.295 77.0549Z" fill="white"/>
<path d="M130.099 76.141L130.633 75.8676C130.905 75.7293 131.157 75.5535 131.38 75.3454L131.478 74.9904C131.421 74.8959 131.335 74.8223 131.233 74.7804C131.13 74.7385 131.018 74.7306 130.911 74.7579L130.466 74.8803L128.259 75.0475L128.206 75.9778L128.85 76.9733H129.071C129.313 76.9819 129.551 76.9024 129.74 76.7495C129.929 76.5965 130.057 76.3804 130.099 76.141Z" fill="#FFB573"/>
<path d="M108.756 74.2561C110.286 73.9786 121.078 83.3341 121.078 83.3341L117.879 88.026C117.879 88.026 106.08 79.8089 106.455 77.8261C106.818 75.7412 106.528 74.6641 108.756 74.2561Z" fill="#263238"/>
<path opacity="0.2" d="M110.119 77.2466L110.001 82.1426C111.225 83.0932 115.648 86.4837 115.648 86.4837L110.119 77.2466Z" fill="black"/>
<path d="M101.563 171.486L105.182 171.841L106.333 163.449L102.71 163.094L101.563 171.486Z" fill="#FFB573"/>
<path d="M65.9325 122.241L65.0063 125.766L72.8359 129.14L74.4597 125.562L65.9325 122.241Z" fill="#FFB573"/>
<path d="M107.773 172.584C108.085 172.622 108.4 172.553 108.667 172.388C108.724 172.338 108.769 172.275 108.798 172.204C108.826 172.133 108.837 172.056 108.83 171.98C108.83 171.933 108.817 171.886 108.792 171.845C108.768 171.804 108.733 171.77 108.691 171.748C108.255 171.487 106.778 172.188 106.61 172.266C106.594 172.273 106.581 172.286 106.572 172.301C106.564 172.316 106.56 172.334 106.561 172.351C106.564 172.369 106.572 172.386 106.584 172.399C106.597 172.413 106.613 172.422 106.631 172.425C107.006 172.513 107.388 172.566 107.773 172.584ZM108.43 171.854C108.487 171.849 108.544 171.862 108.593 171.89C108.61 171.899 108.625 171.913 108.635 171.929C108.645 171.946 108.65 171.965 108.65 171.984C108.655 172.035 108.647 172.087 108.628 172.134C108.609 172.182 108.579 172.224 108.54 172.258C108.316 172.449 107.724 172.466 106.908 172.311C107.389 172.07 107.908 171.914 108.442 171.85L108.43 171.854Z" fill="#AFA11E"/>
<path d="M106.647 172.409H106.68C107.12 172.225 108.006 171.466 107.949 171.05C107.933 170.978 107.892 170.913 107.834 170.867C107.776 170.821 107.704 170.796 107.63 170.797C107.545 170.781 107.458 170.784 107.374 170.805C107.29 170.826 107.212 170.865 107.145 170.919C106.676 171.282 106.565 172.266 106.557 172.302C106.553 172.317 106.553 172.333 106.557 172.348C106.56 172.363 106.567 172.377 106.578 172.388C106.587 172.396 106.598 172.402 106.61 172.406C106.622 172.409 106.635 172.41 106.647 172.409ZM107.549 170.952H107.598C107.757 170.976 107.765 171.038 107.765 171.058C107.802 171.307 107.198 171.911 106.745 172.152C106.788 171.738 106.963 171.349 107.243 171.042C107.333 170.976 107.446 170.948 107.557 170.964L107.549 170.952Z" fill="#AFA11E"/>
<path d="M105.003 170.381L101.739 170.52C101.668 170.52 101.601 170.547 101.549 170.594C101.497 170.642 101.464 170.707 101.457 170.777L100.674 175.334C100.669 175.411 100.68 175.489 100.706 175.562C100.732 175.636 100.772 175.703 100.824 175.761C100.876 175.818 100.939 175.865 101.009 175.898C101.079 175.931 101.155 175.95 101.233 175.954H101.298C102.722 175.881 103.407 175.775 105.211 175.713C106.316 175.677 109.699 176.077 111.208 175.734C112.718 175.391 112.432 173.894 111.784 173.906C109.687 173.947 107.267 172.58 106.072 170.981C105.864 170.846 105.231 170.369 105.003 170.381Z" fill="#263238"/>
<path d="M66.6712 126.227L68.3358 123.4C68.3735 123.34 68.3873 123.268 68.3745 123.198C68.3616 123.129 68.3231 123.067 68.2665 123.024L64.8719 119.895C64.7457 119.806 64.5898 119.77 64.4373 119.794C64.2849 119.818 64.148 119.901 64.0559 120.025L64.0192 120.083C63.3093 121.307 63.0277 121.951 62.1016 123.498C61.5304 124.448 59.3517 127.088 58.8376 128.528C58.3235 129.968 59.7189 130.568 60.0616 130.005C61.1673 128.218 63.6275 126.929 65.6267 126.774C65.8185 126.7 66.5569 126.427 66.6712 126.227Z" fill="#263238"/>
<path opacity="0.2" d="M106.333 163.449L105.741 167.778L102.118 167.423L102.706 163.098L106.333 163.449Z" fill="black"/>
<path opacity="0.2" d="M76.867 126.435L75.1942 130.209L70.1514 127.981L71.4366 124.387L76.867 126.435Z" fill="black"/>
<path d="M111.07 78.5603C113.138 82.0773 110.609 85.0434 108.495 95.5535L94.8597 95.5902C95.08 89.9272 95.0556 85.3494 92.6402 74.2069C92.5775 73.9324 92.5776 73.6472 92.6406 73.3727C92.7036 73.0983 92.8278 72.8416 93.004 72.6218C93.1802 72.4021 93.4037 72.2251 93.6579 72.1039C93.9122 71.9827 94.1905 71.9206 94.4721 71.9221C95.5982 71.9221 97.014 71.9589 98.4542 72.1057C100.726 72.2915 102.982 72.6337 105.207 73.1298C106.413 73.4208 107.599 73.7916 108.756 74.2396C109.458 74.4762 110.303 76.3857 111.07 78.5603Z" fill="#263238"/>
<path d="M109.001 96.2634C109.001 96.2634 116.66 118.406 116.476 129.054C116.37 135.154 115.909 146.521 114.069 154.514C112.567 161.042 106.447 165.203 106.447 165.203L101.551 164.914C101.551 164.914 98.8993 154.958 99.3603 150.997C100.278 143.11 103 137.186 102.669 129.944C102.147 118.087 98.6382 96.0798 98.6382 96.0798L109.001 96.2634Z" fill="#AFA11E"/>
<path d="M100.568 166.191L107.483 166.599L108.112 164.522L100.384 163.808L100.568 166.191Z" fill="#263238"/>
<path opacity="0.2" d="M101.441 140.996C101.441 140.996 101.441 140.956 101.482 140.96C105.827 141.368 108.826 135.113 108.112 126.549L105.807 104.721L101.441 140.996Z" fill="black"/>
<path d="M105.566 96.08C105.566 96.08 111.653 135.015 98.9969 139.397C92.3179 141.927 86.6998 139.185 80.0453 136.239C76.1978 134.538 71.3916 129.932 71.3916 129.932L73.2398 124.901C76.5639 124.002 80.0422 123.827 83.4398 124.387C89.927 125.391 90.2004 127.243 92.5056 125.844C97.3526 113.865 89.0131 104.395 94.6802 96.0596L105.566 96.08Z" fill="#AFA11E"/>
<path d="M73.6028 123.946L71.1304 130.47L72.9501 131.861L75.8877 124.097L73.6028 123.946Z" fill="#263238"/>
<path d="M72.5832 88.7644C71.9671 89.6743 68.8418 89.0582 68.8418 89.0582L68.1768 85.1863L72.016 86.7244L72.5832 88.7644Z" fill="#FFB573"/>
<path d="M68.9517 84.9863L69.5474 89.0092L67.2422 89.3519C67.1172 89.3633 66.9925 89.3279 66.8923 89.2525C66.792 89.1771 66.7233 89.0671 66.6995 88.9439L65.8142 86.0879C65.7991 86.0215 65.8102 85.9518 65.8452 85.8933C65.8801 85.8348 65.9362 85.792 66.0019 85.7738L68.9517 84.9863Z" fill="#FFB573"/>
<path d="M67.9198 86.8102L69.2336 87.0427L70.478 86.1084L69.9965 85.7657C69.6703 85.5334 69.4408 85.1892 69.3519 84.7987C69.2594 84.3897 69.2034 83.9733 69.1846 83.5543V83.4156C69.1689 83.2926 69.1134 83.1781 69.0264 83.0897C68.9395 83.0013 68.8259 82.9438 68.7032 82.926L68.3768 83.1667C68.1728 83.6115 68.3197 84.1296 68.2952 84.4764L68.2421 85.1496L67.7158 85.3781L67.9198 86.8102Z" fill="#FFB573"/>
<path d="M93.2973 73.4399L85.5779 84.0479L71.3999 86.8468V89.1724C71.3999 89.1724 84.7252 90.1598 87.7199 88.4176C90.7146 86.6755 95.7371 76.1083 95.7371 76.1083L93.2973 73.4399Z" fill="#FFB573"/>
<path d="M93.2074 53.0399C89.9679 51.9547 86.2102 53.9661 84.7292 57.0424C83.2481 60.1187 83.7663 63.8927 85.435 66.8711C85.9369 67.7728 86.5366 68.6215 86.9487 69.5639C87.4067 70.4982 87.5068 71.5678 87.2302 72.5709C86.8957 73.546 86.5529 74.1703 85.3453 74.0152C85.3453 74.0152 85.3453 73.3461 85.8063 73.4277C85.8063 73.4277 84.8271 73.9703 84.4436 73.6154C84.8883 74.3008 86.0756 74.0519 86.455 73.3257C87.0221 72.2445 85.9777 70.7798 84.7537 70.792C83.5297 70.8043 82.5341 72.0446 82.5749 73.2645C82.626 73.8746 82.8431 74.4592 83.2027 74.9547C83.5623 75.4503 84.0507 75.8379 84.6149 76.0756C84.2842 76.1301 83.9448 76.0736 83.6496 75.9149C83.3543 75.7563 83.1199 75.5043 82.9829 75.1984C83.5378 76.6509 85.3493 77.2915 86.8793 77.0059C88.4093 76.7203 89.7027 75.7411 90.9022 74.7496C92.5342 73.4114 94.2029 71.7182 94.1662 69.6251C94.1295 68.0625 93.1258 66.7202 92.2813 65.4023C91.4367 64.0845 90.6982 62.477 91.2368 61.0123C91.6897 59.7679 92.9218 59.0171 94.0071 58.2583C94.7905 57.7156 96.3817 56.5039 96.194 55.3574C96.0022 54.2639 94.1254 53.3459 93.2074 53.0399Z" fill="#263238"/>
<path d="M85.9084 89.3519L83.7705 83.6929L84.2601 83.7337C84.6562 83.7669 85.0535 83.6853 85.4044 83.4986C85.7554 83.3119 86.0451 83.0281 86.2389 82.6811C87.8709 79.7761 92.0855 72.4035 93.2728 72.0363C94.966 71.5345 96.7082 72.8891 97.3528 74.8923C97.8383 76.3652 92.8648 82.6811 90.5719 86.2715C88.5359 89.4498 85.9084 89.3519 85.9084 89.3519Z" fill="#263238"/>
<path d="M65.0554 128.087V128.132C65.0855 128.211 65.1349 128.28 65.1991 128.335C65.2633 128.389 65.3402 128.426 65.4226 128.442C65.4721 128.458 65.5247 128.461 65.5755 128.45C65.6262 128.439 65.6733 128.415 65.7123 128.381C66.055 128.067 65.8347 126.749 65.8143 126.619C65.812 126.602 65.8045 126.586 65.7928 126.573C65.7811 126.561 65.7658 126.553 65.749 126.549C65.7331 126.547 65.717 126.549 65.7021 126.555C65.6872 126.561 65.6739 126.57 65.6633 126.582C65.3859 126.974 64.9452 127.671 65.0554 128.087ZM65.6837 126.863C65.7572 127.386 65.7898 128.087 65.598 128.259C65.5781 128.27 65.5556 128.276 65.5328 128.276C65.5099 128.276 65.4875 128.27 65.4675 128.259C65.4127 128.249 65.3614 128.224 65.3185 128.189C65.2756 128.153 65.2427 128.107 65.2227 128.055C65.1492 127.835 65.3043 127.386 65.6837 126.855V126.863Z" fill="#AFA11E"/>
<path d="M65.6881 126.79C65.7941 127.231 66.2103 127.981 66.5775 128.071C66.6444 128.085 66.7139 128.075 66.7747 128.044C66.8355 128.013 66.8839 127.962 66.9121 127.9C66.944 127.842 66.9628 127.777 66.967 127.711C66.9712 127.645 66.9608 127.578 66.9365 127.516C66.7693 127.01 65.8064 126.594 65.7656 126.574C65.7524 126.567 65.7377 126.563 65.7227 126.563C65.7078 126.563 65.693 126.567 65.6799 126.574C65.6679 126.584 65.6586 126.596 65.6529 126.61C65.6472 126.625 65.6452 126.64 65.6473 126.655C65.6573 126.701 65.6709 126.746 65.6881 126.79ZM66.7978 127.606C66.8061 127.642 66.8072 127.679 66.8009 127.716C66.7946 127.752 66.781 127.787 66.7611 127.818C66.7081 127.916 66.655 127.916 66.6142 127.908C66.3653 127.859 65.9859 127.243 65.8635 126.815C66.1777 126.974 66.6795 127.272 66.7856 127.582C66.7828 127.59 66.7828 127.598 66.7856 127.606H66.7978Z" fill="#AFA11E"/>
<path d="M94.811 94.9007L94.4315 96.2267C94.3826 96.3287 94.5009 96.4347 94.6723 96.4307H108.748C108.883 96.4307 108.993 96.3613 109.001 96.2797L109.132 94.9537C109.132 94.8639 109.026 94.7823 108.879 94.7864H95.0476C95.0016 94.7829 94.9555 94.7915 94.9139 94.8116C94.8723 94.8317 94.8368 94.8624 94.811 94.9007Z" fill="#AFA11E"/>
<path opacity="0.5" d="M94.811 94.9007L94.4315 96.2267C94.3826 96.3287 94.5009 96.4347 94.6723 96.4307H108.748C108.883 96.4307 108.993 96.3613 109.001 96.2797L109.132 94.9537C109.132 94.8639 109.026 94.7823 108.879 94.7864H95.0476C95.0016 94.7829 94.9555 94.7915 94.9139 94.8116C94.8723 94.8317 94.8368 94.8624 94.811 94.9007Z" fill="white"/>
<path d="M97.5121 96.5531H97.1041C97.0266 96.5531 96.9613 96.5123 96.9694 96.4633L97.153 94.7375C97.153 94.6885 97.2306 94.6477 97.3122 94.6477H97.7202C97.7977 94.6477 97.8589 94.6885 97.8548 94.7415L97.6712 96.4633C97.6467 96.5123 97.5733 96.5571 97.5121 96.5531Z" fill="#AFA11E"/>
<path d="M107.659 96.5531H107.251C107.177 96.5531 107.112 96.5123 107.12 96.4633L107.304 94.7415C107.304 94.6885 107.377 94.6477 107.455 94.6477H107.863C107.94 94.6477 108.006 94.6885 107.998 94.7375L107.814 96.4592C107.806 96.5123 107.74 96.5531 107.659 96.5531Z" fill="#AFA11E"/>
<path d="M103.004 96.545H102.596C102.518 96.545 102.453 96.5042 102.461 96.4552L102.645 94.7335C102.645 94.6804 102.722 94.6396 102.8 94.6396H103.208C103.285 94.6396 103.346 94.6804 103.342 94.7294L103.155 96.4512C103.155 96.5042 103.085 96.545 103.004 96.545Z" fill="#AFA11E"/>
<path d="M99.0908 64.6802C99.5233 66.9038 99.9476 70.9185 98.438 72.1262C98.438 72.1262 99.0418 74.4069 103.077 75.0148C107.532 75.6839 105.194 73.1462 105.194 73.1462C102.767 72.1874 102.828 70.433 103.244 68.8173L99.0908 64.6802Z" fill="#FFB573"/>
<path d="M98.4542 72.1057C100.607 72.2422 102.747 72.5395 104.856 72.9951L107.908 73.905C108.45 74.9984 107.561 77.2465 105.007 77.6749C105.007 77.6749 98.5725 78.5602 96.6753 71.9343L98.4542 72.1057Z" fill="#FFB573"/>
<path opacity="0.2" d="M100.776 66.3733L103.224 68.8213C103.121 69.2003 103.054 69.5883 103.024 69.98C102.094 69.7067 100.601 68.6826 100.499 67.7034C100.5 67.2458 100.594 66.7932 100.776 66.3733Z" fill="black"/>
<path d="M96.3654 61.8732C97.4588 65.3249 97.8423 66.81 100.082 68.1687C103.42 70.2087 107.426 68.1197 107.385 64.4151C107.353 61.0776 105.578 55.9939 101.788 55.4391C100.955 55.3142 100.103 55.4046 99.3149 55.7017C98.5266 55.9988 97.8274 56.4927 97.2839 57.1364C96.7404 57.7801 96.3707 58.5522 96.2099 59.3792C96.0491 60.2062 96.1026 61.0605 96.3654 61.861V61.8732Z" fill="#FFB573"/>
<path d="M104.603 61.3345C104.989 61.9403 105.457 62.4896 105.994 62.9665C105.869 63.1025 105.715 63.2095 105.544 63.2799C105.372 63.3504 105.188 63.3827 105.003 63.3745L104.603 61.3345Z" fill="#ED893E"/>
<path d="M104.215 65.2187C104.353 65.2035 104.49 65.1762 104.623 65.1371C104.634 65.1347 104.643 65.1303 104.652 65.1241C104.661 65.1178 104.668 65.1099 104.674 65.1009C104.68 65.0918 104.684 65.0816 104.685 65.0711C104.687 65.0605 104.687 65.0497 104.684 65.0392C104.679 65.0178 104.665 64.9994 104.646 64.988C104.627 64.9766 104.604 64.973 104.582 64.978C104.234 65.074 103.868 65.0871 103.514 65.0163C103.16 64.9454 102.827 64.7926 102.542 64.57C102.526 64.5533 102.503 64.5439 102.479 64.5439C102.455 64.5439 102.433 64.5533 102.416 64.57C102.408 64.578 102.401 64.5875 102.397 64.598C102.392 64.6085 102.39 64.6198 102.39 64.6312C102.39 64.6426 102.392 64.6539 102.397 64.6644C102.401 64.6749 102.408 64.6844 102.416 64.6924C102.666 64.894 102.954 65.0443 103.263 65.1346C103.572 65.2249 103.895 65.2535 104.215 65.2187Z" fill="#263238"/>
<path d="M95.178 54.9821C94.7283 55.2729 94.3551 55.6674 94.0895 56.1324C93.824 56.5975 93.674 57.1194 93.6521 57.6545C93.6335 57.8591 93.6658 58.0651 93.7459 58.2543C93.7861 58.3478 93.8503 58.4292 93.9319 58.4901C94.0136 58.551 94.1099 58.5892 94.211 58.6011C94.5211 58.6011 94.7496 58.3236 94.9209 58.0625L95.7125 56.8385C96.0384 56.4409 96.3126 56.0035 96.5285 55.537C96.7937 54.7332 95.6635 54.672 95.178 54.9821Z" fill="#AFA11E"/>
<path d="M95.5656 55.7939C93.3992 58.299 92.4281 65.2309 98.7766 67.1648C99.8374 66.3244 98.1238 64.7944 97.3976 62.8604C96.9202 61.5956 99.3396 59.2333 100.282 58.2623C101.225 57.2912 102.094 55.8918 103.424 56.1162C103.761 56.2291 104.125 56.239 104.468 56.1448C105.525 55.6674 105.011 55.035 104.468 54.5944C103.636 53.9784 102.645 53.6132 101.612 53.5417C100.498 53.4105 99.3684 53.5463 98.317 53.9379C97.2656 54.3295 96.3225 54.9657 95.5656 55.7939Z" fill="#263238"/>
<path d="M102.612 54.9535C105.162 57.0792 101.796 57.1322 100.013 58.4786C98.3034 59.772 99.5029 61.8895 96.6102 62.8728C94.2479 63.5623 93.7011 63.1461 93.0483 62.6892C93.8573 62.5492 94.5973 62.1455 95.153 61.5411C95.7087 60.9368 96.0489 60.1655 96.1206 59.3477C96.3205 57.7973 99.6987 52.4892 102.612 54.9535Z" fill="#263238"/>
<path d="M95.982 64.774C96.3815 65.3495 96.991 65.7451 97.6792 65.8756C98.5932 66.0347 98.944 65.1983 98.6299 64.3823C98.332 63.6479 97.5038 62.681 96.6184 62.8891C96.314 62.9678 96.0533 63.1641 95.8934 63.4349C95.7335 63.7057 95.6876 64.0288 95.7657 64.3334C95.8073 64.4933 95.8809 64.6432 95.982 64.774Z" fill="#FFB573"/>
<path d="M102.175 55.1696C102.669 56.4263 104.093 56.259 105.146 57.5727C105.794 58.3887 107.067 55.8714 105.333 54.8799C103.599 53.8885 101.4 53.2031 102.175 55.1696Z" fill="#263238"/>
<path d="M100.674 60.4737C100.71 60.4776 100.747 60.4698 100.778 60.4515C100.81 60.4331 100.835 60.4052 100.849 60.3717C101.184 59.6292 102.188 59.4415 102.196 59.4415C102.241 59.4317 102.28 59.405 102.306 59.3671C102.332 59.3292 102.342 59.2828 102.335 59.2375C102.326 59.1932 102.3 59.1543 102.262 59.1291C102.225 59.1039 102.179 59.0944 102.135 59.1029C102.082 59.1029 100.939 59.3436 100.531 60.2412C100.513 60.2829 100.512 60.3301 100.528 60.3727C100.544 60.4154 100.576 60.4501 100.617 60.4697H100.674V60.4737Z" fill="#263238"/>
<path d="M105.978 58.9722C106.008 58.9744 106.037 58.9683 106.064 58.9546C106.091 58.9409 106.113 58.9202 106.129 58.8947C106.142 58.8763 106.151 58.8555 106.156 58.8336C106.16 58.8116 106.161 58.7889 106.156 58.7668C106.152 58.7447 106.144 58.7237 106.131 58.705C106.119 58.6863 106.103 58.6704 106.084 58.658C105.858 58.5015 105.597 58.4016 105.325 58.3668C105.052 58.332 104.775 58.3633 104.517 58.4581C104.496 58.4665 104.476 58.4792 104.46 58.4955C104.443 58.5118 104.431 58.5313 104.422 58.5528C104.414 58.5742 104.41 58.5972 104.411 58.6202C104.412 58.6432 104.417 58.6658 104.427 58.6866C104.445 58.7282 104.479 58.761 104.521 58.7778C104.563 58.7946 104.61 58.7941 104.652 58.7764C104.855 58.7054 105.072 58.684 105.284 58.7138C105.497 58.7436 105.7 58.8238 105.876 58.9477C105.907 58.9631 105.942 58.9715 105.978 58.9722Z" fill="#263238"/>
<path d="M122.751 81.3062L120.36 82.6648L117.875 88.0096C117.875 88.0096 120.274 89.5355 122.167 88.2993C124.06 87.063 122.751 81.3062 122.751 81.3062Z" fill="#AFA11E"/>
<path opacity="0.5" d="M122.751 81.3062L120.36 82.6648L117.875 88.0096C117.875 88.0096 120.274 89.5355 122.167 88.2993C124.06 87.063 122.751 81.3062 122.751 81.3062Z" fill="white"/>
<path d="M80.9432 82.9585L83.7706 83.7745L86.4512 89.3192C86.4512 89.3192 84.297 91.3143 81.9632 89.409C80.217 87.9647 80.9432 82.9585 80.9432 82.9585Z" fill="#AFA11E"/>
<g opacity="0.5">
<path d="M80.9432 82.9585L83.7706 83.7745L86.4512 89.3192C86.4512 89.3192 84.297 91.3143 81.9632 89.409C80.217 87.9647 80.9432 82.9585 80.9432 82.9585Z" fill="white"/>
</g>
<path d="M105.815 60.3553C106.01 60.3186 106.223 60.5389 106.267 60.8408C106.312 61.1428 106.202 61.4202 106.006 61.4528C105.81 61.4855 105.598 61.2692 105.553 60.9673C105.509 60.6654 105.619 60.3839 105.815 60.3553Z" fill="#263238"/>
<path d="M106.419 60.0576L105.729 60.3963C106.145 60.69 106.419 60.0576 106.419 60.0576Z" fill="#263238"/>
<path d="M102.408 61.0572C102.604 61.0205 102.816 61.2408 102.861 61.5427C102.906 61.8447 102.795 62.1221 102.6 62.1547C102.404 62.1874 102.192 61.9711 102.147 61.6692C102.102 61.3673 102.204 61.0939 102.408 61.0572Z" fill="#263238"/>
<path d="M103.003 60.7593L102.314 61.0979C102.73 61.3917 103.003 60.7593 103.003 60.7593Z" fill="#263238"/>
<path d="M85.1334 76.6672C84.7492 76.6694 84.3682 76.5974 84.0114 76.4551C82.7466 75.9369 82.1591 74.6231 82.3794 72.8443C82.3865 72.7907 82.4145 72.7422 82.4574 72.7093C82.5002 72.6764 82.5543 72.6619 82.6079 72.6688C82.6346 72.6718 82.6604 72.6802 82.6839 72.6934C82.7073 72.7066 82.7278 72.7244 82.7442 72.7457C82.7606 72.7671 82.7725 72.7915 82.7792 72.8175C82.7859 72.8436 82.7873 72.8707 82.7833 72.8973C82.5711 74.4763 83.0689 75.635 84.1501 76.0756C84.7776 76.2904 85.457 76.3011 86.091 76.1062C86.7249 75.9112 87.2809 75.5206 87.6793 74.9903C88.7034 73.6276 88.3688 71.6937 86.7735 69.6863C82.5956 64.4435 82.8731 61.6569 83.4647 59.4537C84.3215 56.255 86.8307 52.5911 93.9299 53.297C93.984 53.3024 94.0337 53.3291 94.0681 53.3712C94.1026 53.4132 94.1189 53.4673 94.1135 53.5214C94.1081 53.5755 94.0814 53.6252 94.0393 53.6597C93.9972 53.6941 93.9432 53.7104 93.8891 53.705C87.0795 53.0277 84.6723 56.5202 83.8563 59.5639C83.2688 61.7671 83.0403 64.3415 87.0918 69.4375C89.5398 72.5097 88.5483 74.5211 88.0057 75.2392C87.6662 75.6791 87.2313 76.0361 86.7337 76.2834C86.2362 76.5308 85.689 76.662 85.1334 76.6672Z" fill="#263238"/>
</g>
<defs>
<clipPath id="clip0_1_21128">
<rect width="204" height="204" fill="white"/>
</clipPath>
</defs>
</svg>
