<svg width="24" height="24" viewBox="0 0 24 24" fill="none" xmlns="http://www.w3.org/2000/svg">
<g clip-path="url(#clip0_4333_2173)">
<path d="M18.5625 16.6875V11.8125C18.0938 11.9062 17.625 12 17.1562 12H16.6875V17.625H7.3125V11.0625C7.3125 8.4375 9.375 6.375 12 6.375C12.0938 5.15625 12.6562 4.125 13.4062 3.28125C13.125 2.90625 12.5625 2.625 12 2.625C10.9688 2.625 10.125 3.46875 10.125 4.5V4.78125C7.3125 5.625 5.4375 8.15625 5.4375 11.0625V16.6875L3.5625 18.5625V19.5H20.4375V18.5625L18.5625 16.6875ZM10.125 20.4375C10.125 21.4688 10.9688 22.3125 12 22.3125C13.0312 22.3125 13.875 21.4688 13.875 20.4375H10.125ZM20.4375 6.84375C20.4375 8.625 18.9375 10.125 17.1562 10.125C15.375 10.125 13.875 8.625 13.875 6.84375C13.875 5.0625 15.375 3.5625 17.1562 3.5625C18.9375 3.5625 20.4375 5.0625 20.4375 6.84375Z" fill="white"/>
<circle cx="17" cy="7" r="4" fill="#AFA11E"/>
</g>
<defs>
<clipPath id="clip0_4333_2173">
<rect width="24" height="24" fill="white"/>
</clipPath>
</defs>
</svg>
