<svg width="240" height="170" viewBox="0 0 240 170" fill="none" xmlns="http://www.w3.org/2000/svg">
<path d="M18.1836 48.5555H35.765V69.9041H40.287V57.8171H62.642V76.9557H65.6V32.0451H85.0276V44.3735H94.9862V59.7075H98.002V50.0651H115.662V78.8495H120.83V55.4473H136.983V37.6755H147.965V27.5503H160.671V72.4473H164.941V53.7133H185.868V80.5291H188.765V58.6399H209.988V38.9199H220.817V114.679H18.1836V48.5555Z" fill="#EBEBEB"/>
<path d="M23.3139 51.2417H20.3389V55.3217H23.3139V51.2417Z" fill="white"/>
<path d="M28.4721 51.2417H25.4971V55.3217H28.4721V51.2417Z" fill="white"/>
<path d="M33.6264 51.2417H30.6514V55.3217H33.6264V51.2417Z" fill="white"/>
<path d="M23.3139 57.3818H20.3389V61.4618H23.3139V57.3818Z" fill="white"/>
<path d="M28.4721 57.3818H25.4971V61.4618H28.4721V57.3818Z" fill="white"/>
<path d="M33.6264 57.3818H30.6514V61.4618H33.6264V57.3818Z" fill="white"/>
<path d="M23.3139 63.5225H20.3389V67.6025H23.3139V63.5225Z" fill="white"/>
<path d="M28.4721 63.5225H25.4971V67.6025H28.4721V63.5225Z" fill="white"/>
<path d="M33.6264 63.5225H30.6514V67.6025H33.6264V63.5225Z" fill="white"/>
<path d="M23.3139 69.6626H20.3389V73.7426H23.3139V69.6626Z" fill="white"/>
<path d="M28.4721 69.6626H25.4971V73.7426H28.4721V69.6626Z" fill="white"/>
<path d="M33.6264 69.6626H30.6514V73.7426H33.6264V69.6626Z" fill="white"/>
<path d="M126.287 58.3647H123.312V61.7681H126.287V58.3647Z" fill="white"/>
<path d="M131.441 58.3647H128.466V61.7681H131.441V58.3647Z" fill="white"/>
<path d="M136.596 58.3647H133.621V61.7681H136.596V58.3647Z" fill="white"/>
<path d="M126.287 63.4883H123.312V66.8917H126.287V63.4883Z" fill="white"/>
<path d="M131.441 63.4883H128.466V66.8917H131.441V63.4883Z" fill="white"/>
<path d="M136.596 63.4883H133.621V66.8917H136.596V63.4883Z" fill="white"/>
<path d="M126.287 68.6123H123.312V72.0157H126.287V68.6123Z" fill="white"/>
<path d="M131.441 68.6123H128.466V72.0157H131.441V68.6123Z" fill="white"/>
<path d="M136.596 68.6123H133.621V72.0157H136.596V68.6123Z" fill="white"/>
<path d="M126.287 73.7324H123.312V77.1358H126.287V73.7324Z" fill="white"/>
<path d="M131.441 73.7324H128.466V77.1358H131.441V73.7324Z" fill="white"/>
<path d="M136.596 73.7324H133.621V77.1358H136.596V73.7324Z" fill="white"/>
<path d="M126.287 78.9858H123.312V82.3892H126.287V78.9858Z" fill="white"/>
<path d="M131.441 78.9858H128.466V82.3892H131.441V78.9858Z" fill="white"/>
<path d="M136.596 78.9858H133.621V82.3892H136.596V78.9858Z" fill="white"/>
<path d="M126.287 84.2354H123.312V87.6388H126.287V84.2354Z" fill="white"/>
<path d="M131.441 84.2354H128.466V87.6388H131.441V84.2354Z" fill="white"/>
<path d="M136.596 84.2354H133.621V87.6388H136.596V84.2354Z" fill="white"/>
<path d="M126.287 89.4849H123.312V92.8883H126.287V89.4849Z" fill="white"/>
<path d="M131.441 89.4849H128.466V92.8883H131.441V89.4849Z" fill="white"/>
<path d="M136.596 89.4849H133.621V92.8883H136.596V89.4849Z" fill="white"/>
<path d="M126.287 94.7344H123.312V98.1378H126.287V94.7344Z" fill="white"/>
<path d="M131.441 94.7344H128.466V98.1378H131.441V94.7344Z" fill="white"/>
<path d="M136.596 94.7344H133.621V98.1378H136.596V94.7344Z" fill="white"/>
<path d="M59.9496 60.4351H42.8271V62.9885H59.9496V60.4351Z" fill="white"/>
<path d="M59.9496 65.3892H42.8271V67.9426H59.9496V65.3892Z" fill="white"/>
<path d="M59.9496 70.3428H42.8271V72.8962H59.9496V70.3428Z" fill="white"/>
<path d="M59.9496 75.293H42.8271V77.8464H59.9496V75.293Z" fill="white"/>
<path d="M59.9496 80.2471H42.8271V82.8005H59.9496V80.2471Z" fill="white"/>
<path d="M59.9496 85.2007H42.8271V87.7541H59.9496V85.2007Z" fill="white"/>
<path d="M59.9496 90.1548H42.8271V92.7082H59.9496V90.1548Z" fill="white"/>
<path d="M59.9496 95.105H42.8271V97.6584H59.9496V95.105Z" fill="white"/>
<path d="M183.213 56.0933H167.471V58.6467H183.213V56.0933Z" fill="white"/>
<path d="M183.213 61.0474H167.471V63.6008H183.213V61.0474Z" fill="white"/>
<path d="M183.213 65.9976H167.471V68.551H183.213V65.9976Z" fill="white"/>
<path d="M183.213 70.9512H167.471V73.5046H183.213V70.9512Z" fill="white"/>
<path d="M183.213 75.9053H167.471V78.4587H183.213V75.9053Z" fill="white"/>
<path d="M183.213 80.8555H167.471V83.4089H183.213V80.8555Z" fill="white"/>
<path d="M183.213 85.8096H167.471V88.363H183.213V85.8096Z" fill="white"/>
<path d="M183.213 90.7632H167.471V93.3166H183.213V90.7632Z" fill="white"/>
<path d="M183.213 95.4688H167.471V98.0221H183.213V95.4688Z" fill="white"/>
<path d="M183.213 100.174H167.471V102.728H183.213V100.174Z" fill="white"/>
<path d="M183.213 104.88H167.471V107.433H183.213V104.88Z" fill="white"/>
<path d="M183.213 109.589H167.471V112.142H183.213V109.589Z" fill="white"/>
<path d="M208.668 62.0742H192.039V64.6276H208.668V62.0742Z" fill="white"/>
<path d="M208.668 67.0278H192.039V69.5812H208.668V67.0278Z" fill="white"/>
<path d="M208.668 71.9814H192.039V74.5348H208.668V71.9814Z" fill="white"/>
<path d="M208.668 76.9355H192.039V79.4889H208.668V76.9355Z" fill="white"/>
<path d="M208.668 81.8857H192.039V84.4391H208.668V81.8857Z" fill="white"/>
<path d="M208.668 86.8398H192.039V89.3932H208.668V86.8398Z" fill="white"/>
<path d="M208.668 91.7935H192.039V94.3469H208.668V91.7935Z" fill="white"/>
<path d="M208.668 96.7437H192.039V99.297H208.668V96.7437Z" fill="white"/>
<path d="M208.668 101.177H192.039V103.731H208.668V101.177Z" fill="white"/>
<path d="M208.668 105.611H192.039V108.164H208.668V105.611Z" fill="white"/>
<path d="M208.668 110.044H192.039V112.598H208.668V110.044Z" fill="white"/>
<path d="M108.457 52.374H103.17V54.839H108.457V52.374Z" fill="white"/>
<path d="M108.457 57.1577H103.17V59.6227H108.457V57.1577Z" fill="white"/>
<path d="M108.457 61.9414H103.17V64.4064H108.457V61.9414Z" fill="white"/>
<path d="M108.457 66.7251H103.17V69.1901H108.457V66.7251Z" fill="white"/>
<path d="M108.457 71.5059H103.17V73.9709H108.457V71.5059Z" fill="white"/>
<path d="M108.457 76.2896H103.17V78.7546H108.457V76.2896Z" fill="white"/>
<path d="M108.457 81.0732H103.17V83.5382H108.457V81.0732Z" fill="white"/>
<path d="M108.457 85.8569H103.17V88.3219H108.457V85.8569Z" fill="white"/>
<path d="M115.651 52.374H110.364V54.839H115.651V52.374Z" fill="white"/>
<path d="M115.651 57.1577H110.364V59.6227H115.651V57.1577Z" fill="white"/>
<path d="M115.651 61.9414H110.364V64.4064H115.651V61.9414Z" fill="white"/>
<path d="M115.651 66.7251H110.364V69.1901H115.651V66.7251Z" fill="white"/>
<path d="M115.651 71.5059H110.364V73.9709H115.651V71.5059Z" fill="white"/>
<path d="M115.651 76.2896H110.364V78.7546H115.651V76.2896Z" fill="white"/>
<path d="M115.651 81.0732H110.364V83.5382H115.651V81.0732Z" fill="white"/>
<path d="M115.651 85.8569H110.364V88.3219H115.651V85.8569Z" fill="white"/>
<path d="M74.0559 34.6294H68.5479V38.5156H74.0559V34.6294Z" fill="white"/>
<path d="M82.2668 34.6294H76.7588V38.5156H82.2668V34.6294Z" fill="white"/>
<path d="M74.0559 40.3413H68.5479V44.2275H74.0559V40.3413Z" fill="white"/>
<path d="M82.2668 40.3413H76.7588V44.2275H82.2668V40.3413Z" fill="white"/>
<path d="M74.0559 46.0498H68.5479V49.936H74.0559V46.0498Z" fill="white"/>
<path d="M82.2668 46.0498H76.7588V49.936H82.2668V46.0498Z" fill="white"/>
<path d="M74.0559 51.7617H68.5479V55.6479H74.0559V51.7617Z" fill="white"/>
<path d="M82.2668 51.7617H76.7588V55.6479H82.2668V51.7617Z" fill="white"/>
<path d="M74.0559 57.4736H68.5479V61.3598H74.0559V57.4736Z" fill="white"/>
<path d="M82.2668 57.4736H76.7588V61.3598H82.2668V57.4736Z" fill="white"/>
<path d="M74.0559 63.1826H68.5479V67.0688H74.0559V63.1826Z" fill="white"/>
<path d="M82.2668 63.1826H76.7588V67.0688H82.2668V63.1826Z" fill="white"/>
<path d="M74.0559 68.8945H68.5479V72.7807H74.0559V68.8945Z" fill="white"/>
<path d="M82.2668 68.8945H76.7588V72.7807H82.2668V68.8945Z" fill="white"/>
<path d="M74.0559 74.603H68.5479V78.4892H74.0559V74.603Z" fill="white"/>
<path d="M82.2668 74.603H76.7588V78.4892H82.2668V74.603Z" fill="white"/>
<path d="M92.4465 46.0498H86.9385V49.936H92.4465V46.0498Z" fill="white"/>
<path d="M92.4465 51.7617H86.9385V55.6479H92.4465V51.7617Z" fill="white"/>
<path d="M92.4465 57.4736H86.9385V61.3598H92.4465V57.4736Z" fill="white"/>
<path d="M92.4465 63.1826H86.9385V67.0688H92.4465V63.1826Z" fill="white"/>
<path d="M92.4465 68.8945H86.9385V72.7807H92.4465V68.8945Z" fill="white"/>
<path d="M92.4465 74.603H86.9385V78.4892H92.4465V74.603Z" fill="white"/>
<path d="M74.0559 80.2471H68.5479V84.1333H74.0559V80.2471Z" fill="white"/>
<path d="M82.2668 80.2471H76.7588V84.1333H82.2668V80.2471Z" fill="white"/>
<path d="M92.4465 80.2471H86.9385V84.1333H92.4465V80.2471Z" fill="white"/>
<path d="M74.0559 85.8911H68.5479V89.7773H74.0559V85.8911Z" fill="white"/>
<path d="M82.2668 85.8911H76.7588V89.7773H82.2668V85.8911Z" fill="white"/>
<path d="M92.4465 85.8911H86.9385V89.7773H92.4465V85.8911Z" fill="white"/>
<path d="M74.0559 91.5317H68.5479V95.4179H74.0559V91.5317Z" fill="white"/>
<path d="M82.2668 91.5317H76.7588V95.4179H82.2668V91.5317Z" fill="white"/>
<path d="M92.4465 91.5317H86.9385V95.4179H92.4465V91.5317Z" fill="white"/>
<path d="M74.0559 97.1758H68.5479V101.062H74.0559V97.1758Z" fill="white"/>
<path d="M82.2668 97.1758H76.7588V101.062H82.2668V97.1758Z" fill="white"/>
<path d="M92.4465 97.1758H86.9385V101.062H92.4465V97.1758Z" fill="white"/>
<path d="M74.0559 102.816H68.5479V106.703H74.0559V102.816Z" fill="white"/>
<path d="M82.2668 102.816H76.7588V106.703H82.2668V102.816Z" fill="white"/>
<path d="M92.4465 102.816H86.9385V106.703H92.4465V102.816Z" fill="white"/>
<path d="M142.202 40.1782H139.227V43.5816H142.202V40.1782Z" fill="white"/>
<path d="M147.357 40.1782H144.382V43.5816H147.357V40.1782Z" fill="white"/>
<path d="M142.202 45.3018H139.227V48.7052H142.202V45.3018Z" fill="white"/>
<path d="M147.357 45.3018H144.382V48.7052H147.357V45.3018Z" fill="white"/>
<path d="M142.202 50.4258H139.227V53.8292H142.202V50.4258Z" fill="white"/>
<path d="M147.357 50.4258H144.382V53.8292H147.357V50.4258Z" fill="white"/>
<path d="M142.202 55.5493H139.227V58.9527H142.202V55.5493Z" fill="white"/>
<path d="M147.357 55.5493H144.382V58.9527H147.357V55.5493Z" fill="white"/>
<path d="M142.202 60.7988H139.227V64.2022H142.202V60.7988Z" fill="white"/>
<path d="M147.357 60.7988H144.382V64.2022H147.357V60.7988Z" fill="white"/>
<path d="M142.202 66.0488H139.227V69.4522H142.202V66.0488Z" fill="white"/>
<path d="M147.357 66.0488H144.382V69.4522H147.357V66.0488Z" fill="white"/>
<path d="M142.202 71.2983H139.227V74.7017H142.202V71.2983Z" fill="white"/>
<path d="M147.357 71.2983H144.382V74.7017H147.357V71.2983Z" fill="white"/>
<path d="M142.202 76.5479H139.227V79.9513H142.202V76.5479Z" fill="white"/>
<path d="M147.357 76.5479H144.382V79.9513H147.357V76.5479Z" fill="white"/>
<path d="M142.202 81.855H139.227V85.2584H142.202V81.855Z" fill="white"/>
<path d="M147.357 81.855H144.382V85.2584H147.357V81.855Z" fill="white"/>
<path d="M142.202 87.1626H139.227V90.566H142.202V87.1626Z" fill="white"/>
<path d="M147.357 87.1626H144.382V90.566H147.357V87.1626Z" fill="white"/>
<path d="M142.202 92.4668H139.227V95.8702H142.202V92.4668Z" fill="white"/>
<path d="M147.357 92.4668H144.382V95.8702H147.357V92.4668Z" fill="white"/>
<path d="M142.202 97.7739H139.227V101.177H142.202V97.7739Z" fill="white"/>
<path d="M147.357 97.7739H144.382V101.177H147.357V97.7739Z" fill="white"/>
<path d="M214.826 40.7324H211.851V44.7444H214.826V40.7324Z" fill="white"/>
<path d="M219.981 40.7324H217.006V44.7444H219.981V40.7324Z" fill="white"/>
<path d="M214.826 46.7671H211.851V50.7791H214.826V46.7671Z" fill="white"/>
<path d="M219.981 46.7671H217.006V50.7791H219.981V46.7671Z" fill="white"/>
<path d="M214.826 52.8057H211.851V56.8177H214.826V52.8057Z" fill="white"/>
<path d="M219.981 52.8057H217.006V56.8177H219.981V52.8057Z" fill="white"/>
<path d="M214.826 58.8408H211.851V62.8528H214.826V58.8408Z" fill="white"/>
<path d="M219.981 58.8408H217.006V62.8528H219.981V58.8408Z" fill="white"/>
<path d="M214.826 65.0254H211.851V69.0374H214.826V65.0254Z" fill="white"/>
<path d="M219.981 65.0254H217.006V69.0374H219.981V65.0254Z" fill="white"/>
<path d="M214.826 71.21H211.851V75.222H214.826V71.21Z" fill="white"/>
<path d="M219.981 71.21H217.006V75.222H219.981V71.21Z" fill="white"/>
<path d="M214.826 77.3945H211.851V81.4065H214.826V77.3945Z" fill="white"/>
<path d="M219.981 77.3945H217.006V81.4065H219.981V77.3945Z" fill="white"/>
<path d="M214.826 83.5825H211.851V87.5945H214.826V83.5825Z" fill="white"/>
<path d="M219.981 83.5825H217.006V87.5945H219.981V83.5825Z" fill="white"/>
<path d="M214.826 89.8315H211.851V93.8435H214.826V89.8315Z" fill="white"/>
<path d="M219.981 89.8315H217.006V93.8435H219.981V89.8315Z" fill="white"/>
<path d="M214.826 96.0845H211.851V100.096H214.826V96.0845Z" fill="white"/>
<path d="M219.981 96.0845H217.006V100.096H219.981V96.0845Z" fill="white"/>
<path d="M214.826 102.333H211.851V106.345H214.826V102.333Z" fill="white"/>
<path d="M219.981 102.333H217.006V106.345H219.981V102.333Z" fill="white"/>
<path d="M214.826 108.586H211.851V112.598H214.826V108.586Z" fill="white"/>
<path d="M219.981 108.586H217.006V112.598H219.981V108.586Z" fill="white"/>
<path d="M153.225 40.1782H150.25V43.5816H153.225V40.1782Z" fill="white"/>
<path d="M158.379 40.1782H155.404V43.5816H158.379V40.1782Z" fill="white"/>
<path d="M153.225 34.9248H150.25V38.3282H153.225V34.9248Z" fill="white"/>
<path d="M158.379 34.9248H155.404V38.3282H158.379V34.9248Z" fill="white"/>
<path d="M153.225 29.6719H150.25V33.0753H153.225V29.6719Z" fill="white"/>
<path d="M158.379 29.6719H155.404V33.0753H158.379V29.6719Z" fill="white"/>
<path d="M153.225 45.3018H150.25V48.7052H153.225V45.3018Z" fill="white"/>
<path d="M158.379 45.3018H155.404V48.7052H158.379V45.3018Z" fill="white"/>
<path d="M153.225 50.4258H150.25V53.8292H153.225V50.4258Z" fill="white"/>
<path d="M158.379 50.4258H155.404V53.8292H158.379V50.4258Z" fill="white"/>
<path d="M153.225 55.5493H150.25V58.9527H153.225V55.5493Z" fill="white"/>
<path d="M158.379 55.5493H155.404V58.9527H158.379V55.5493Z" fill="white"/>
<path d="M153.225 60.7988H150.25V64.2022H153.225V60.7988Z" fill="white"/>
<path d="M158.379 60.7988H155.404V64.2022H158.379V60.7988Z" fill="white"/>
<path d="M153.225 66.0488H150.25V69.4522H153.225V66.0488Z" fill="white"/>
<path d="M158.379 66.0488H155.404V69.4522H158.379V66.0488Z" fill="white"/>
<path d="M153.225 71.2983H150.25V74.7017H153.225V71.2983Z" fill="white"/>
<path d="M158.379 71.2983H155.404V74.7017H158.379V71.2983Z" fill="white"/>
<path d="M153.225 76.5479H150.25V79.9513H153.225V76.5479Z" fill="white"/>
<path d="M158.379 76.5479H155.404V79.9513H158.379V76.5479Z" fill="white"/>
<path d="M153.225 81.855H150.25V85.2584H153.225V81.855Z" fill="white"/>
<path d="M158.379 81.855H155.404V85.2584H158.379V81.855Z" fill="white"/>
<path d="M153.225 87.1626H150.25V90.566H153.225V87.1626Z" fill="white"/>
<path d="M158.379 87.1626H155.404V90.566H158.379V87.1626Z" fill="white"/>
<path d="M153.225 92.4668H150.25V95.8702H153.225V92.4668Z" fill="white"/>
<path d="M158.379 92.4668H155.404V95.8702H158.379V92.4668Z" fill="white"/>
<path d="M153.225 97.7739H150.25V101.177H153.225V97.7739Z" fill="white"/>
<path d="M158.379 97.7739H155.404V101.177H158.379V97.7739Z" fill="white"/>
<path d="M54.4852 44.9721L24.7012 44.9279C24.7012 44.9279 26.1836 43.0001 27.8156 42.7621C27.8156 42.7621 31.0048 33.3135 36.3156 33.2421C41.2592 33.1877 43.2312 39.0663 43.2312 39.0663C43.2312 39.0663 45.5262 36.4347 47.7124 37.6451C49.8986 38.8555 51.1294 42.3065 51.1294 42.3065C51.1294 42.3065 53.5978 43.6461 54.4852 44.9721Z" fill="#EBEBEB"/>
<path d="M181.748 34.0002L219.416 34.058C219.416 34.058 219.416 31.6508 214.231 31.1714C214.231 31.1714 209.509 20.6314 202.273 22.0492C197.768 22.906 195.456 29.0872 195.456 29.0872C195.456 29.0872 192.056 24.215 189.336 25.1534C186.616 26.0918 184.984 31.2734 184.984 31.2734C184.984 31.2734 182.176 32.6402 181.748 34.0002Z" fill="#EBEBEB"/>
<path d="M90.3623 32.6914L115.978 32.7288C115.978 32.7288 113.564 30.4746 112.49 30.4746C111.415 30.4746 108.28 22.9164 104.282 23.2292C100.284 23.542 98.1415 29.1656 98.1415 29.1656C98.1415 29.1656 93.2761 27.6322 90.3623 32.6914Z" fill="#EBEBEB"/>
<path d="M161.916 47.6885L183.818 47.7225C183.818 47.7225 182.73 46.3013 181.53 46.1245C181.53 46.1245 179.208 39.1681 175.298 39.1137C171.663 39.0627 170.198 43.3807 170.198 43.3807C170.198 43.3807 168.518 41.4393 166.91 42.3233C165.302 43.2073 164.381 45.7437 164.381 45.7437C164.381 45.7437 162.572 46.7161 161.916 47.6885Z" fill="#EBEBEB"/>
<path d="M118.14 142.817C169.749 142.817 211.586 139.281 211.586 134.919C211.586 130.557 169.749 127.021 118.14 127.021C66.5314 127.021 24.6943 130.557 24.6943 134.919C24.6943 139.281 66.5314 142.817 118.14 142.817Z" fill="#EBEBEB"/>
<path d="M155.142 154.356C180.727 154.356 201.467 151.581 201.467 148.158C201.467 144.735 180.727 141.96 155.142 141.96C129.558 141.96 108.817 144.735 108.817 148.158C108.817 151.581 129.558 154.356 155.142 154.356Z" fill="#EBEBEB"/>
<path d="M8.15332 116.243L35.9891 116.161L63.8249 116.131L119.5 116.073L175.175 116.131L203.011 116.161L230.847 116.243L203.011 116.328L175.175 116.358L119.5 116.413L63.8249 116.358L35.9891 116.328L8.15332 116.243Z" fill="#263238"/>
<path d="M230.847 112.649H8.15332V116.246H230.847V112.649Z" fill="#C7C7C7"/>
<path d="M19.6114 112.649C19.8381 113.836 19.8381 115.056 19.6114 116.243C19.4892 115.652 19.4322 115.05 19.4414 114.448C19.4337 113.844 19.4907 113.241 19.6114 112.649Z" fill="#263238"/>
<path d="M32.9294 112.649C33.0501 113.241 33.1071 113.844 33.0994 114.448C33.1087 115.05 33.0517 115.652 32.9294 116.243C32.8089 115.652 32.7519 115.05 32.7594 114.448C32.7535 113.844 32.8104 113.241 32.9294 112.649Z" fill="#263238"/>
<path d="M46.2472 112.649C46.4738 113.836 46.4738 115.056 46.2472 116.243C46.0205 115.056 46.0205 113.836 46.2472 112.649Z" fill="#263238"/>
<path d="M59.5684 112.649C59.7905 113.837 59.7905 115.055 59.5684 116.243C59.3418 115.056 59.3418 113.836 59.5684 112.649Z" fill="#263238"/>
<path d="M72.8858 112.649C73.1125 113.836 73.1125 115.056 72.8858 116.243C72.6592 115.056 72.6592 113.836 72.8858 112.649Z" fill="#263238"/>
<path d="M86.2042 112.649C86.3232 113.241 86.3802 113.844 86.3742 114.448C86.3817 115.05 86.3247 115.652 86.2042 116.243C86.082 115.652 86.0249 115.05 86.0342 114.448C86.0282 113.844 86.0851 113.241 86.2042 112.649Z" fill="#263238"/>
<path d="M99.5216 112.649C99.6423 113.241 99.6992 113.844 99.6916 114.448C99.7008 115.05 99.6438 115.652 99.5216 116.243C99.2949 115.056 99.2949 113.836 99.5216 112.649Z" fill="#263238"/>
<path d="M112.839 112.649C113.066 113.836 113.066 115.056 112.839 116.243C112.612 115.056 112.612 113.836 112.839 112.649Z" fill="#263238"/>
<path d="M126.16 112.649C126.387 113.836 126.387 115.056 126.16 116.243C125.934 115.056 125.934 113.836 126.16 112.649Z" fill="#263238"/>
<path d="M139.479 112.649C139.705 113.836 139.705 115.056 139.479 116.243C139.356 115.652 139.299 115.05 139.309 114.448C139.301 113.844 139.358 113.241 139.479 112.649Z" fill="#263238"/>
<path d="M152.796 112.649C152.915 113.241 152.972 113.844 152.966 114.448C152.975 115.05 152.918 115.652 152.796 116.243C152.676 115.652 152.619 115.05 152.626 114.448C152.62 113.844 152.677 113.241 152.796 112.649Z" fill="#263238"/>
<path d="M166.114 112.649C166.341 113.836 166.341 115.056 166.114 116.243C165.887 115.056 165.887 113.836 166.114 112.649Z" fill="#263238"/>
<path d="M179.435 112.649C179.657 113.837 179.657 115.055 179.435 116.243C179.208 115.056 179.208 113.836 179.435 112.649Z" fill="#263238"/>
<path d="M192.753 112.649C192.98 113.836 192.98 115.056 192.753 116.243C192.526 115.056 192.526 113.836 192.753 112.649Z" fill="#263238"/>
<path d="M206.071 112.649C206.19 113.241 206.247 113.844 206.241 114.448C206.248 115.05 206.191 115.652 206.071 116.243C205.949 115.652 205.892 115.05 205.901 114.448C205.893 113.844 205.95 113.241 206.071 112.649Z" fill="#263238"/>
<path d="M219.389 112.649C219.509 113.241 219.566 113.844 219.559 114.448C219.568 115.05 219.511 115.652 219.389 116.243C219.162 115.056 219.162 113.836 219.389 112.649Z" fill="#263238"/>
<path d="M221.776 107.076H220.239L220.63 74.2731L220.664 71.5396H221.351L221.385 74.2731L221.776 107.076Z" fill="#AFA11E"/>
<path d="M221.385 74.2731H220.63L220.664 71.5396H221.351L221.385 74.2731Z" fill="#263238"/>
<path d="M217.175 61.5913L217.777 72.2979L218.484 72.4101L219.127 72.5121V60.9521L217.76 61.4009L217.175 61.5913Z" fill="#AFA11E"/>
<path d="M217.842 62.8423C217.842 62.8423 215.234 62.8661 215.288 63.0123C215.343 63.1585 216.39 63.4509 216.485 63.5189C216.58 63.5869 217.573 65.4875 217.845 65.4875C218.117 65.4875 217.842 62.8423 217.842 62.8423Z" fill="#AFA11E"/>
<path d="M218.032 65.8716C218.032 65.8716 215.428 65.8988 215.479 66.045C215.53 66.1912 216.584 66.4836 216.676 66.5516C216.767 66.6196 217.767 68.5168 218.036 68.5168C218.304 68.5168 218.032 65.8716 218.032 65.8716Z" fill="#AFA11E"/>
<path d="M218.226 68.9043C218.226 68.9043 215.618 68.9315 215.673 69.0777C215.727 69.2239 216.774 69.5163 216.87 69.5809C216.965 69.6455 217.958 71.5495 218.23 71.5495C218.502 71.5495 218.226 68.9043 218.226 68.9043Z" fill="#AFA11E"/>
<path opacity="0.1" d="M217.76 61.4009L218.484 72.4101L219.127 72.5121V60.9521L217.76 61.4009Z" fill="black"/>
<path d="M224.839 61.5913L224.237 72.2979L223.53 72.4101L222.887 72.5121V60.9521L224.254 61.4009L224.839 61.5913Z" fill="#AFA11E"/>
<path d="M224.176 62.8423C224.176 62.8423 226.78 62.8661 226.726 63.0123C226.671 63.1585 225.624 63.4509 225.529 63.5189C225.434 63.5869 224.441 65.4875 224.169 65.4875C223.897 65.4875 224.176 62.8423 224.176 62.8423Z" fill="#AFA11E"/>
<path d="M223.982 65.8716C223.982 65.8716 226.59 65.8988 226.536 66.045C226.481 66.1912 225.431 66.4836 225.339 66.5516C225.247 66.6196 224.247 68.5168 223.979 68.5168C223.71 68.5168 223.982 65.8716 223.982 65.8716Z" fill="#AFA11E"/>
<path d="M223.792 68.9043C223.792 68.9043 226.396 68.9315 226.342 69.0777C226.288 69.2239 225.24 69.5163 225.145 69.5809C225.05 69.6455 224.057 71.5495 223.785 71.5495C223.513 71.5495 223.792 68.9043 223.792 68.9043Z" fill="#AFA11E"/>
<path opacity="0.1" d="M224.254 61.4009L223.53 72.4101L222.887 72.5121V60.9521L224.254 61.4009Z" fill="black"/>
<path d="M223.455 60.0815L223.241 72.7737H218.773L218.559 60.0815H223.455Z" fill="#AFA11E"/>
<path d="M222.598 62.3324C222.598 62.6471 222.505 62.9548 222.33 63.2164C222.155 63.4781 221.907 63.6821 221.616 63.8025C221.325 63.9229 221.005 63.9544 220.697 63.893C220.388 63.8316 220.105 63.6801 219.882 63.4576C219.66 63.235 219.508 62.9515 219.447 62.6428C219.385 62.3342 219.417 62.0142 219.537 61.7235C219.658 61.4327 219.862 61.1842 220.123 61.0094C220.385 60.8345 220.693 60.7412 221.007 60.7412C221.429 60.7412 221.834 60.9089 222.132 61.2073C222.431 61.5057 222.598 61.9104 222.598 62.3324Z" fill="#DD6A57"/>
<path d="M222.598 70.3803C222.598 70.695 222.505 71.0026 222.33 71.2643C222.155 71.526 221.907 71.7299 221.616 71.8503C221.325 71.9708 221.005 72.0023 220.697 71.9409C220.388 71.8795 220.105 71.7279 219.882 71.5054C219.66 71.2829 219.508 70.9994 219.447 70.6907C219.385 70.382 219.417 70.0621 219.537 69.7713C219.658 69.4806 219.862 69.2321 220.123 69.0572C220.385 68.8824 220.693 68.7891 221.007 68.7891C221.429 68.7891 221.834 68.9567 222.132 69.2551C222.431 69.5535 222.598 69.9582 222.598 70.3803Z" fill="white"/>
<path d="M222.598 66.392C222.598 66.7065 222.504 67.0138 222.329 67.2751C222.153 67.5363 221.905 67.7397 221.614 67.8596C221.323 67.9795 221.003 68.0106 220.695 67.9488C220.386 67.887 220.103 67.7352 219.881 67.5125C219.659 67.2898 219.507 67.0063 219.446 66.6977C219.385 66.3892 219.417 66.0694 219.537 65.7789C219.658 65.4883 219.862 65.24 220.124 65.0653C220.385 64.8906 220.693 64.7974 221.007 64.7974C221.216 64.7974 221.424 64.8386 221.617 64.9188C221.81 64.999 221.986 65.1165 222.134 65.2646C222.281 65.4127 222.399 65.5885 222.478 65.782C222.558 65.9754 222.599 66.1827 222.598 66.392Z" fill="white"/>
<path d="M222.238 112.649H219.776L219.987 106.203L220.052 104.2H221.912L221.99 106.203L222.238 112.649Z" fill="#AFA11E"/>
<path d="M221.99 106.203H219.987L220.052 104.2H221.912L221.99 106.203Z" fill="#455A64"/>
<path d="M39.5996 120.799H80.0596C80.0596 120.799 75.6396 101.898 59.833 101.898C44.0264 101.898 40.2796 116.579 39.5996 120.799Z" fill="#AFA11E"/>
<path opacity="0.2" d="M39.5996 120.799H80.0596C80.0596 120.799 75.6396 101.898 59.833 101.898C44.0264 101.898 40.2796 116.579 39.5996 120.799Z" fill="black"/>
<path d="M157.002 122.839H197.462C197.462 122.839 193.042 103.938 177.235 103.938C161.429 103.938 157.699 118.619 157.002 122.839Z" fill="#AFA11E"/>
<path opacity="0.2" d="M157.002 122.839H197.462C197.462 122.839 193.042 103.938 177.235 103.938C161.429 103.938 157.699 118.619 157.002 122.839Z" fill="black"/>
<path d="M30.3417 86.3262C29.4747 87.6862 27.9617 102.881 27.8631 103.411C27.7645 103.942 26.5031 106.267 26.5031 106.709C26.5031 107.151 26.1631 113.992 26.3501 114.434C26.7596 115.241 27.2255 116.018 27.7441 116.76C27.9651 117.025 33.6975 121.958 34.3401 122.026C34.9827 122.094 40.9123 122.135 41.0245 122.026C41.1367 121.917 41.8201 103.666 59.8129 103.666C77.8057 103.666 77.6085 123.046 77.9417 123.121C78.2749 123.196 158.818 125.025 158.818 125.025C158.818 122.057 159.049 104.397 176.698 104.397C188.197 104.397 194.008 113.873 194.208 120.863C194.29 123.774 193.804 126.983 193.963 126.983C194.494 126.983 196.309 127.116 196.619 126.983C196.928 126.851 200.699 124.369 201.001 124.28C201.304 124.192 203.48 124.148 204.01 124.015C204.541 123.883 208.26 120.615 208.328 120.496C208.396 120.377 208.505 119.082 208.526 118.97C208.546 118.857 212.313 114.254 212.49 113.747C212.667 113.241 212.731 109.031 212.731 108.61C212.731 108.188 205.894 97.1008 204.299 95.9074C202.705 94.714 191.352 90.7292 188.03 90.1274C184.709 89.5256 166.451 86.8056 165.788 86.3432C165.125 85.8808 133.947 68.0002 128.524 66.6708C124.141 65.61 73.4129 67.0686 70.7575 67.2012C68.1021 67.3338 60.7513 68.6632 60.0441 68.6632C59.3369 68.6632 51.2041 68.619 50.7043 68.84C50.2045 69.061 50.7043 71.0092 51.3231 71.3628C51.9419 71.7164 31.8479 83.936 30.3417 86.3262Z" fill="#AFA11E"/>
<path d="M31.5041 85.1737C31.6945 85.3505 34.8667 85.4287 35.1999 85.2961C35.5331 85.1635 55.5115 71.8729 55.5251 71.4853C55.5251 71.2915 51.7851 71.3425 51.3227 71.3629C50.8603 71.3833 31.1369 84.8405 31.5041 85.1737Z" fill="#455A64"/>
<path d="M53.7542 84.9627C54.6212 87.5195 159.555 92.2999 160.13 91.0623C160.555 90.1443 151.168 82.6065 146.785 80.1483C142.402 77.6901 129.853 70.5875 123.665 69.8565C117.477 69.1255 104.965 69.1765 94.051 69.3941C83.2254 69.5913 70.4788 69.8565 65.9636 71.7741C62.0162 73.4741 53.0674 82.9295 53.7542 84.9627Z" fill="#263238"/>
<path d="M56.6812 83.47C56.943 84.4322 80.1174 86.9244 107.277 88.1858C134.436 89.4472 147.845 89.6444 148.179 89.5118C148.512 89.3792 147.247 82.144 146.785 81.5456C146.322 80.9472 126.864 70.9886 123.811 70.72C120.758 70.4514 104.254 70.4208 95.9308 70.5534C87.6076 70.686 70.237 71.6822 67.279 72.8756C64.6712 73.9296 56.4126 82.5078 56.6812 83.47Z" fill="#455A64"/>
<g opacity="0.1">
<path d="M92.6401 70.6382L77.0851 86.1932C74.3107 85.9484 71.7437 85.7036 69.4385 85.469L83.8511 71.0598C86.9247 70.8626 89.9881 70.7198 92.6401 70.6382Z" fill="white"/>
<path d="M148.125 87.9784L146.557 89.5458C144.971 89.5458 142.234 89.4937 138.346 89.3894L146.438 81.3008C146.559 81.3704 146.673 81.4512 146.778 81.5422C147.115 81.9706 147.856 85.7854 148.125 87.9784Z" fill="white"/>
<path d="M104.234 70.4888L87.6933 87.04C86.3673 86.9482 85.0651 86.853 83.7969 86.7544L100.028 70.5194C101.361 70.499 102.779 70.4888 104.234 70.4888Z" fill="white"/>
<path d="M139.74 77.7378L128.404 89.0802L124.372 88.9306L136.952 76.3506C137.907 76.8164 138.846 77.2822 139.74 77.7378Z" fill="white"/>
<path d="M81.0801 71.2163L67.0891 85.2141L66.0215 85.0951L79.8119 71.3047L81.0801 71.2163Z" fill="white"/>
<path d="M142.15 78.972L131.95 89.1924L130.801 89.1516L141.382 78.5674L142.15 78.972Z" fill="white"/>
<path d="M127.473 71.9508L111.068 88.3558L109.926 88.3082L126.64 71.6074L127.473 71.9508Z" fill="white"/>
<path d="M69.9618 72.2842L58.2522 83.9802C57.8612 83.902 57.5382 83.8272 57.29 83.7524L68.51 72.5324C68.935 72.4508 69.4178 72.3658 69.9618 72.2842Z" fill="white"/>
</g>
<path d="M71.2197 72.1076C71.3285 72.1076 71.3795 72.2504 71.2843 72.5054C70.7403 74.0116 66.4937 82.5422 65.4329 84.5346C65.3661 84.6417 65.2783 84.7343 65.1749 84.8068C65.0715 84.8792 64.9546 84.93 64.8311 84.9562L72.3111 85.7552C72.1799 85.7025 72.0713 85.6058 72.0036 85.4818C71.936 85.3577 71.9137 85.2139 71.9405 85.0752C72.0153 84.6026 74.7931 74.576 75.6805 72.111C75.7798 71.8828 75.9569 71.6972 76.1803 71.5874C76.3299 71.5874 74.9053 71.6078 73.5521 71.7472C72.3485 71.8764 71.2197 72.1076 71.2197 72.1076Z" fill="#263238"/>
<path d="M81.0801 71.2164C81.0801 71.2164 81.2161 71.2912 81.2229 71.5564C81.2705 73.916 81.5357 85.731 81.3079 86.377C81.2932 86.4412 81.2542 86.4972 81.1991 86.5334L82.6135 86.6456C82.5403 86.5461 82.4957 86.4285 82.4843 86.3056C82.3245 84.3098 82.1817 73.4774 82.2089 71.4748C82.2173 71.3505 82.2635 71.2319 82.3415 71.1348L81.0801 71.2164Z" fill="#263238"/>
<path d="M104.346 70.9754C104.513 71.499 104.788 86.9248 104.788 87.4212C104.788 87.9176 104.22 88.0366 104.22 88.0366L112.989 88.4446C112.989 88.4446 112.421 88.2848 112.309 88.0196C112.197 87.7544 109.453 71.1216 109.47 70.904C109.487 70.6864 109.919 70.4824 109.919 70.4824H103.799C103.919 70.5231 104.029 70.5877 104.123 70.6725C104.217 70.7573 104.293 70.8603 104.346 70.9754Z" fill="#263238"/>
<path d="M31.8918 88.4955C30.814 88.6315 28.3932 91.1509 28.2164 91.6813C28.0396 92.2117 27.3766 95.7987 27.7302 96.3291C28.0838 96.8595 29.369 98.1889 30.474 98.2331C31.579 98.2773 36.9816 95.7103 37.4678 95.2683C37.954 94.8263 38.3076 92.1301 37.733 91.2631C37.1584 90.3961 33.262 88.3187 31.8918 88.4955Z" fill="white"/>
<path d="M37.4682 95.2682C36.982 95.7102 31.5794 98.2772 30.4744 98.233C29.6312 98.199 28.6826 97.417 28.125 96.8118C28.7532 97.2665 29.512 97.5051 30.2874 97.4918C30.8824 97.4374 35.9416 95.2614 36.591 94.6664C37.2404 94.0714 37.271 91.8308 37.1826 91.4262C37.0942 91.0216 33.8302 88.917 33.8302 88.917C35.4452 89.5392 37.3458 90.6748 37.7334 91.2596C38.308 92.1402 37.9544 94.8228 37.4682 95.2682Z" fill="#EBEBEB"/>
<path d="M27.4208 108.525C27.1216 108.824 27.0196 111.071 27.3324 111.269C27.6452 111.466 29.4574 111.445 29.811 111.269C30.1646 111.092 31.0724 109.409 31.0044 108.834C30.9364 108.26 27.7744 108.171 27.4208 108.525Z" fill="white"/>
<path d="M189.013 96.0841C189.968 97.6311 196.983 100.368 199.604 100.8C201.256 101.072 206.975 101.432 207.308 101.14C207.642 100.848 204.884 97.0225 203.456 96.0909C202.028 95.1593 194.892 92.7725 192.733 92.8711C190.574 92.9697 188.051 94.5201 189.013 96.0841Z" fill="white"/>
<path d="M207.309 101.133C206.969 101.432 201.257 101.072 199.604 100.793C196.983 100.361 189.969 97.6243 189.013 96.0773C188.058 94.5303 190.574 92.9595 192.733 92.8575C192.9 92.8476 193.068 92.8476 193.236 92.8575C191.227 93.5987 190.815 95.1695 192.039 96.0671C193.263 96.9647 197.187 99.0625 198.754 99.5011C200.264 99.9261 205.894 100.803 206.384 100.419C206.477 100.308 206.545 100.178 206.582 100.039C206.619 99.8986 206.624 99.7522 206.598 99.6099C207.115 100.402 207.434 101.021 207.309 101.133Z" fill="#EBEBEB"/>
<g opacity="0.5">
<path d="M54.2981 95.7236C54.3048 96.6683 53.9382 97.5774 53.2781 98.2532C52.6078 98.9426 51.6913 99.3376 50.73 99.3517C49.7686 99.3657 48.841 98.9975 48.1509 98.328C47.8022 97.9901 47.525 97.5856 47.3357 97.1385C47.1464 96.6914 47.0488 96.2108 47.0488 95.7253C47.0488 95.2398 47.1464 94.7592 47.3357 94.3121C47.525 93.865 47.8022 93.4605 48.1509 93.1226C48.4921 92.7903 48.8956 92.5285 49.3382 92.3524C49.7807 92.1762 50.2537 92.0891 50.73 92.0961C51.2063 92.103 51.6765 92.2039 52.1138 92.3929C52.551 92.5819 52.9467 92.8552 53.2781 93.1974C53.938 93.8719 54.3046 94.7799 54.2981 95.7236ZM54.2981 95.7236C54.2903 94.7845 53.91 93.8868 53.2407 93.228C52.9094 92.9089 52.5185 92.6582 52.0903 92.4901C51.6621 92.3221 51.205 92.2401 50.7451 92.2488C49.8307 92.2672 48.9607 92.646 48.3243 93.3028C47.6943 93.9518 47.342 94.8208 47.342 95.7253C47.342 96.6298 47.6943 97.4987 48.3243 98.1478C48.9607 98.8046 49.8307 99.1834 50.7451 99.2018C51.205 99.2105 51.6621 99.1285 52.0903 98.9604C52.5185 98.7924 52.9094 98.5417 53.2407 98.2226C53.9096 97.5621 54.2897 96.6636 54.2981 95.7236Z" fill="black"/>
<path d="M39.6004 106.512C39.24 105.709 38.9204 104.9 38.5804 104.084C38.2404 103.268 37.9548 102.452 37.642 101.633C37.3292 100.813 37.047 99.9873 36.7682 99.1577C36.4894 98.3281 36.2106 97.4951 35.9658 96.6519C36.3296 97.4543 36.6458 98.2635 36.9858 99.0761C37.3258 99.8887 37.6114 100.711 37.9276 101.531C38.2438 102.35 38.5226 103.176 38.8014 104.006C39.0802 104.836 39.3488 105.669 39.6004 106.512Z" fill="black"/>
<path d="M27.1426 106.512C28.8868 106.478 30.6276 106.482 32.3718 106.488L37.5976 106.543L42.8234 106.669C44.5642 106.723 46.305 106.781 48.0458 106.873C46.305 106.907 44.5608 106.903 42.82 106.9L37.5908 106.842L32.365 106.716C30.6242 106.662 28.8834 106.604 27.1426 106.512Z" fill="black"/>
<path d="M109.416 89.5562L110.014 93.8028L110.273 95.9312C110.314 96.2882 110.351 96.6418 110.378 97.0022C110.405 97.3626 110.378 97.7162 110.378 98.0766L110.32 106.651L110.252 110.942L110.215 113.084L110.198 114.159L110.116 115.226L109.776 119.503L109.416 123.76L109.634 119.48L109.878 115.202L109.94 114.131V113.06L109.96 110.918L110.004 106.638L110.15 98.0698C110.15 97.7128 110.181 97.3524 110.15 97.0022C110.12 96.652 110.099 96.2916 110.065 95.938L109.851 93.8062L109.416 89.5562Z" fill="black"/>
<path d="M156.502 91.5043L157.24 95.7713L157.58 97.9201L157.668 98.454C157.707 98.6317 157.728 98.8127 157.733 98.9945C157.733 99.3549 157.733 99.7154 157.733 100.079C157.709 102.966 157.638 105.859 157.549 108.736C157.526 109.456 157.496 110.177 157.457 110.898C157.417 111.625 157.277 112.344 157.043 113.033C156.648 114.424 156.196 115.794 155.7 117.154C155.215 118.518 154.638 119.847 153.972 121.132L153.704 121.608C153.612 121.764 153.507 121.914 153.408 122.067C153.305 122.221 153.191 122.367 153.068 122.506L152.891 122.72C152.795 122.777 152.687 122.81 152.575 122.815C151.844 122.89 151.127 122.9 150.402 122.924C144.622 123.043 138.859 122.992 133.086 122.951C127.313 122.91 121.543 122.825 115.77 122.72C109.997 122.614 104.23 122.455 98.4605 122.244C95.5773 122.125 92.6805 122.03 89.8109 121.771C89.4418 121.744 89.0756 121.686 88.7161 121.598C88.5121 121.52 88.3931 121.424 88.2197 121.35C88.0463 121.275 87.9001 121.193 87.7369 121.118C87.0807 120.823 86.4075 120.561 85.7547 120.234C85.0933 119.921 84.4806 119.513 83.9357 119.024C83.4617 118.47 83.0234 117.886 82.6233 117.276C80.9981 114.896 79.4443 112.455 77.8939 110.024C76.3435 107.593 74.8067 105.145 73.2801 102.697C71.7535 100.249 70.2473 97.7841 68.7581 95.3123L68.2073 94.3807L68.0747 94.1359L68.0101 94.0136C67.9994 93.969 67.9937 93.9234 67.9931 93.8775L67.9387 93.3403C67.8775 92.6195 67.8231 91.8988 67.7959 91.178C67.7959 90.9978 67.7959 90.8176 67.7959 90.634C67.8194 90.4542 67.8581 90.2768 67.9115 90.1036C68.0101 89.7636 68.1291 89.4236 68.2515 89.0836C68.4929 88.4036 68.7513 87.7235 69.0199 87.0605C68.757 87.7405 68.5065 88.4205 68.2685 89.1005C68.1529 89.4405 68.0373 89.7805 67.9285 90.1205C67.8765 90.2928 67.839 90.4691 67.8163 90.6475C67.8163 90.8277 67.8163 91.008 67.8163 91.1882C67.8469 91.9056 67.9115 92.6264 67.9761 93.3438L68.0339 93.8809C68.0371 93.9256 68.0439 93.97 68.0543 94.0136L68.1189 94.1292C68.1631 94.204 68.2005 94.2787 68.2481 94.3569L68.8057 95.2851C70.3119 97.7433 71.8657 100.188 73.3889 102.629C76.4489 107.508 79.5327 112.401 82.7729 117.174C83.1656 117.767 83.5948 118.335 84.0581 118.874C84.5911 119.348 85.1887 119.742 85.8329 120.047C86.4755 120.364 87.1453 120.622 87.8083 120.921C87.9749 120.996 88.1483 121.071 88.3013 121.152C88.4543 121.234 88.6413 121.343 88.7739 121.39C89.1163 121.468 89.4641 121.521 89.8143 121.547C92.6805 121.798 95.5705 121.887 98.4537 121.992C104.234 122.189 109.99 122.315 115.76 122.421C121.53 122.526 127.299 122.638 133.073 122.703C138.846 122.767 144.633 122.829 150.382 122.727C151.099 122.706 151.827 122.696 152.534 122.625C152.616 122.625 152.721 122.591 152.735 122.587L152.905 122.383C153.022 122.25 153.129 122.108 153.224 121.958C153.32 121.809 153.425 121.662 153.517 121.509L153.782 121.044C154.459 119.765 155.047 118.44 155.54 117.079C156.041 115.719 156.494 114.351 156.9 112.975C157.131 112.298 157.27 111.592 157.315 110.878L157.413 108.715C157.529 105.832 157.624 102.935 157.672 100.062C157.672 99.7017 157.672 99.3414 157.672 98.9844C157.666 98.8039 157.646 98.6242 157.61 98.4471L157.525 97.9134L157.185 95.7782L156.502 91.5043Z" fill="black"/>
<path d="M193.644 98.8413C192.895 99.472 192.099 100.046 191.264 100.558C190.438 101.092 189.595 101.595 188.758 102.109C187.922 102.622 187.058 103.098 186.205 103.574C185.352 104.05 184.485 104.516 183.604 104.955C184.423 104.411 185.256 103.89 186.089 103.374L188.605 101.85L191.142 100.365L192.413 99.6233C192.839 99.3876 193.25 99.1264 193.644 98.8413Z" fill="black"/>
<path d="M72.1514 107.284L83.3918 107.579L94.6356 107.919L117.12 108.606L139.601 109.392L150.841 109.786L162.078 110.228L150.834 109.932L139.594 109.592L117.11 108.905L94.6288 108.12L83.3884 107.722L72.1514 107.284Z" fill="black"/>
<path d="M71.4884 91.1711L71.0464 91.1949H70.9376C70.9138 91.1949 70.9104 91.2153 70.8968 91.2493C70.878 91.3184 70.8644 91.3889 70.856 91.4601C70.8283 91.7482 70.8226 92.038 70.839 92.3271C70.8428 92.4705 70.8553 92.6136 70.8764 92.7555C70.885 92.8194 70.901 92.8822 70.924 92.9425H70.958H71.0396C71.3252 92.9697 71.621 92.9765 71.91 92.9867C73.0796 93.0241 74.2526 93.0615 75.4222 93.0819L77.1766 93.1329H78.0538H78.4278C78.4469 93.0981 78.4628 93.0616 78.4754 93.0241C78.493 92.9581 78.5066 92.8911 78.5162 92.8235C78.5544 92.5396 78.5669 92.2528 78.5536 91.9667C78.5498 91.8244 78.5373 91.6824 78.5162 91.5417C78.5073 91.4855 78.4913 91.4307 78.4686 91.3785C78.4174 91.3533 78.3622 91.3372 78.3054 91.3309C77.7376 91.2323 77.146 91.1983 76.5646 91.1405C77.1533 91.1241 77.7424 91.14 78.3292 91.1881C78.4173 91.1894 78.5033 91.2153 78.5774 91.2629C78.6316 91.3345 78.6667 91.4187 78.6794 91.5077C78.7109 91.6557 78.7325 91.8056 78.744 91.9565C78.7695 92.2551 78.7695 92.5554 78.744 92.8541C78.7363 92.9318 78.7238 93.009 78.7066 93.0853C78.6908 93.1923 78.6334 93.2888 78.5468 93.3539C78.5221 93.3718 78.4924 93.3813 78.4618 93.3811H78.3938H78.2748H77.1732L75.412 93.3573C74.2424 93.3131 73.0694 93.2791 71.8998 93.1941C71.604 93.1669 71.315 93.1499 71.0158 93.1057C70.9717 93.1032 70.9281 93.094 70.8866 93.0785C70.8603 93.074 70.8349 93.0648 70.8118 93.0513C70.7868 93.0308 70.7679 93.0037 70.7574 92.9731C70.7276 92.8969 70.7092 92.8167 70.703 92.7351C70.6873 92.586 70.6816 92.4361 70.686 92.2863C70.6906 91.9898 70.719 91.6942 70.771 91.4023C70.7851 91.3281 70.8056 91.2553 70.8322 91.1847C70.8385 91.1653 70.8477 91.1469 70.8594 91.1303C70.8677 91.1192 70.8785 91.1104 70.891 91.1045C70.9034 91.0985 70.9171 91.0957 70.9308 91.0963H71.0396L71.4884 91.1711Z" fill="black"/>
<path d="M114.516 92.2351L114.077 92.2589H113.969C113.945 92.2589 113.938 92.2793 113.924 92.3133C113.905 92.3822 113.892 92.4528 113.887 92.5241C113.858 92.8122 113.851 93.102 113.867 93.3911C113.867 93.5373 113.884 93.6801 113.904 93.8195C113.913 93.8837 113.931 93.9464 113.955 94.0065H113.986H114.071C114.356 94.0337 114.652 94.0405 114.941 94.0507C116.111 94.0881 117.28 94.1255 118.45 94.1459L120.208 94.1969H121.081H121.442C121.462 94.1969 121.476 94.1969 121.442 94.1969C121.462 94.1642 121.477 94.1287 121.486 94.0915C121.505 94.0256 121.519 93.9586 121.53 93.8909C121.566 93.6069 121.579 93.3203 121.568 93.0341C121.563 92.8918 121.549 92.7498 121.527 92.6091C121.518 92.5532 121.503 92.4985 121.483 92.4459C121.431 92.4208 121.376 92.4047 121.319 92.3983C120.748 92.2997 120.16 92.2657 119.579 92.2079C120.166 92.1922 120.754 92.2069 121.34 92.2521C121.428 92.2541 121.514 92.2812 121.588 92.3303C121.643 92.4018 121.679 92.486 121.693 92.5751C121.724 92.7247 121.741 92.8743 121.758 93.0239C121.783 93.3226 121.783 93.6229 121.758 93.9215C121.75 93.9993 121.738 94.0765 121.721 94.1527C121.687 94.2309 121.7 94.3159 121.561 94.4213C121.535 94.4397 121.504 94.4493 121.472 94.4485H121.408H121.289H120.184L118.426 94.4247C117.253 94.3805 116.083 94.3465 114.91 94.2581C114.618 94.2343 114.329 94.2139 114.03 94.1731C113.984 94.1704 113.94 94.1612 113.897 94.1459C113.872 94.1393 113.849 94.1302 113.826 94.1187C113.802 94.0967 113.782 94.0701 113.768 94.0405C113.739 93.9641 113.722 93.8839 113.717 93.8025C113.702 93.6534 113.695 93.5036 113.697 93.3537C113.704 93.0573 113.733 92.7618 113.785 92.4697C113.798 92.3956 113.817 92.3228 113.843 92.2521C113.851 92.2329 113.861 92.2147 113.873 92.1977C113.881 92.1865 113.892 92.1774 113.905 92.1715C113.917 92.1656 113.931 92.1629 113.945 92.1637H114.054L114.516 92.2351Z" fill="black"/>
</g>
<path d="M71.3003 133.518C77.8343 126.984 77.8343 116.39 71.3003 109.856C64.7663 103.322 54.1725 103.322 47.6385 109.856C41.1045 116.39 41.1045 126.984 47.6385 133.518C54.1725 140.052 64.7663 140.052 71.3003 133.518Z" fill="#263238"/>
<path d="M68.1069 130.325C72.8776 125.554 72.8776 117.82 68.1069 113.049C63.3361 108.278 55.6013 108.278 50.8305 113.049C46.0598 117.82 46.0598 125.554 50.8305 130.325C55.6013 135.096 63.3361 135.096 68.1069 130.325Z" fill="#DBDBDB"/>
<path d="M59.4693 132.954C65.6903 132.954 70.7335 127.911 70.7335 121.689C70.7335 115.468 65.6903 110.425 59.4693 110.425C53.2482 110.425 48.2051 115.468 48.2051 121.689C48.2051 127.911 53.2482 132.954 59.4693 132.954Z" fill="#A6A6A6"/>
<path d="M61.2376 118.864H57.6982C58.8916 117.137 54.7334 111.119 54.7334 111.119L56.6 110.5C57.8376 112.625 58.4564 113.247 59.4764 113.247C60.4964 113.247 61.1118 112.625 62.3528 110.5L64.2126 111.122C64.2126 111.122 60.0442 117.137 61.2376 118.864Z" fill="#DBDBDB"/>
<path d="M57.4021 119.078L56.3107 122.444C55.0391 120.775 48.0283 122.873 48.0283 122.873V120.911C50.4321 120.391 51.2141 119.993 51.5303 119.024C51.8465 118.055 51.4419 117.276 49.8065 115.437L50.9727 113.863C50.9727 113.863 55.3927 119.68 57.4021 119.078Z" fill="#DBDBDB"/>
<path d="M56.4232 122.791L59.286 124.872C57.3038 125.552 57.1338 132.879 57.1338 132.879L55.2638 132.291C55.5086 129.843 55.376 128.976 54.5498 128.377C53.7236 127.779 52.8498 127.918 50.6058 128.908L49.46 127.313C49.46 127.313 56.3756 124.889 56.4232 122.791Z" fill="#DBDBDB"/>
<path d="M59.6602 124.872L62.523 122.791C62.5706 124.889 69.476 127.313 69.476 127.313L68.337 128.911C66.0862 127.918 65.2192 127.779 64.3964 128.377C63.5736 128.976 63.4376 129.843 63.6824 132.291L61.8124 132.879C61.8124 132.879 61.6322 125.565 59.6602 124.872Z" fill="#DBDBDB"/>
<path d="M62.628 122.444L61.5332 119.078C63.5426 119.68 67.9932 113.863 67.9932 113.863L69.1628 115.44C67.524 117.273 67.1228 118.055 67.4356 119.024C67.7484 119.993 68.5372 120.384 70.941 120.914L70.9206 122.873C70.9206 122.873 63.8996 120.775 62.628 122.444Z" fill="#DBDBDB"/>
<path d="M59.469 124.879C61.2755 124.879 62.7398 123.415 62.7398 121.608C62.7398 119.802 61.2755 118.337 59.469 118.337C57.6626 118.337 56.1982 119.802 56.1982 121.608C56.1982 123.415 57.6626 124.879 59.469 124.879Z" fill="#DBDBDB"/>
<path d="M182.391 136.397C191.077 133.255 195.572 123.667 192.43 114.981C189.288 106.295 179.7 101.8 171.014 104.942C162.328 108.084 157.833 117.672 160.975 126.358C164.117 135.044 173.705 139.539 182.391 136.397Z" fill="#263238"/>
<path d="M188.363 124.815C190.086 118.291 186.194 111.607 179.671 109.885C173.147 108.162 166.463 112.054 164.741 118.578C163.018 125.101 166.91 131.785 173.434 133.508C179.957 135.23 186.641 131.338 188.363 124.815Z" fill="#DBDBDB"/>
<path d="M176.545 132.954C182.766 132.954 187.809 127.911 187.809 121.689C187.809 115.468 182.766 110.425 176.545 110.425C170.324 110.425 165.281 115.468 165.281 121.689C165.281 127.911 170.324 132.954 176.545 132.954Z" fill="#A6A6A6"/>
<path d="M178.32 118.864H174.774C175.971 117.137 171.809 111.119 171.809 111.119L173.669 110.497C174.906 112.622 175.525 113.244 176.545 113.244C177.565 113.244 178.181 112.622 179.425 110.497L181.281 111.119C181.281 111.119 177.12 117.137 178.32 118.864Z" fill="#DBDBDB"/>
<path d="M174.478 119.078L173.386 122.444C172.115 120.775 165.104 122.873 165.104 122.873L165.087 120.911C167.491 120.391 168.273 119.993 168.589 119.024C168.905 118.055 168.501 117.276 166.865 115.437L168.031 113.863C168.031 113.863 172.468 119.68 174.478 119.078Z" fill="#DBDBDB"/>
<path d="M173.499 122.791L176.362 124.872C174.383 125.552 174.209 132.879 174.209 132.879L172.339 132.291C172.588 129.843 172.452 128.976 171.629 128.377C170.806 127.779 169.929 127.918 167.685 128.908L166.546 127.313C166.546 127.313 173.451 124.889 173.499 122.791Z" fill="#DBDBDB"/>
<path d="M176.729 124.872L179.591 122.791C179.639 124.889 186.541 127.313 186.541 127.313L185.402 128.911C183.151 127.918 182.284 127.779 181.461 128.377C180.639 128.976 180.503 129.843 180.747 132.291L178.877 132.879C178.877 132.879 178.707 125.565 176.729 124.872Z" fill="#DBDBDB"/>
<path d="M179.704 122.444L178.609 119.078C180.618 119.68 185.069 113.863 185.069 113.863L186.235 115.44C184.596 117.273 184.195 118.055 184.511 119.024C184.828 119.993 185.609 120.384 188.013 120.914L187.993 122.873C187.993 122.873 180.975 120.775 179.704 122.444Z" fill="#DBDBDB"/>
<path d="M176.545 124.879C178.352 124.879 179.816 123.415 179.816 121.608C179.816 119.802 178.352 118.337 176.545 118.337C174.739 118.337 173.274 119.802 173.274 121.608C173.274 123.415 174.739 124.879 176.545 124.879Z" fill="#DBDBDB"/>
<path d="M144.337 83.2697C143.728 83.8817 143.783 89.3352 144.225 89.7773C144.667 90.2193 150.732 90.6205 151.219 87.2341C151.705 83.8477 145.289 82.3177 144.337 83.2697Z" fill="#AFA11E"/>
<path d="M166.468 86.5303H161.534C148.696 78.0609 131.077 69.6799 131.077 69.6799L134.001 68.9761C144.667 74.1373 165.234 85.9455 165.774 86.3161C165.996 86.4147 166.229 86.4867 166.468 86.5303Z" fill="#455A64"/>
<g opacity="0.5">
<path d="M39.5996 110.759C40.6284 109.059 41.8869 107.51 43.3396 106.155C44.7922 104.787 46.4121 103.608 48.1608 102.646C51.687 100.731 55.6471 99.7551 59.6596 99.814L61.1556 99.882L61.9036 99.9194C62.1518 99.9466 62.4 99.9874 62.6482 100.021L64.1306 100.232C64.6202 100.334 65.103 100.463 65.5892 100.572C67.5342 101.053 69.3877 101.848 71.0768 102.925C72.7548 104.009 74.2531 105.349 75.5172 106.896C76.7485 108.458 77.8011 110.153 78.6554 111.949C77.7379 110.194 76.6357 108.543 75.3676 107.022C74.0912 105.519 72.5885 104.224 70.9136 103.183C67.5612 101.092 63.5798 100.242 59.6596 100.205C57.6907 100.174 55.7255 100.385 53.8082 100.834C51.892 101.29 50.0413 101.987 48.3002 102.908C46.5533 103.829 44.929 104.965 43.4654 106.291C41.9862 107.604 40.6864 109.106 39.5996 110.759Z" fill="white"/>
<path d="M156.825 110.758C157.854 109.059 159.113 107.51 160.565 106.155C162.022 104.785 163.647 103.606 165.4 102.646C168.928 100.729 172.891 99.7536 176.906 99.8137L178.402 99.8816L179.15 99.9191C179.398 99.9463 179.646 99.987 179.891 100.021L181.377 100.232C181.863 100.334 182.349 100.463 182.835 100.572C184.78 101.053 186.634 101.847 188.323 102.925C190.001 104.009 191.499 105.349 192.763 106.896C193.994 108.458 195.047 110.152 195.901 111.948C194.929 110.221 193.926 108.504 192.614 107.022C191.336 105.52 189.833 104.225 188.16 103.183C184.807 101.092 180.826 100.242 176.902 100.205C174.934 100.174 172.97 100.385 171.054 100.834C167.203 101.754 163.645 103.631 160.711 106.291C159.224 107.601 157.917 109.104 156.825 110.758Z" fill="white"/>
<path d="M42.0137 82.9906C44.6215 80.9506 47.2667 78.9548 49.9289 76.9862C52.5911 75.0176 55.2839 73.083 58.0549 71.2504C58.3949 71.0294 58.7553 70.805 59.1191 70.5976C59.2993 70.4888 59.4829 70.3868 59.6767 70.2916C59.8718 70.1964 60.0756 70.1202 60.2853 70.0638C61.0877 69.8292 61.8901 69.6252 62.6925 69.4246C64.3041 69.0268 65.9157 68.646 67.5443 68.3298C69.1787 68.0161 70.8374 67.8455 72.5015 67.8198C74.1607 67.7858 75.8165 67.7892 77.4723 67.8674C75.8165 67.8674 74.1607 67.915 72.5117 68.017C70.8628 68.0786 69.2223 68.2833 67.6089 68.629C65.9973 68.9928 64.3823 69.3634 62.7843 69.7748C61.9819 69.9822 61.1795 70.1896 60.4043 70.4276C60.2139 70.4787 60.0293 70.5493 59.8535 70.6384C59.6767 70.7302 59.4965 70.8288 59.3231 70.9342C58.9831 71.1416 58.6227 71.3626 58.2759 71.587C55.5049 73.3822 52.8359 75.327 50.1159 77.2344L42.0137 82.9906Z" fill="white"/>
</g>
<path opacity="0.1" d="M171.809 104.904C158.991 107.835 158.804 122.353 158.804 125.015C158.804 125.015 78.2576 123.179 77.9278 123.111C77.6592 123.053 77.7408 110.344 68.2344 105.499C72.5048 107.61 77.9754 112.724 80.046 120.19C80.2704 120.986 92.0004 122.23 112.05 122.873C132.1 123.516 149.528 123.111 152.85 122.645C156.172 122.179 160.024 104.853 171.809 104.904Z" fill="black"/>
<path opacity="0.1" d="M212.476 113.727C212.299 114.237 208.532 118.827 208.515 118.949C208.498 119.071 208.383 120.343 208.315 120.479C208.247 120.615 204.527 123.879 203.997 123.995C203.466 124.11 201.297 124.171 200.991 124.26C200.685 124.348 196.911 126.827 196.605 126.959C196.299 127.092 194.48 126.959 193.95 126.959C193.79 126.959 194.29 123.76 194.194 120.839C194.048 115.767 190.951 109.381 184.865 106.264C188.166 106.967 193.674 111.476 195.898 116.124C198.121 120.771 197.55 121.115 198.07 121.676C198.591 122.237 200.314 121.105 201.11 120.904C201.906 120.703 204.51 120.639 205.496 120.442C206.482 120.244 206.652 118.449 207.335 118.062C208.019 117.674 211.49 114.9 212.476 113.727Z" fill="black"/>
<path d="M128 36.0773C127.579 31.8341 124.655 27.6113 119.5 27.6113C114.346 27.6113 111.442 31.8341 111.021 36.0773C110.371 42.6257 114.791 48.5587 119.5 53.9715C124.213 48.5587 128.633 42.6257 128 36.0773ZM119.5 40.7999C118.581 40.7993 117.683 40.526 116.919 40.0147C116.155 39.5035 115.56 38.7772 115.208 37.9276C114.857 37.0781 114.766 36.1435 114.946 35.2421C115.126 34.3406 115.569 33.5128 116.22 32.8632C116.87 32.2137 117.699 31.7717 118.6 31.593C119.502 31.4143 120.437 31.507 121.286 31.8594C122.135 32.2118 122.86 32.8081 123.37 33.5728C123.88 34.3375 124.152 35.2363 124.152 36.1555C124.152 36.7661 124.032 37.3708 123.798 37.935C123.565 38.4991 123.222 39.0116 122.79 39.443C122.358 39.8745 121.845 40.2164 121.28 40.4493C120.716 40.6821 120.111 40.8013 119.5 40.7999Z" fill="#AFA11E"/>
<path d="M139.761 149.454C140.441 149.668 159.334 149.423 160.048 148.954C160.324 148.781 160.446 146.023 160.504 142.688V142.582C160.504 141.902 160.524 141.188 160.528 140.471C160.528 140.372 160.528 140.274 160.528 140.175L159.62 130.366L146.969 130.492L148.216 140.209L148.233 140.593L148.308 142.606V142.814C148.308 142.814 141.114 146.142 140.383 146.741C139.652 147.339 139.098 149.26 139.761 149.454Z" fill="#DD6A57"/>
<path d="M139.761 149.454C140.441 149.668 159.334 149.423 160.048 148.954C160.324 148.781 160.446 146.023 160.504 142.688V142.582C160.504 141.902 160.524 141.188 160.528 140.471C160.528 140.372 160.528 140.274 160.528 140.175L148.206 140.209L148.223 140.593L148.298 142.606V142.814C148.298 142.814 141.104 146.142 140.373 146.741C139.642 147.339 139.098 149.26 139.761 149.454Z" fill="#EBEBEB"/>
<path d="M139.761 149.451C140.101 149.563 145.238 149.549 150.26 149.451C151.28 149.43 152.273 149.41 153.231 149.383C156.812 149.284 159.773 149.138 160.031 148.958C160.29 148.777 160.429 146.105 160.484 142.838C160.484 142.79 160.484 142.746 160.484 142.698C160.484 142.651 160.484 142.627 160.484 142.593L148.295 142.613V142.824C148.295 142.824 141.097 146.153 140.369 146.748C139.642 147.343 139.098 149.24 139.761 149.451Z" fill="#AFA11E"/>
<path d="M139.965 148.716C143.154 148.597 156.016 148.417 159.175 148.539C159.202 148.539 159.202 148.556 159.175 148.56C156.019 148.747 143.154 148.825 139.968 148.771C139.9 148.767 139.9 148.72 139.965 148.716Z" fill="#263238"/>
<path d="M146.945 142.657C148.196 142.409 149.733 142.579 150.685 143.463C150.722 143.497 150.685 143.548 150.634 143.538C149.43 143.166 148.19 142.924 146.935 142.817C146.917 142.812 146.9 142.801 146.889 142.786C146.878 142.771 146.873 142.752 146.874 142.733C146.875 142.714 146.883 142.696 146.896 142.683C146.909 142.669 146.926 142.66 146.945 142.657Z" fill="#263238"/>
<path d="M146.047 143.215C147.299 142.966 148.835 143.136 149.804 144.017C149.842 144.054 149.804 144.105 149.753 144.092C148.55 143.721 147.309 143.48 146.054 143.374C146.036 143.372 146.019 143.362 146.006 143.348C145.994 143.334 145.986 143.316 145.985 143.297C145.985 143.279 145.99 143.26 146.002 143.245C146.013 143.23 146.029 143.219 146.047 143.215Z" fill="#263238"/>
<path d="M145.146 143.772C146.397 143.521 147.934 143.694 148.907 144.575C148.944 144.609 148.907 144.663 148.852 144.649C147.65 144.278 146.411 144.038 145.156 143.932C145.138 143.93 145.12 143.921 145.107 143.907C145.095 143.893 145.087 143.875 145.086 143.856C145.084 143.838 145.09 143.819 145.101 143.803C145.112 143.788 145.128 143.777 145.146 143.772Z" fill="#263238"/>
<path d="M150.26 149.447C151.28 149.427 152.273 149.406 153.231 149.379C156.812 149.281 159.773 149.134 160.031 148.954C160.29 148.774 160.429 146.102 160.484 142.834C160.484 142.787 160.484 142.742 160.484 142.695C160.484 142.647 160.484 142.623 160.484 142.589C158.821 143.752 152.936 147.669 150.26 149.447Z" fill="#263238"/>
<path d="M147.472 142.647H161.092C161.092 142.647 158.349 110.84 158.457 110.283C158.593 109.572 159.396 106.352 160.467 102.146L161.538 97.9542C162.558 94 163.673 89.6752 164.649 85.9114C166.114 80.2708 167.257 75.8916 167.257 75.8916H155.697C155.697 75.8916 154.337 80.1552 152.657 85.704C149.893 94.7208 146.197 107.124 145.837 110.15C145.265 115.019 147.472 142.647 147.472 142.647Z" fill="#455A64"/>
<path d="M148.06 140.325C150.141 140.281 149.542 140.264 151.623 140.243C152.643 140.243 159.331 140.175 160.283 140.332C160.303 140.332 160.303 140.372 160.283 140.376C159.331 140.532 152.643 140.474 151.623 140.464C149.542 140.444 150.141 140.427 148.06 140.386C148.036 140.383 148.036 140.325 148.06 140.325Z" fill="#263238"/>
<path d="M155.88 108.341C156.326 106.372 156.992 104.441 157.58 102.51C158.761 98.5817 159.949 94.657 161.143 90.7357C161.739 88.775 162.338 86.8143 162.939 84.8537C163.245 83.8643 163.547 82.8749 163.86 81.8889C164.173 80.9029 164.506 79.9645 164.781 78.9887C164.89 78.5909 164.951 78.8085 164.809 79.3287C164.523 80.3487 164.237 81.3687 163.942 82.3887C163.357 84.3947 162.766 86.4007 162.17 88.4067C160.991 92.396 159.801 96.3831 158.6 100.368L156.795 106.359C156.493 107.31 156.247 108.278 156.06 109.259C155.898 110.284 155.858 111.325 155.941 112.36C156.071 114.444 156.312 116.525 156.506 118.605C156.7 120.686 156.89 122.77 157.084 124.855C157.465 128.998 157.844 133.144 158.223 137.292C158.27 137.815 158.318 138.342 158.359 138.869C158.359 139.043 158.104 139.029 158.087 138.869C157.638 134.769 157.295 130.655 156.907 126.551C156.519 122.447 156.142 118.391 155.761 114.294C155.666 113.274 155.557 112.254 155.554 111.21C155.554 110.245 155.663 109.282 155.88 108.341Z" fill="#263238"/>
<path d="M157.022 75.8916C157.825 82.0932 159.351 93.7144 160.467 102.146C163.071 91.9294 167.267 75.8916 167.267 75.8916H157.022Z" fill="#263238"/>
<path d="M154.18 149.634C154.84 149.851 173.75 149.675 174.468 149.209C174.743 149.039 174.876 146.281 174.944 142.946V142.841C174.944 142.161 174.971 141.447 174.974 140.729C174.974 140.631 174.974 140.532 174.974 140.434C175.019 135.619 174.672 130.621 174.672 130.621L162.309 130.703L162.68 140.42V140.804L162.751 142.817V143.021C162.751 143.021 155.543 146.329 154.809 146.921C154.075 147.512 153.527 149.42 154.18 149.634Z" fill="#DD6A57"/>
<path d="M154.18 149.634C154.84 149.852 173.75 149.675 174.468 149.209C174.743 149.039 174.876 146.282 174.944 142.946V142.841C174.944 142.161 174.971 141.447 174.974 140.729C174.974 140.631 174.974 140.532 174.974 140.434L162.68 140.42V140.804L162.751 142.817V143.021C162.751 143.021 155.543 146.329 154.809 146.921C154.075 147.512 153.527 149.42 154.18 149.634Z" fill="#EBEBEB"/>
<path d="M154.18 149.634C154.84 149.852 173.75 149.675 174.468 149.209C174.743 149.039 174.876 146.282 174.944 142.946V142.841L162.745 142.82V143.024C162.745 143.024 155.537 146.333 154.802 146.924C154.068 147.516 153.527 149.42 154.18 149.634Z" fill="#AFA11E"/>
<path d="M154.398 148.9C157.583 148.791 170.449 148.658 173.608 148.791C173.631 148.791 173.631 148.811 173.608 148.811C170.449 148.988 157.583 149.019 154.398 148.951C154.33 148.951 154.33 148.92 154.398 148.9Z" fill="#263238"/>
<path d="M161.395 142.868C162.65 142.62 164.183 142.8 165.135 143.684C165.172 143.718 165.135 143.769 165.081 143.759C163.879 143.382 162.64 143.135 161.385 143.024C161.364 143.023 161.345 143.014 161.331 142.998C161.317 142.982 161.31 142.962 161.312 142.941C161.313 142.92 161.323 142.901 161.338 142.887C161.354 142.874 161.374 142.867 161.395 142.868Z" fill="#263238"/>
<path d="M160.497 143.422C161.748 143.174 163.285 143.354 164.237 144.238C164.275 144.272 164.237 144.323 164.186 144.313C162.984 143.936 161.745 143.69 160.49 143.579C160.47 143.578 160.45 143.569 160.436 143.553C160.422 143.538 160.415 143.518 160.416 143.497C160.417 143.476 160.426 143.457 160.441 143.443C160.456 143.429 160.476 143.421 160.497 143.422Z" fill="#263238"/>
<path d="M159.596 143.973C160.848 143.728 162.384 143.908 163.336 144.792C163.374 144.826 163.336 144.877 163.285 144.867C162.093 144.492 160.865 144.246 159.62 144.133C159.601 144.133 159.582 144.126 159.567 144.113C159.552 144.1 159.542 144.083 159.539 144.063C159.536 144.044 159.54 144.024 159.551 144.007C159.561 143.991 159.578 143.979 159.596 143.973Z" fill="#263238"/>
<path d="M156.087 75.8916C156.087 75.8916 156.353 81.4166 157.617 85.789C157.719 86.1494 157.828 86.5063 157.957 86.8463C159.115 87.3117 160.228 87.8807 161.283 88.5463C161.283 88.5463 161.415 92.9902 161.548 97.944C161.697 103.486 161.85 109.664 161.82 110.973C161.704 115.876 162.432 142.838 162.432 142.838L176.032 142.892C176.032 142.892 173.57 112.785 173.587 110.99C173.611 108.103 172.928 95.3498 172.397 86.0372C172.057 80.3014 171.809 75.8813 171.809 75.8813L156.087 75.8916Z" fill="#455A64"/>
<path d="M162.888 140.42C164.969 140.383 164.37 140.366 166.451 140.352C167.471 140.352 174.159 140.318 175.111 140.481C175.116 140.481 175.121 140.483 175.125 140.487C175.129 140.491 175.131 140.496 175.131 140.502C175.131 140.507 175.129 140.512 175.125 140.516C175.121 140.52 175.116 140.522 175.111 140.522C174.159 140.675 167.468 140.59 166.451 140.573C164.37 140.546 164.969 140.532 162.888 140.478C162.882 140.476 162.877 140.472 162.873 140.467C162.869 140.462 162.867 140.455 162.867 140.449C162.867 140.443 162.869 140.436 162.873 140.431C162.877 140.426 162.882 140.422 162.888 140.42Z" fill="#263238"/>
<path d="M170.67 77.8601C170.921 85.4557 171.187 93.0513 171.527 100.64C171.867 108.229 172.326 115.875 172.965 123.474C173.305 127.721 173.645 133.695 174.114 137.931C174.114 137.958 174.073 137.969 174.07 137.931C173.077 130.397 172.526 121.077 172.03 113.495C171.533 105.913 171.214 98.3179 170.955 90.7155C170.809 86.4179 170.697 82.1237 170.568 77.8261C170.575 77.7989 170.666 77.8057 170.67 77.8601Z" fill="#263238"/>
<path d="M157.38 86.5198C158.734 87.0846 160.037 87.7672 161.273 88.5598C161.283 88.5652 161.292 88.5747 161.295 88.5862C161.299 88.5976 161.298 88.6102 161.293 88.621C161.288 88.6318 161.278 88.64 161.267 88.6439C161.255 88.6477 161.243 88.6468 161.232 88.6414C159.919 88.0022 158.576 87.3868 157.301 86.6796C157.28 86.6692 157.264 86.6509 157.256 86.6285C157.249 86.6062 157.25 86.5818 157.261 86.5606C157.271 86.5394 157.289 86.5232 157.312 86.5156C157.334 86.5079 157.358 86.5094 157.38 86.5198Z" fill="#263238"/>
<path d="M156.56 80.4101C156.669 80.9949 156.808 81.5729 156.934 82.1509C157.06 82.7289 157.142 83.2525 157.274 83.7897C157.394 84.306 157.658 84.7777 158.036 85.1497C158.25 85.3469 158.485 85.5237 158.716 85.7039L159.1 85.9963C159.083 85.9181 159.069 85.8399 159.056 85.7617L158.944 85.0987C158.859 84.6057 158.78 84.1127 158.706 83.6197C158.559 82.6507 158.423 81.6715 158.219 80.7127C158.219 80.7046 158.223 80.6968 158.228 80.6911C158.234 80.6853 158.242 80.6821 158.25 80.6821C158.258 80.6821 158.266 80.6853 158.272 80.6911C158.277 80.6968 158.281 80.7046 158.281 80.7127C158.522 81.6613 158.787 82.6031 158.998 83.5619C159.1 84.0311 159.467 86.3499 159.484 86.5165C159.501 86.6831 159.515 86.8565 159.522 87.0265C159.545 87.1991 159.545 87.3741 159.522 87.5467C159.522 87.5875 159.46 87.5807 159.443 87.5467C159.374 87.3844 159.325 87.2143 159.297 87.0401C159.253 86.8754 159.216 86.7086 159.188 86.5403L159.158 86.3533C158.93 86.2139 158.719 86.0303 158.505 85.8773C158.291 85.7243 158.039 85.5373 157.825 85.3639C157.422 85.0239 157.132 84.5699 156.992 84.0617C156.85 83.5148 156.759 82.9559 156.72 82.3923C156.645 81.7361 156.591 81.0731 156.499 80.4135C156.499 80.3863 156.56 80.3693 156.56 80.4101Z" fill="#263238"/>
<path d="M147.21 49.9802L148.849 58.8644C148.927 59.1296 148.784 59.3302 148.533 59.3132L144.021 59.0242C143.884 59.0041 143.755 58.946 143.649 58.8565C143.543 58.767 143.465 58.6495 143.422 58.5176L141.784 49.63C141.705 49.3682 141.848 49.1676 142.1 49.1846L146.612 49.4736C146.749 49.4929 146.878 49.5507 146.984 49.6404C147.09 49.73 147.168 49.8478 147.21 49.9802Z" fill="#37474F"/>
<path d="M146.673 49.9222L148.315 58.82C148.393 59.0818 148.251 59.2824 147.999 59.2654L143.484 58.9764C143.347 58.9569 143.218 58.899 143.113 58.8093C143.008 58.7196 142.93 58.6019 142.889 58.4698L141.26 49.5754C141.182 49.3102 141.325 49.113 141.576 49.1266L146.092 49.419C146.226 49.4402 146.351 49.4986 146.454 49.5876C146.557 49.6765 146.633 49.7924 146.673 49.9222Z" fill="#455A64"/>
<path d="M145.411 50.2421C145.408 50.3181 145.428 50.3934 145.467 50.4585C145.507 50.5235 145.565 50.5753 145.634 50.6073C145.703 50.6394 145.78 50.6502 145.855 50.6384C145.93 50.6266 146 50.5928 146.056 50.5412C146.112 50.4895 146.151 50.4225 146.169 50.3485C146.187 50.2745 146.182 50.1968 146.156 50.1255C146.129 50.0541 146.082 49.9922 146.021 49.9476C145.959 49.903 145.885 49.8777 145.809 49.8749C145.759 49.8726 145.709 49.8803 145.661 49.8976C145.614 49.9149 145.571 49.9413 145.534 49.9755C145.497 50.0096 145.467 50.0508 145.446 50.0966C145.425 50.1423 145.413 50.1918 145.411 50.2421Z" fill="#263238"/>
<path d="M160.905 64.1375C158.049 69.4381 151.919 76.1871 149.546 76.0851C148.417 76.0375 146.384 76.1973 144.973 74.8169C141.896 71.8079 139.492 66.2421 139.115 63.1107C138.979 61.9989 144.477 59.9045 145.218 60.8463C146.955 63.0529 148.886 67.3063 149.216 67.3063C150.433 67.2791 155.404 63.5867 158.876 60.9857C163.088 57.7999 162.044 62.0261 160.905 64.1375Z" fill="#DD6A57"/>
<path d="M139.295 57.4057C139.975 55.1991 140.505 54.7367 140.097 52.5641C139.832 51.1395 140.628 50.3575 141.563 51.5441C143.093 53.4821 142.797 56.5183 142.392 57.5383L139.295 57.4057Z" fill="#DD6A57"/>
<path d="M139.322 64.0865C139.322 64.0865 138.496 60.9109 138.999 58.4867C139.339 56.8105 140.515 53.2439 145.354 51.5983C146.503 51.2073 148.414 51.4657 146.771 52.7849C145.605 53.7199 144.582 53.9613 144 54.6311C144 54.6311 146.397 55.2465 146.744 56.4127C147.044 57.4323 147.271 58.4719 147.424 59.5237C147.238 59.5956 147.047 59.6557 146.853 59.7039C146.853 59.7039 147.145 60.8055 146.258 62.2947L139.322 64.0865Z" fill="#DD6A57"/>
<path d="M139.587 56.9401C140.304 56.3961 141.841 55.274 143.415 54.7912C145.166 54.2574 148.685 53.6964 149.066 54.9952C149.345 55.9438 148.022 56.2771 148.022 56.2771C148.022 56.2771 149.525 56.3518 149.59 57.2664C149.648 58.0994 148.607 58.2864 148.607 58.2864C148.607 58.2864 149.512 58.4904 149.413 59.3064C149.297 60.2856 147.424 59.7008 146.448 60.5882C146.231 60.7922 139.587 56.9401 139.587 56.9401Z" fill="#DD6A57"/>
<path d="M143.674 56.7361C145.032 56.1398 146.539 55.9703 147.996 56.2499C148.033 56.2499 148.043 56.2907 147.996 56.2907C146.538 56.2691 145.084 56.4244 143.664 56.7531C143.664 56.7531 143.664 56.7395 143.674 56.7361Z" fill="#263238"/>
<path d="M144.266 58.4799C145.666 58.0157 147.166 57.937 148.607 58.2521C148.645 58.2521 148.655 58.2963 148.607 58.2929C147.154 58.1965 145.694 58.265 144.255 58.4969C144.255 58.4969 144.255 58.4799 144.266 58.4799Z" fill="#263238"/>
<path d="M138.938 65.3789C138.938 65.3789 142.861 74.3005 145.36 75.4463C147.859 76.5921 149.399 76.4663 150.358 76.3609C150.725 76.2924 151.072 76.1463 151.378 75.9325C154.054 74.2325 159.021 67.9833 161.095 64.4269C162.649 61.7579 162.629 59.2589 160.456 59.9457C159.718 60.2125 159.028 60.5997 158.416 61.0915C154.336 64.1515 149.607 67.0347 149.396 66.9089C149.185 66.7831 147.131 63.0975 147.131 63.0975L138.938 65.3789Z" fill="#AFA11E"/>
<path d="M149.06 68.7788C149.104 69.1801 149.045 69.5861 148.89 69.9586C148.862 69.7589 148.862 69.5565 148.89 69.3568C148.918 69.1569 148.975 68.9622 149.06 68.7788Z" fill="white"/>
<path d="M143.939 70.9854C143.967 71.185 143.967 71.3875 143.939 71.5872C143.913 71.7866 143.858 71.9813 143.776 72.1652C143.749 71.9655 143.749 71.763 143.776 71.5634C143.804 71.3641 143.859 71.1696 143.939 70.9854Z" fill="white"/>
<path d="M152.966 73.1377C152.993 73.3374 152.993 73.5398 152.966 73.7395C152.94 73.9391 152.885 74.1338 152.803 74.3175C152.754 73.9161 152.813 73.509 152.973 73.1377H152.966Z" fill="white"/>
<path d="M155.445 64.3721C155.472 64.5717 155.472 64.7742 155.445 64.9739C155.419 65.1734 155.364 65.3682 155.282 65.5519C155.254 65.3522 155.254 65.1497 155.282 64.9501C155.308 64.7506 155.363 64.5559 155.445 64.3721Z" fill="white"/>
<path d="M156.244 67.9663C155.842 68.0106 155.436 67.9521 155.064 67.7963C155.264 67.7691 155.466 67.7691 155.666 67.7963C155.866 67.8249 156.06 67.8822 156.244 67.9663Z" fill="white"/>
<path d="M145.796 69.0202C145.596 69.0475 145.393 69.0475 145.194 69.0202C144.993 68.9949 144.797 68.9411 144.612 68.8604C144.812 68.8297 145.015 68.8297 145.214 68.8604C145.415 68.8857 145.61 68.9395 145.796 69.0202Z" fill="white"/>
<path d="M151.12 72.1345C150.921 72.1652 150.718 72.1652 150.518 72.1345C150.319 72.1097 150.124 72.0558 149.94 71.9747C150.341 71.9272 150.748 71.9846 151.12 72.1413V72.1345Z" fill="white"/>
<path d="M141.008 65.9259C140.809 65.9548 140.606 65.9548 140.407 65.9259C140.206 65.9006 140.01 65.8468 139.825 65.7661C140.025 65.7388 140.227 65.7388 140.427 65.7661C140.627 65.7914 140.823 65.8452 141.008 65.9259Z" fill="white"/>
<path d="M146.18 75.0583C145.778 75.1056 145.37 75.0482 144.997 74.8917C145.196 74.861 145.399 74.861 145.598 74.8917C145.799 74.9191 145.995 74.9752 146.18 75.0583Z" fill="white"/>
<path d="M161.538 60.2378C161.702 60.3108 161.876 60.3611 162.054 60.3874C162.028 60.3312 161.996 60.2776 161.959 60.2276C161.819 60.2123 161.677 60.2158 161.538 60.2378Z" fill="white"/>
<path d="M151.606 66.5859C151.765 66.7099 151.906 66.8552 152.025 67.0177C152.149 67.1767 152.248 67.3531 152.32 67.5413C152.16 67.4191 152.019 67.2736 151.902 67.1095C151.777 66.9515 151.677 66.7748 151.606 66.5859Z" fill="white"/>
<path d="M146.7 71.5732C146.86 71.6972 147.002 71.8425 147.122 72.005C147.245 72.1647 147.344 72.341 147.418 72.5286C147.256 72.4064 147.114 72.2609 146.996 72.0968C146.873 71.9372 146.774 71.7609 146.7 71.5732Z" fill="white"/>
<path d="M143.902 64.9639C144.061 65.0866 144.203 65.2307 144.323 65.3923C144.446 65.5519 144.546 65.7282 144.619 65.9159C144.458 65.7936 144.316 65.6481 144.198 65.4841C144.076 65.3251 143.976 65.1501 143.902 64.9639Z" fill="white"/>
<path d="M154.707 70.9512C154.866 71.0751 155.006 71.2204 155.125 71.383C155.249 71.5419 155.349 71.7184 155.421 71.9066C155.105 71.6544 154.859 71.3255 154.707 70.9512Z" fill="white"/>
<path d="M158.403 62.5601C158.563 62.6818 158.705 62.8261 158.824 62.9885C158.947 63.1481 159.047 63.3244 159.12 63.5121C158.961 63.3894 158.819 63.2452 158.699 63.0837C158.577 62.9231 158.478 62.747 158.403 62.5601Z" fill="white"/>
<path d="M158.644 66.6637C158.893 66.3448 159.221 66.0973 159.596 65.9463C159.474 66.1067 159.33 66.2487 159.168 66.3679C159.007 66.4894 158.831 66.5888 158.644 66.6637Z" fill="white"/>
<path d="M141.284 68.629C141.406 68.4679 141.551 68.3258 141.715 68.2074C141.875 68.0845 142.051 67.9849 142.239 67.9116C141.988 68.2298 141.659 68.477 141.284 68.629Z" fill="white"/>
<path d="M146.625 67.0206C146.747 66.8613 146.892 66.7204 147.054 66.6024C147.213 66.4785 147.389 66.3788 147.577 66.3066C147.455 66.4652 147.311 66.6059 147.149 66.7248C146.99 66.8482 146.813 66.9479 146.625 67.0206Z" fill="white"/>
<path d="M152.507 70.3156C152.629 70.1562 152.773 70.0153 152.936 69.8974C153.095 69.7734 153.271 69.6738 153.459 69.6016C153.337 69.7601 153.192 69.9008 153.031 70.0198C152.871 70.1419 152.695 70.2415 152.507 70.3156Z" fill="white"/>
<path d="M148.968 75.2286C149.092 75.07 149.237 74.9293 149.4 74.8104C149.558 74.6851 149.734 74.5853 149.923 74.5146C149.8 74.6741 149.655 74.8149 149.491 74.9328C149.332 75.0568 149.156 75.1565 148.968 75.2286Z" fill="white"/>
<path opacity="0.1" d="M151.392 75.9325C154.068 74.2325 159.035 67.9833 161.109 64.4269C162.663 61.7579 162.643 59.2589 160.47 59.9457C159.28 62.0435 153.996 71.2303 151.392 75.9325Z" fill="black"/>
<path d="M139.937 67.0207C140.237 66.8745 143.055 65.9531 143.677 65.7661C144.3 65.5791 146.802 64.7903 147.455 64.6509C147.459 64.6526 147.463 64.6557 147.466 64.6596C147.468 64.6636 147.47 64.6682 147.47 64.673C147.47 64.6777 147.468 64.6824 147.466 64.6863C147.463 64.6903 147.459 64.6933 147.455 64.6951C146.843 64.9535 144.313 65.7559 143.688 65.9599C143.062 66.1639 140.26 67.0139 139.948 67.0649C139.92 67.0683 139.917 67.0309 139.937 67.0207Z" fill="#263238"/>
<path d="M153.5 82.6472C153.772 82.9872 172.955 84.184 173.06 84.0684C173.349 83.7624 168.871 62.6858 164.771 58.9594C163.89 58.1604 161.204 58.786 160.463 59.3742C159.997 59.7448 158.79 62.2778 157.944 64.3892C156.257 68.6188 153.259 82.348 153.5 82.6472Z" fill="#263238"/>
<path d="M160.956 58.5616C160.134 59.0376 159.219 61.8698 160.902 62.4614C162.585 63.053 164.506 60.5098 164.843 59.653C165.179 58.7962 162.728 57.5382 160.956 58.5616Z" fill="#AFA11E"/>
<path d="M161.072 62.0809C162.129 62.3427 163.962 60.7413 164.696 59.4391C164.744 59.3473 164.618 58.3987 164.516 57.2393C164.458 56.5355 164.407 55.7501 164.414 55.0293L159.889 56.0799C160.137 56.9834 160.273 57.9141 160.293 58.8509C160.293 58.9493 160.281 59.0473 160.259 59.1433C160.261 59.1603 160.261 59.1773 160.259 59.1943C160.157 59.7553 160.052 61.8259 161.072 62.0809Z" fill="#DD6A57"/>
<path d="M164.2 55.0801C164.05 55.9811 163.333 59.1941 160.718 59.2281C160.562 59.2289 160.407 59.2187 160.252 59.1975C160.25 59.1806 160.25 59.1634 160.252 59.1465C160.273 59.0503 160.284 58.9524 160.286 58.8541C160.262 57.9172 160.124 56.9867 159.875 56.0831L164.2 55.0801Z" fill="#263238"/>
<path d="M164.642 49.4091C165.237 50.9731 164.7 55.6481 163.622 56.7531C162.075 58.3545 159.386 58.6775 157.985 56.7803C156.625 54.9443 157.434 48.8651 158.641 47.8451C160.429 46.3423 163.765 47.0937 164.642 49.4091Z" fill="#DD6A57"/>
<path d="M160.415 52.5269C160.415 52.5269 160.439 52.5269 160.436 52.5575C160.392 52.8703 160.392 53.2375 160.667 53.3735C160.667 53.3735 160.667 53.3939 160.667 53.3905C160.32 53.3055 160.324 52.8193 160.415 52.5269Z" fill="#263238"/>
<path d="M160.732 52.2277C161.242 52.2481 161.17 53.2681 160.698 53.2477C160.225 53.2273 160.3 52.2141 160.732 52.2277Z" fill="#263238"/>
<path d="M158.644 52.4111C158.644 52.4111 158.621 52.4111 158.617 52.4383C158.617 52.7545 158.539 53.1183 158.247 53.1999V53.2203C158.6 53.1931 158.685 52.7001 158.644 52.4111Z" fill="#263238"/>
<path d="M158.386 52.0607C157.879 51.9893 157.77 53.0059 158.236 53.0807C158.702 53.1555 158.811 52.1253 158.386 52.0607Z" fill="#263238"/>
<path d="M161.167 51.7925C161.031 51.7449 160.912 51.6837 160.783 51.6259C160.639 51.5851 160.512 51.4979 160.423 51.3777C160.402 51.3349 160.395 51.2865 160.405 51.2399C160.414 51.1932 160.438 51.1508 160.474 51.1193C160.556 51.0715 160.65 51.0464 160.746 51.0464C160.841 51.0464 160.935 51.0715 161.018 51.1193C161.202 51.186 161.355 51.3195 161.446 51.4933C161.46 51.533 161.463 51.5758 161.454 51.6169C161.445 51.6581 161.425 51.6961 161.397 51.7269C161.368 51.7577 161.332 51.7801 161.291 51.7916C161.251 51.8032 161.208 51.8035 161.167 51.7925Z" fill="#263238"/>
<path d="M158.019 51.748C158.157 51.7299 158.294 51.705 158.43 51.6732C158.58 51.6652 158.723 51.6091 158.838 51.5134C158.867 51.4754 158.883 51.4287 158.883 51.3808C158.883 51.3328 158.867 51.2862 158.838 51.2482C158.771 51.1809 158.687 51.1329 158.595 51.1089C158.503 51.085 158.406 51.0861 158.315 51.1122C158.12 51.1349 157.94 51.2295 157.811 51.3774C157.784 51.4132 157.768 51.4564 157.764 51.5014C157.761 51.5465 157.771 51.5915 157.793 51.6309C157.815 51.6704 157.848 51.7024 157.888 51.7232C157.929 51.7441 157.974 51.7526 158.019 51.748Z" fill="#263238"/>
<path d="M160.735 55.5018C160.653 55.5698 160.572 55.665 160.456 55.6684C160.337 55.6572 160.222 55.6225 160.116 55.5664C160.157 55.6315 160.214 55.6845 160.283 55.7197C160.351 55.755 160.427 55.7713 160.504 55.767C160.569 55.7545 160.63 55.723 160.677 55.6765C160.725 55.6299 160.758 55.5704 160.772 55.5052C160.772 55.4984 160.749 55.4916 160.735 55.5018Z" fill="#263238"/>
<path d="M160.47 54.5324C160.381 54.6514 160.268 54.7508 160.139 54.8245C160.01 54.8982 159.867 54.9446 159.719 54.9608C159.59 54.9778 159.46 54.9778 159.331 54.9608H159.257L159.189 54.9438C159.172 54.9399 159.157 54.9304 159.146 54.9167C159.136 54.9031 159.13 54.8863 159.131 54.869C159.129 54.8589 159.129 54.8486 159.131 54.8384V54.8112C159.131 54.5664 159.192 54.1992 159.192 54.1992C159.1 54.2366 158.631 54.41 158.648 54.2842C158.753 53.1884 158.97 52.1062 159.294 51.0542C159.296 51.0482 159.3 51.043 159.305 51.0394C159.31 51.0357 159.316 51.0337 159.323 51.0337C159.329 51.0337 159.335 51.0357 159.341 51.0394C159.346 51.043 159.35 51.0482 159.352 51.0542C159.26 52.0742 158.991 53.0568 158.883 54.0734C159.049 54.0071 159.224 53.967 159.403 53.9544C159.437 53.9544 159.294 54.665 159.297 54.7738C159.495 54.8082 159.698 54.8024 159.894 54.7569C160.089 54.7113 160.274 54.6269 160.436 54.5086C160.467 54.4848 160.491 54.5086 160.47 54.5324Z" fill="#263238"/>
<path d="M159.515 54.8963C159.65 55.0668 159.826 55.1992 160.028 55.2805C160.139 55.315 160.257 55.315 160.368 55.2805C160.616 55.2125 160.62 54.9813 160.572 54.7841C160.544 54.6801 160.504 54.5797 160.453 54.4849C160.192 54.7184 159.863 54.8625 159.515 54.8963Z" fill="#263238"/>
<path d="M160.028 55.2806C160.139 55.3151 160.257 55.3151 160.368 55.2806C160.616 55.2126 160.619 54.9814 160.572 54.7842C160.438 54.7932 160.312 54.8473 160.213 54.9374C160.114 55.0276 160.049 55.1485 160.028 55.2806Z" fill="#F392B9"/>
<path d="M163.601 53.1046C163.601 53.1046 164.574 51.561 165.271 51.901C165.968 52.241 165.271 54.4476 164.499 54.7808C164.402 54.8307 164.296 54.8605 164.187 54.8683C164.078 54.8761 163.968 54.8618 163.865 54.8262C163.762 54.7907 163.667 54.7345 163.586 54.6613C163.505 54.588 163.44 54.4991 163.394 54.4L163.601 53.1046Z" fill="#DD6A57"/>
<path d="M165.06 52.5303C165.06 52.5303 165.06 52.5303 165.06 52.5507C164.81 52.69 164.592 52.8803 164.421 53.1094C164.249 53.3384 164.127 53.601 164.064 53.8801C164.093 53.8229 164.134 53.7728 164.184 53.733C164.235 53.6932 164.293 53.6648 164.355 53.6496C164.418 53.6344 164.483 53.6329 164.545 53.6451C164.608 53.6573 164.668 53.6829 164.72 53.7203C164.72 53.7203 164.72 53.7543 164.72 53.7509C164.621 53.724 164.515 53.7286 164.419 53.7639C164.322 53.7992 164.238 53.8635 164.18 53.9481C164.083 54.0906 164.002 54.2434 163.938 54.4037C163.914 54.4581 163.823 54.4343 163.84 54.3765C163.792 53.6591 164.299 52.6357 165.06 52.5303Z" fill="#263238"/>
<path d="M158.097 49.8849C159.623 50.8539 161.606 49.2355 161.606 49.2355C161.745 49.5598 161.987 49.8297 162.294 50.0045C162.6 50.1794 162.956 50.2496 163.306 50.2045C163.306 50.2045 163.687 52.7171 164.353 52.6899C165.373 52.6491 165.557 49.1947 165.213 48.5317C165.078 48.3203 164.901 48.1392 164.693 47.9999C164.485 47.8606 164.25 47.7662 164.003 47.7225C163.894 47.3164 163.635 46.9666 163.279 46.7433C162.568 46.2401 160.219 47.0357 160.219 47.0357C160.07 46.7215 159.85 46.4466 159.576 46.2333C159.51 46.1799 159.435 46.1403 159.353 46.117C159.272 46.0937 159.187 46.087 159.103 46.0975C159.019 46.108 158.938 46.1354 158.865 46.178C158.792 46.2206 158.729 46.2776 158.678 46.3455C158.812 46.5279 158.903 46.7384 158.944 46.9609C159.09 47.6953 158.484 47.7157 158.467 47.0459C158.452 46.7948 158.527 46.5465 158.678 46.3455C158.366 45.9205 157.872 45.7947 157.587 46.0395C157.036 46.4849 156.825 49.0791 158.097 49.8849Z" fill="#263238"/>
<path d="M166.529 60.6631C172.275 66.6437 180.652 81.7873 181.686 83.9599C182.39 85.4355 174.682 89.3217 174.356 88.2473C173.937 86.8873 167.215 69.9247 165.441 63.5293C164.455 60.0035 165.342 59.4255 166.529 60.6631Z" fill="#DD6A57"/>
<path d="M173.992 87.234C174.26 87.9684 175.175 91.0896 175.817 91.4772C176.46 91.8648 179.816 91.7832 181.509 91.7832C183.202 91.7832 183.549 91.3106 183.508 90.7258C183.467 90.141 179.928 90.0458 179.928 90.0458C179.928 90.0458 184.671 91.4058 185.864 91.6302C187.058 91.8546 189.809 92.5448 190.206 91.5554C190.383 91.11 189.632 90.6578 189.632 90.6578C189.632 90.6578 190.784 90.9978 190.968 90.4198C191.179 89.767 190.261 89.3998 190.261 89.3998C190.261 89.3998 190.981 89.5426 190.998 89.0122C191.036 87.8222 186.524 87.2374 186.524 87.2374C186.524 87.2374 189.978 88.9204 190.087 87.9514C190.244 86.5914 183.161 85.1362 182.424 84.5514C181.942 84.1452 181.542 83.6514 181.244 83.0962L173.992 87.234Z" fill="#DD6A57"/>
<path d="M183.481 91.0213C183.493 90.9386 183.485 90.8543 183.457 90.7755C183.429 90.6968 183.382 90.626 183.321 90.5691C183.199 90.4573 183.059 90.3665 182.906 90.3005C182.594 90.1673 182.269 90.0627 181.937 89.9877C181.257 89.8177 180.577 89.6987 179.897 89.5219C180.602 89.5115 181.304 89.5904 181.988 89.7565C182.338 89.8362 182.674 89.9643 182.988 90.1373C183.15 90.2269 183.291 90.3497 183.403 90.4977C183.46 90.5706 183.498 90.6573 183.511 90.7491C183.525 90.841 183.515 90.9348 183.481 91.0213Z" fill="#263238"/>
<path d="M189.632 90.6443C189.142 90.5253 188.663 90.3859 188.183 90.2499C187.704 90.1139 187.225 89.9609 186.745 89.8181L185.317 89.3693C184.841 89.2197 184.365 89.0735 183.882 88.9307C184.382 88.9832 184.878 89.0718 185.365 89.1959C185.854 89.3047 186.337 89.4475 186.817 89.5903C187.296 89.7331 187.772 89.8963 188.238 90.0765C188.704 90.2567 189.176 90.4403 189.632 90.6443Z" fill="#263238"/>
<path d="M185.028 87.7437C185.486 87.7735 185.94 87.8371 186.388 87.9341C186.841 88.0238 187.288 88.1373 187.728 88.2741C188.169 88.4109 188.601 88.5732 189.023 88.7602C189.447 88.9411 189.857 89.1524 190.251 89.3927C189.816 89.2397 189.391 89.073 188.955 88.9302C188.52 88.7874 188.092 88.6344 187.657 88.5018C187.221 88.3692 186.783 88.2367 186.344 88.1075C185.906 87.9783 185.46 87.8661 185.028 87.7437Z" fill="#263238"/>
<path d="M185.725 86.6118C187.218 86.7451 188.655 87.2424 189.91 88.0602C189.207 87.8086 188.527 87.5468 187.83 87.3122C187.133 87.0776 186.436 86.8396 185.725 86.6118Z" fill="#263238"/>
<path d="M165.512 65.1885C166.872 71.0501 173.39 87.0845 173.39 87.0845L179.245 84.2625L182.196 82.8379C182.196 82.8379 172.142 67.1299 168.035 61.9925C167.716 61.5981 167.427 61.2581 167.161 60.9725C164.615 58.2525 164.458 60.6665 165.512 65.1885Z" fill="#AFA11E"/>
<path d="M172.904 85.3402C176.348 83.3376 180.272 81.76 180.935 81.437C180.965 81.437 180.986 81.4744 180.955 81.488C180.275 81.7736 175.998 84.0618 172.924 85.3946C172.88 85.4082 172.88 85.3402 172.904 85.3402Z" fill="#263238"/>
<path d="M171.666 68.6323C171.693 68.832 171.693 69.0345 171.666 69.2341C171.641 69.4335 171.588 69.6283 171.506 69.8121C171.476 69.6138 171.476 69.412 171.506 69.2137C171.532 69.0133 171.585 68.8175 171.666 68.6323Z" fill="white"/>
<path d="M168.96 73.7803C168.987 73.9799 168.987 74.1824 168.96 74.3821C168.934 74.5814 168.881 74.7761 168.8 74.9601C168.769 74.7606 168.769 74.5577 168.8 74.3583C168.825 74.1589 168.878 73.9641 168.96 73.7803Z" fill="white"/>
<path d="M175.78 81.9097C175.808 82.1082 175.808 82.3095 175.78 82.5081C175.754 82.7086 175.699 82.9044 175.617 83.0895C175.59 82.8898 175.59 82.6873 175.617 82.4877C175.643 82.2881 175.698 82.0934 175.78 81.9097Z" fill="white"/>
<path d="M175.573 72.9946C175.604 73.1929 175.604 73.3947 175.573 73.593C175.548 73.7935 175.494 73.9892 175.413 74.1744C175.384 73.9749 175.384 73.7722 175.413 73.5726C175.438 73.3732 175.492 73.1785 175.573 72.9946Z" fill="white"/>
<path d="M177.64 76.7515C177.667 76.9511 177.667 77.1536 177.64 77.3533C177.615 77.5537 177.561 77.7495 177.48 77.9347C177.449 77.7352 177.449 77.5323 177.48 77.3329C177.505 77.1324 177.559 76.9367 177.64 76.7515Z" fill="white"/>
<path d="M168.46 63.0191C168.261 63.048 168.058 63.048 167.858 63.0191C167.659 62.9942 167.464 62.9404 167.28 62.8593C167.479 62.8321 167.68 62.8321 167.879 62.8593C168.079 62.8846 168.275 62.9384 168.46 63.0191Z" fill="white"/>
<path d="M168.402 68.8603C168.001 68.9047 167.595 68.8462 167.223 68.6903C167.422 68.6631 167.625 68.6631 167.824 68.6903C168.024 68.719 168.219 68.7762 168.402 68.8603Z" fill="white"/>
<path d="M173.71 71.9916C173.511 72.0188 173.31 72.0188 173.111 71.9916C172.911 71.9651 172.715 71.9102 172.53 71.8284C172.729 71.7994 172.932 71.7994 173.132 71.8284C173.331 71.8543 173.526 71.9093 173.71 71.9916Z" fill="white"/>
<path d="M179 83.8205C178.802 83.8477 178.6 83.8477 178.402 83.8205C178.202 83.7936 178.006 83.7399 177.82 83.6607C178.02 83.63 178.223 83.63 178.422 83.6607C178.622 83.6855 178.816 83.7394 179 83.8205Z" fill="white"/>
<path d="M173.475 84.0173C173.277 84.0445 173.075 84.0445 172.877 84.0173C172.676 83.992 172.481 83.9382 172.295 83.8575C172.495 83.8268 172.698 83.8268 172.897 83.8575C173.097 83.8823 173.291 83.9362 173.475 84.0173Z" fill="white"/>
<path d="M171.86 78.1695C171.66 78.1967 171.458 78.1967 171.258 78.1695C171.059 78.143 170.864 78.0881 170.68 78.0063C170.88 77.979 171.082 77.979 171.282 78.0063C171.481 78.0339 171.676 78.0888 171.86 78.1695Z" fill="white"/>
<path d="M177.109 79.7642C177.268 79.8881 177.409 80.0334 177.528 80.196C177.653 80.354 177.753 80.5307 177.823 80.7196C177.664 80.5965 177.523 80.4511 177.405 80.2878C177.281 80.1288 177.182 79.9523 177.109 79.7642Z" fill="white"/>
<path d="M169.303 71.4307C169.462 71.5534 169.603 71.6976 169.721 71.8591C169.844 72.0188 169.944 72.1951 170.017 72.3827C169.858 72.2608 169.717 72.1165 169.599 71.9543C169.474 71.7958 169.375 71.6192 169.303 71.4307Z" fill="white"/>
<path d="M166.512 64.8179C166.671 64.9409 166.812 65.0864 166.93 65.2497C167.054 65.4086 167.154 65.5851 167.226 65.7733C167.066 65.6502 166.925 65.5048 166.808 65.3415C166.682 65.1835 166.582 65.0068 166.512 64.8179Z" fill="white"/>
<path d="M174.58 75.7998C174.74 75.9216 174.882 76.0659 175.002 76.2282C175.123 76.3888 175.223 76.5649 175.297 76.7518C175.137 76.63 174.995 76.4857 174.876 76.3234C174.754 76.1633 174.654 75.9871 174.58 75.7998Z" fill="white"/>
<path d="M172.18 80.9541C172.339 81.078 172.481 81.2233 172.601 81.3859C172.724 81.5456 172.824 81.7218 172.897 81.9095C172.579 81.6588 172.332 81.3295 172.18 80.9541Z" fill="white"/>
<path d="M179.428 81.5153C179.679 81.1971 180.008 80.9498 180.384 80.7979C180.133 81.116 179.804 81.3633 179.428 81.5153Z" fill="white"/>
<path d="M174.58 85.7516C174.703 85.5922 174.849 85.4513 175.012 85.3334C175.17 85.2081 175.347 85.1083 175.535 85.0376C175.412 85.197 175.267 85.3379 175.104 85.4558C174.945 85.5797 174.768 85.6794 174.58 85.7516Z" fill="white"/>
<path d="M174.094 79.5944C174.344 79.2762 174.674 79.0289 175.049 78.877C174.925 79.0366 174.78 79.1785 174.617 79.2985C174.458 79.4214 174.281 79.521 174.094 79.5944Z" fill="white"/>
<path d="M169.235 66.878C169.357 66.7176 169.501 66.5757 169.664 66.4564C169.823 66.3336 170 66.234 170.187 66.1606C170.065 66.3218 169.92 66.4639 169.756 66.5822C169.597 66.7044 169.422 66.8039 169.235 66.878Z" fill="white"/>
<path d="M165.196 61.9991C165.318 61.8387 165.462 61.6967 165.625 61.5775C165.785 61.4554 165.961 61.3558 166.148 61.2817C166.027 61.4421 165.882 61.5841 165.72 61.7033C165.559 61.8248 165.383 61.9243 165.196 61.9991Z" fill="white"/>
<path d="M171.578 75.0856C171.7 74.926 171.845 74.7841 172.006 74.664C172.167 74.5425 172.343 74.443 172.53 74.3682C172.408 74.5286 172.264 74.6706 172.101 74.7898C171.941 74.9112 171.765 75.0107 171.578 75.0856Z" fill="white"/>
</svg>
