<svg width="202" height="200" viewBox="0 0 202 200" fill="none" xmlns="http://www.w3.org/2000/svg">
<path d="M203 152.254H0V152.356H203V152.254Z" fill="#EBEBEB"/>
<path d="M182.66 158.787H169.213V158.889H182.66V158.787Z" fill="#EBEBEB"/>
<path d="M134.475 159.891H130.947V159.993H134.475V159.891Z" fill="#EBEBEB"/>
<path d="M168.807 155.019H161.016V155.121H168.807V155.019Z" fill="#EBEBEB"/>
<path d="M38.834 155.701H21.2988V155.803H38.834V155.701Z" fill="#EBEBEB"/>
<path d="M45.0212 155.701H42.4512V155.803H45.0212V155.701Z" fill="#EBEBEB"/>
<path d="M91.411 157.415H53.377V157.516H91.411V157.415Z" fill="#EBEBEB"/>
<path d="M96.2219 134.147H17.8274C17.2132 134.146 16.6246 133.901 16.1908 133.466C15.7569 133.032 15.5132 132.443 15.5132 131.829V21.628C15.5185 21.0174 15.7646 20.4336 16.1979 20.0033C16.6312 19.5731 17.2167 19.3311 17.8274 19.3301H96.2219C96.8368 19.3301 97.4264 19.5743 97.8612 20.0091C98.2959 20.4438 98.5402 21.0335 98.5402 21.6483V131.829C98.5402 132.443 98.2959 133.033 97.8612 133.468C97.4264 133.903 96.8368 134.147 96.2219 134.147ZM17.8274 19.4113C17.2402 19.4124 16.6774 19.6464 16.2625 20.062C15.8477 20.4776 15.6147 21.0408 15.6147 21.628V131.829C15.6147 132.416 15.8477 132.979 16.2625 133.395C16.6774 133.81 17.2402 134.044 17.8274 134.045H96.2219C96.8095 134.044 97.3727 133.81 97.7882 133.395C98.2037 132.979 98.4376 132.416 98.4387 131.829V21.628C98.4376 21.0404 98.2037 20.4772 97.7882 20.0617C97.3727 19.6462 96.8095 19.4124 96.2219 19.4113H17.8274Z" fill="#EBEBEB"/>
<path d="M184.044 134.147H105.645C105.031 134.146 104.442 133.901 104.007 133.467C103.573 133.032 103.328 132.443 103.327 131.829V21.628C103.334 21.0171 103.581 20.4332 104.014 20.0031C104.448 19.5729 105.034 19.3311 105.645 19.3301H184.044C184.654 19.3322 185.238 19.5746 185.671 20.0047C186.103 20.4349 186.349 21.0181 186.354 21.628V131.829C186.354 132.442 186.111 133.03 185.678 133.465C185.245 133.9 184.657 134.145 184.044 134.147ZM105.645 19.4113C105.058 19.4124 104.495 19.6462 104.079 20.0617C103.664 20.4772 103.43 21.0404 103.429 21.628V131.829C103.43 132.416 103.664 132.979 104.079 133.395C104.495 133.81 105.058 134.044 105.645 134.045H184.044C184.632 134.044 185.195 133.81 185.61 133.395C186.026 132.979 186.26 132.416 186.261 131.829V21.628C186.26 21.0404 186.026 20.4772 185.61 20.0617C185.195 19.6462 184.632 19.4124 184.044 19.4113H105.645Z" fill="#EBEBEB"/>
<path d="M90.4122 71.5945H26.8569V152.072H90.4122V71.5945Z" fill="#F0F0F0"/>
<path d="M88.1629 74.5298H29.1021V91.7401H88.1629V74.5298Z" fill="#E0E0E0"/>
<path d="M32.4556 77.3149H29.1021V91.7361H32.4556V77.3149Z" fill="#EBEBEB"/>
<path d="M48.6792 77.3149H45.3257V91.7361H48.6792V77.3149Z" fill="#EBEBEB"/>
<path d="M67.0953 76.9489L63.7905 77.5186L66.2402 91.7301L69.545 91.1604L67.0953 76.9489Z" fill="#EBEBEB"/>
<path d="M36.6133 79.2151H33.2598V91.7361H36.6133V79.2151Z" fill="#EBEBEB"/>
<path d="M44.3228 79.2151H40.9692V91.7361H44.3228V79.2151Z" fill="#EBEBEB"/>
<path d="M63.7867 79.2151H60.4331V91.7361H63.7867V79.2151Z" fill="#EBEBEB"/>
<path d="M53.0852 78.7834L49.8115 79.511L52.528 91.7338L55.8017 91.0062L53.0852 78.7834Z" fill="#EBEBEB"/>
<path d="M39.5161 76.5964H37.8394V91.7362H39.5161V76.5964Z" fill="#EBEBEB"/>
<path d="M59.4707 76.5964H57.7939V91.7362H59.4707V76.5964Z" fill="#EBEBEB"/>
<path d="M29.1023 111.671L88.1631 111.671V94.4603H29.1023V111.671Z" fill="#E0E0E0"/>
<path d="M84.8095 111.671H88.1631V97.2495H84.8095V111.671Z" fill="#EBEBEB"/>
<path d="M68.5854 111.671H71.939V97.2495H68.5854V111.671Z" fill="#EBEBEB"/>
<path d="M47.7206 111.103L51.0254 111.673L53.475 97.4611L50.1702 96.8914L47.7206 111.103Z" fill="#EBEBEB"/>
<path d="M80.6479 111.671H84.0015V99.1496H80.6479V111.671Z" fill="#EBEBEB"/>
<path d="M72.9418 111.671H76.2954V99.1496H72.9418V111.671Z" fill="#EBEBEB"/>
<path d="M53.4741 111.671H56.8276V99.1496H53.4741V111.671Z" fill="#EBEBEB"/>
<path d="M61.468 110.94L64.7417 111.668L67.4581 99.4449L64.1845 98.7173L61.468 110.94Z" fill="#EBEBEB"/>
<path d="M77.749 111.671H79.4258V96.5309H77.749V111.671Z" fill="#EBEBEB"/>
<path d="M57.7939 111.671H59.4707V96.5309H57.7939V111.671Z" fill="#EBEBEB"/>
<path d="M32.4556 97.2495H29.1021V111.671H32.4556V97.2495Z" fill="#EBEBEB"/>
<path d="M36.6133 99.1497H33.2598V111.671H36.6133V99.1497Z" fill="#EBEBEB"/>
<path d="M44.3228 99.1497H40.9692V111.671H44.3228V99.1497Z" fill="#EBEBEB"/>
<path d="M39.5161 96.531H37.8394V111.671H39.5161V96.531Z" fill="#EBEBEB"/>
<path d="M88.1629 114.395H29.1021V131.605H88.1629V114.395Z" fill="#E0E0E0"/>
<path d="M66.3526 117.18H62.999V131.601H66.3526V117.18Z" fill="#EBEBEB"/>
<path d="M84.7721 116.817L81.4673 117.386L83.9169 131.598L87.2218 131.028L84.7721 116.817Z" fill="#EBEBEB"/>
<path d="M54.2862 119.084H50.9326V131.605H54.2862V119.084Z" fill="#EBEBEB"/>
<path d="M62 119.084H58.6465V131.605H62V119.084Z" fill="#EBEBEB"/>
<path d="M81.4639 119.084H78.1104V131.605H81.4639V119.084Z" fill="#EBEBEB"/>
<path d="M70.7654 118.651L67.4917 119.378L70.2081 131.601L73.4818 130.873L70.7654 118.651Z" fill="#EBEBEB"/>
<path d="M57.189 116.466H55.5122V131.605H57.189V116.466Z" fill="#EBEBEB"/>
<path d="M77.1441 116.466H75.4673V131.605H77.1441V116.466Z" fill="#EBEBEB"/>
<path d="M46.1745 116.82L42.8696 117.39L45.3193 131.602L48.6241 131.032L46.1745 116.82Z" fill="#EBEBEB"/>
<path d="M42.8653 119.084H39.5117V131.605H42.8653V119.084Z" fill="#EBEBEB"/>
<path d="M32.1648 118.653L28.8911 119.381L31.6076 131.603L34.8813 130.876L32.1648 118.653Z" fill="#EBEBEB"/>
<path d="M38.5454 116.466H36.8687V131.605H38.5454V116.466Z" fill="#EBEBEB"/>
<path d="M123.943 104.034H159.761C160.686 104.034 161.602 104.216 162.456 104.571C163.311 104.926 164.087 105.446 164.74 106.101C165.394 106.756 165.911 107.533 166.263 108.389C166.615 109.244 166.795 110.161 166.793 111.086V139.051H116.928V111.086C116.923 109.221 117.66 107.43 118.976 106.108C120.291 104.785 122.078 104.039 123.943 104.034Z" fill="#E6E6E6"/>
<path d="M106.323 124.764H112.73C113.281 124.762 113.827 124.869 114.336 125.078C114.846 125.288 115.309 125.596 115.699 125.985C116.089 126.374 116.398 126.836 116.609 127.345C116.82 127.854 116.929 128.399 116.928 128.95V152.092H102.142V128.95C102.141 128.401 102.249 127.856 102.459 127.349C102.669 126.841 102.977 126.379 103.365 125.99C103.753 125.602 104.215 125.293 104.722 125.083C105.23 124.872 105.774 124.764 106.323 124.764Z" fill="#E0E0E0"/>
<path d="M106.323 124.764H106.457C107.007 124.764 107.551 124.872 108.059 125.083C108.566 125.293 109.027 125.602 109.416 125.99C109.804 126.379 110.112 126.841 110.322 127.348C110.532 127.856 110.64 128.401 110.639 128.95V152.092H102.142V128.95C102.141 128.401 102.249 127.856 102.459 127.348C102.669 126.841 102.977 126.379 103.365 125.99C103.753 125.602 104.215 125.293 104.722 125.083C105.23 124.872 105.774 124.764 106.323 124.764Z" fill="#EBEBEB"/>
<path d="M161.576 141.447H112.425V152.072H161.576V141.447Z" fill="#E6E6E6"/>
<path d="M159.757 131.731H112.356C110.009 131.731 108.105 133.634 108.105 135.982V138.625C108.105 140.973 110.009 142.876 112.356 142.876H159.757C162.104 142.876 164.008 140.973 164.008 138.625V135.982C164.008 133.634 162.104 131.731 159.757 131.731Z" fill="#F5F5F5"/>
<path d="M159.676 131.731H153.801C151.453 131.731 149.55 133.634 149.55 135.982V138.625C149.55 140.973 151.453 142.876 153.801 142.876H159.676C162.024 142.876 163.927 140.973 163.927 138.625V135.982C163.927 133.634 162.024 131.731 159.676 131.731Z" fill="#E0E0E0"/>
<path d="M160.313 124.764H166.724C167.273 124.764 167.817 124.872 168.324 125.083C168.832 125.293 169.293 125.602 169.681 125.991C170.069 126.379 170.376 126.841 170.586 127.349C170.795 127.857 170.903 128.401 170.901 128.95V152.092H156.135V128.95C156.134 128.401 156.241 127.857 156.451 127.349C156.66 126.841 156.968 126.379 157.356 125.991C157.744 125.602 158.205 125.293 158.712 125.083C159.22 124.872 159.764 124.764 160.313 124.764Z" fill="#E0E0E0"/>
<path d="M160.313 124.764H160.451C161 124.764 161.544 124.872 162.052 125.083C162.559 125.293 163.02 125.602 163.408 125.991C163.796 126.379 164.104 126.841 164.313 127.349C164.523 127.857 164.63 128.401 164.629 128.95V152.092H156.135V128.95C156.134 128.401 156.241 127.857 156.451 127.349C156.66 126.841 156.968 126.379 157.356 125.991C157.744 125.602 158.205 125.293 158.712 125.083C159.22 124.872 159.764 124.764 160.313 124.764Z" fill="#F0F0F0"/>
<path d="M61.0037 61.8114C66.216 60.9653 69.7555 56.0539 68.9095 50.8416C68.0634 45.6293 63.1521 42.0897 57.9397 42.9358C52.7274 43.7819 49.1878 48.6932 50.0339 53.9055C50.88 59.1179 55.7913 62.6574 61.0037 61.8114Z" fill="#E0E0E0"/>
<path d="M60.7747 60.4007C65.2079 59.681 68.2184 55.5038 67.4988 51.0706C66.7792 46.6373 62.602 43.6268 58.1687 44.3464C53.7355 45.066 50.725 49.2433 51.4446 53.6765C52.1642 58.1098 56.3414 61.1203 60.7747 60.4007Z" fill="#F0F0F0"/>
<path d="M59.0854 57.9569V52.2729L55.3218 54.4044" fill="#F0F0F0"/>
<path d="M59.0853 58.363C58.9776 58.363 58.8744 58.3202 58.7982 58.2441C58.7221 58.1679 58.6793 58.0647 58.6793 57.957V52.9672L55.5206 54.7577C55.4269 54.8103 55.3162 54.8236 55.2127 54.7947C55.1092 54.7658 55.0213 54.697 54.9685 54.6034C54.9155 54.5102 54.9016 54.3998 54.9298 54.2964C54.9579 54.1929 55.0258 54.1048 55.1187 54.0513L58.8864 51.9198C58.9481 51.8851 59.0178 51.8671 59.0886 51.8677C59.1595 51.8683 59.2289 51.8874 59.29 51.9231C59.3512 51.9588 59.4019 52.0099 59.4372 52.0712C59.4725 52.1326 59.4912 52.2022 59.4913 52.273V57.957C59.4913 58.0647 59.4485 58.1679 59.3724 58.2441C59.2963 58.3202 59.193 58.363 59.0853 58.363Z" fill="#E0E0E0"/>
<path d="M174.016 40.3123H112.811V94.6229H174.016V40.3123Z" fill="#E6E6E6"/>
<path d="M172.404 41.8022H114.342V93.1653H172.404V41.8022Z" fill="#F0F0F0"/>
<path d="M127.967 41.8022L114.342 93.0516V68.9718L121.536 41.8022H127.967Z" fill="white"/>
<path d="M132.795 41.8022L119.047 93.1653H116.855L130.602 41.8022H132.795Z" fill="white"/>
<path d="M172.404 74.2131V82.4184L169.623 93.1652H167.43L172.404 74.2131Z" fill="white"/>
<path d="M134.593 40.8806H133.615V94.3143H134.593V40.8806Z" fill="#E6E6E6"/>
<path d="M153.549 40.8806H152.571V94.3143H153.549V40.8806Z" fill="#E6E6E6"/>
<path d="M101.5 170.589C144.976 170.589 180.219 168.532 180.219 165.993C180.219 163.455 144.976 161.397 101.5 161.397C58.0246 161.397 22.7808 163.455 22.7808 165.993C22.7808 168.532 58.0246 170.589 101.5 170.589Z" fill="#F5F5F5"/>
<path d="M163.172 155.839C163.172 155.839 165.1 151.633 162.895 147.484C160.691 143.335 160.053 142.36 161.458 141.508C162.863 140.655 163.509 144.829 163.509 144.829C164.203 142.944 164.274 140.886 163.712 138.958C162.737 135.958 162.124 131.069 163.456 130.546C164.787 130.022 163.712 136.636 164.873 138.901C165.462 137.315 165.842 135.66 166.005 133.976C166.164 131.565 165.916 127.716 166.968 126.729C168.019 125.743 168.697 126.425 167.662 131.743C167.04 134.923 166.696 138.151 166.635 141.39C166.635 141.39 168.92 134.411 170.459 134.208C171.998 134.005 171.994 136.262 170.678 138.223C169.363 140.184 166.826 143.696 166.411 145.503C166.411 145.503 168.925 140.249 171.182 141.849C173.439 143.448 169.217 146.627 167.333 147.776C165.449 148.925 164.142 156.103 164.142 156.103L163.172 155.839Z" fill="#AFA11E"/>
<path opacity="0.2" d="M163.172 155.839C163.172 155.839 165.1 151.633 162.895 147.484C160.691 143.335 160.053 142.36 161.458 141.508C162.863 140.655 163.509 144.829 163.509 144.829C164.203 142.944 164.274 140.886 163.712 138.958C162.737 135.958 162.124 131.069 163.456 130.546C164.787 130.022 163.712 136.636 164.873 138.901C165.462 137.315 165.842 135.66 166.005 133.976C166.164 131.565 165.916 127.716 166.968 126.729C168.019 125.743 168.697 126.425 167.662 131.743C167.04 134.923 166.696 138.151 166.635 141.39C166.635 141.39 168.92 134.411 170.459 134.208C171.998 134.005 171.994 136.262 170.678 138.223C169.363 140.184 166.826 143.696 166.411 145.503C166.411 145.503 168.925 140.249 171.182 141.849C173.439 143.448 169.217 146.627 167.333 147.776C165.449 148.925 164.142 156.103 164.142 156.103L163.172 155.839Z" fill="black"/>
<path d="M164.694 157.565C164.694 157.565 162.814 153.33 165.067 149.214C167.321 145.097 167.97 144.13 166.578 143.262C165.185 142.393 164.487 146.55 164.487 146.55C163.814 144.658 163.767 142.6 164.353 140.679C165.364 137.691 166.038 132.811 164.71 132.267C163.382 131.723 164.381 138.357 163.196 140.602C162.625 139.009 162.264 137.348 162.12 135.661C161.99 133.25 162.286 129.405 161.243 128.402C160.199 127.399 159.517 128.073 160.492 133.408C161.075 136.594 161.38 139.824 161.401 143.063C161.401 143.063 159.197 136.051 157.666 135.828C156.135 135.604 156.107 137.858 157.398 139.839C158.689 141.82 161.182 145.369 161.588 147.179C161.588 147.179 159.152 141.901 156.862 143.469C154.572 145.036 158.77 148.276 160.638 149.453C162.505 150.63 163.732 157.829 163.732 157.829L164.694 157.565Z" fill="#AFA11E"/>
<path d="M156.03 154.544H171.543L170.289 165.648H157.284L156.03 154.544Z" fill="#263238"/>
<path d="M98.4956 163.866V165.324C98.4956 165.367 98.4871 165.409 98.4706 165.449C98.4541 165.489 98.4298 165.526 98.3993 165.556C98.3688 165.587 98.3325 165.611 98.2926 165.627C98.2527 165.644 98.2099 165.652 98.1667 165.652H56.9902C56.639 165.652 56.2932 165.566 55.983 165.402C55.6728 165.237 55.4077 164.999 55.211 164.708C55.0142 164.417 54.8918 164.082 54.8545 163.733C54.8171 163.384 54.866 163.031 54.9968 162.705L68.0456 130.387L89.1332 130.529L88.4146 134.723L83.7619 161.864C83.7271 162.07 83.7375 162.281 83.7925 162.482C83.8474 162.684 83.9455 162.87 84.0799 163.03C84.2144 163.19 84.3819 163.318 84.571 163.406C84.7601 163.495 84.9661 163.541 85.1747 163.541H98.1667C98.2097 163.541 98.2524 163.549 98.2923 163.565C98.3322 163.581 98.3685 163.605 98.3991 163.635C98.4296 163.665 98.4539 163.701 98.4705 163.741C98.4871 163.78 98.4956 163.823 98.4956 163.866Z" fill="#263238"/>
<path opacity="0.5" d="M98.4956 163.866V165.324C98.4956 165.367 98.4871 165.409 98.4706 165.449C98.4541 165.489 98.4298 165.526 98.3993 165.556C98.3688 165.587 98.3325 165.611 98.2926 165.627C98.2527 165.644 98.2099 165.652 98.1667 165.652H56.9902C56.639 165.652 56.2932 165.566 55.983 165.402C55.6728 165.237 55.4077 164.999 55.211 164.708C55.0142 164.417 54.8918 164.082 54.8545 163.733C54.8171 163.384 54.866 163.031 54.9968 162.705L63.0884 142.669L68.0456 130.387L89.1332 130.529L88.4146 134.723L86.3846 146.526L83.7578 161.864C83.723 162.07 83.7335 162.281 83.7884 162.482C83.8433 162.684 83.9414 162.87 84.0759 163.03C84.2103 163.19 84.3779 163.318 84.567 163.406C84.756 163.495 84.962 163.541 85.1707 163.541H98.1627C98.206 163.54 98.2491 163.548 98.2895 163.564C98.3298 163.579 98.3666 163.603 98.3976 163.633C98.4286 163.664 98.4533 163.7 98.4701 163.74C98.487 163.78 98.4956 163.823 98.4956 163.866Z" fill="white"/>
<path opacity="0.2" d="M85.1747 163.537H58.3787C58.2243 163.537 58.0724 163.498 57.9363 163.425C57.8003 163.352 57.6842 163.247 57.5984 163.119C57.5126 162.99 57.4596 162.843 57.4442 162.689C57.4287 162.536 57.4513 162.381 57.5098 162.238L68.9509 134.719H88.4105L83.7577 161.86C83.7229 162.066 83.7334 162.278 83.7886 162.479C83.8438 162.681 83.9422 162.868 84.0771 163.028C84.212 163.187 84.3801 163.315 84.5697 163.403C84.7592 163.491 84.9657 163.537 85.1747 163.537Z" fill="black"/>
<path opacity="0.1" d="M89.1333 130.525L88.4147 134.719L86.3887 146.522L63.0884 142.669L68.0456 130.383L89.1333 130.525Z" fill="black"/>
<path d="M130.135 70.283H32.5125C32.1846 70.283 31.8599 70.3475 31.557 70.473C31.2541 70.5985 30.9788 70.7824 30.7469 71.0143C30.5151 71.2461 30.3312 71.5214 30.2057 71.8243C30.0802 72.1273 30.0156 72.452 30.0156 72.7799V138.873C30.0156 139.535 30.2787 140.17 30.7469 140.638C31.2152 141.106 31.8503 141.369 32.5125 141.369H130.135C130.798 141.369 131.433 141.107 131.902 140.638C132.371 140.17 132.635 139.535 132.636 138.873V72.7799C132.635 72.1173 132.371 71.4822 131.902 71.014C131.433 70.5459 130.798 70.283 130.135 70.283Z" fill="#263238"/>
<path opacity="0.6" d="M130.135 70.283H32.5125C32.1846 70.283 31.8599 70.3475 31.557 70.473C31.2541 70.5985 30.9788 70.7824 30.7469 71.0143C30.5151 71.2461 30.3312 71.5214 30.2057 71.8243C30.0802 72.1273 30.0156 72.452 30.0156 72.7799V138.873C30.0156 139.535 30.2787 140.17 30.7469 140.638C31.2152 141.106 31.8503 141.369 32.5125 141.369H130.135C130.798 141.369 131.433 141.107 131.902 140.638C132.371 140.17 132.635 139.535 132.636 138.873V72.7799C132.635 72.1173 132.371 71.4822 131.902 71.014C131.433 70.5459 130.798 70.283 130.135 70.283Z" fill="white"/>
<path opacity="0.2" d="M34.5831 141.365H32.5125C31.851 141.365 31.2165 141.103 30.7484 140.636C30.2802 140.168 30.0167 139.534 30.0156 138.873V72.784C30.0151 72.4557 30.0793 72.1306 30.2045 71.8272C30.3298 71.5238 30.5136 71.248 30.7455 71.0157C30.9774 70.7835 31.2529 70.5992 31.5561 70.4734C31.8593 70.3477 32.1843 70.283 32.5125 70.283H34.5831C34.2539 70.2814 33.9275 70.3449 33.6229 70.4699C33.3183 70.5949 33.0414 70.779 32.8082 71.0114C32.575 71.2439 32.3901 71.5202 32.2641 71.8244C32.1381 72.1286 32.0735 72.4547 32.074 72.784V138.873C32.074 139.201 32.1391 139.527 32.2653 139.83C32.3916 140.134 32.5767 140.409 32.8099 140.641C33.0431 140.873 33.3199 141.056 33.6242 141.18C33.9285 141.305 34.2544 141.368 34.5831 141.365Z" fill="black"/>
<path d="M130.387 72.4307H34.3394V136.16H130.387V72.4307Z" fill="#AFA11E"/>
<path opacity="0.4" d="M81.0375 96.6892C85.6431 96.6892 89.3767 92.9556 89.3767 88.35C89.3767 83.7443 85.6431 80.0107 81.0375 80.0107C76.4319 80.0107 72.6982 83.7443 72.6982 88.35C72.6982 92.9556 76.4319 96.6892 81.0375 96.6892Z" fill="white"/>
<path d="M79.0482 87.0833V86.32C79.0482 85.9561 79.1928 85.607 79.4501 85.3497C79.7075 85.0923 80.0565 84.9477 80.4205 84.9477H81.6385C81.82 84.9456 82.0002 84.9795 82.1686 85.0475C82.337 85.1155 82.4902 85.2162 82.6193 85.3439C82.7485 85.4715 82.851 85.6235 82.921 85.7911C82.991 85.9586 83.027 86.1384 83.027 86.32V87.0995H83.9161V86.32C83.9151 85.7206 83.6765 85.146 83.2526 84.7221C82.8287 84.2983 82.2541 84.0597 81.6547 84.0586H80.4367C79.8373 84.0597 79.2627 84.2983 78.8388 84.7221C78.415 85.146 78.1764 85.7206 78.1753 86.32V87.0995L79.0482 87.0833Z" fill="white"/>
<path d="M77.0386 88.1105V92.207C77.0386 92.2667 77.0503 92.3259 77.0732 92.381C77.096 92.4362 77.1295 92.4863 77.1718 92.5286C77.214 92.5708 77.2641 92.6043 77.3193 92.6271C77.3744 92.65 77.4336 92.6617 77.4933 92.6617H84.5821C84.6418 92.6617 84.7009 92.65 84.7561 92.6271C84.8112 92.6043 84.8614 92.5708 84.9036 92.5286C84.9458 92.4863 84.9793 92.4362 85.0022 92.381C85.025 92.3259 85.0368 92.2667 85.0368 92.207V88.1105C85.0368 87.9899 84.9889 87.8742 84.9036 87.7889C84.8183 87.7037 84.7027 87.6558 84.5821 87.6558H77.4933C77.4336 87.6558 77.3744 87.6675 77.3193 87.6904C77.2641 87.7132 77.214 87.7467 77.1718 87.7889C77.1295 87.8312 77.096 87.8813 77.0732 87.9365C77.0503 87.9916 77.0386 88.0508 77.0386 88.1105ZM81.2935 90.4287V91.2407H80.7941V90.4287C80.721 90.3881 80.6596 90.3294 80.6155 90.2584C80.5715 90.1874 80.5463 90.1062 80.5424 90.0227C80.5424 89.8881 80.5958 89.7591 80.691 89.6639C80.7862 89.5687 80.9153 89.5152 81.0499 89.5152C81.1845 89.5152 81.3135 89.5687 81.4087 89.6639C81.5039 89.7591 81.5574 89.8881 81.5574 90.0227C81.5522 90.1074 81.5252 90.1894 81.4789 90.2605C81.4327 90.3317 81.3688 90.3896 81.2935 90.4287Z" fill="white"/>
<path d="M60.6932 103.595H52.8168C52.3482 103.595 51.9683 103.975 51.9683 104.444V112.32C51.9683 112.789 52.3482 113.169 52.8168 113.169H60.6932C61.1618 113.169 61.5417 112.789 61.5417 112.32V104.444C61.5417 103.975 61.1618 103.595 60.6932 103.595Z" fill="white"/>
<path d="M72.8363 103.583H64.9599C64.4912 103.583 64.1113 103.963 64.1113 104.432V112.308C64.1113 112.777 64.4912 113.156 64.9599 113.156H72.8363C73.3049 113.156 73.6848 112.777 73.6848 112.308V104.432C73.6848 103.963 73.3049 103.583 72.8363 103.583Z" fill="white"/>
<path d="M84.9759 103.571H77.0995C76.6309 103.571 76.251 103.951 76.251 104.419V112.296C76.251 112.764 76.6309 113.144 77.0995 113.144H84.9759C85.4446 113.144 85.8245 112.764 85.8245 112.296V104.419C85.8245 103.951 85.4446 103.571 84.9759 103.571Z" fill="white"/>
<path d="M97.1151 103.555H89.2387C88.77 103.555 88.3901 103.935 88.3901 104.403V112.28C88.3901 112.748 88.77 113.128 89.2387 113.128H97.1151C97.5837 113.128 97.9636 112.748 97.9636 112.28V104.403C97.9636 103.935 97.5837 103.555 97.1151 103.555Z" fill="white"/>
<path d="M109.255 103.542H101.378C100.91 103.542 100.53 103.922 100.53 104.391V112.267C100.53 112.736 100.91 113.116 101.378 113.116H109.255C109.723 113.116 110.103 112.736 110.103 112.267V104.391C110.103 103.922 109.723 103.542 109.255 103.542Z" fill="white"/>
<path d="M103.209 108.516C103.209 106.831 104.111 105.873 105.321 105.873C106.531 105.873 107.428 106.831 107.428 108.516C107.428 110.201 106.526 111.159 105.321 111.159C104.115 111.159 103.209 110.201 103.209 108.516ZM106.689 108.516C106.689 107.193 106.125 106.531 105.321 106.531C104.517 106.531 103.948 107.193 103.948 108.516C103.948 109.84 104.509 110.501 105.321 110.501C106.133 110.501 106.689 109.836 106.689 108.516Z" fill="#263238"/>
<path d="M58.6793 108.451C58.6793 110.213 57.6805 111.159 56.2433 111.159C55.7947 111.175 55.3501 111.07 54.9562 110.855L55.2161 110.274C55.5176 110.448 55.8628 110.533 56.2108 110.518C57.2582 110.518 57.9241 109.86 57.9241 108.565V108.382C57.7508 108.609 57.524 108.789 57.264 108.907C57.004 109.024 56.7188 109.076 56.4341 109.056C55.4069 109.056 54.668 108.443 54.668 107.493C54.668 106.543 55.48 105.869 56.4909 105.869C57.8957 105.873 58.6793 106.803 58.6793 108.451ZM57.7698 107.469C57.7698 106.937 57.3638 106.47 56.5518 106.47C56.4097 106.453 56.2655 106.466 56.1288 106.508C55.9921 106.551 55.8659 106.622 55.7585 106.716C55.6512 106.811 55.5651 106.927 55.5059 107.058C55.4467 107.188 55.4157 107.329 55.415 107.473C55.415 108.082 55.8657 108.471 56.5924 108.471C57.3192 108.471 57.7698 108.037 57.7698 107.469Z" fill="#263238"/>
<path d="M66.7871 108.516C66.7871 106.831 67.6884 105.873 68.8983 105.873C70.1082 105.873 71.0054 106.831 71.0054 108.516C71.0054 110.201 70.1041 111.159 68.8983 111.159C67.6925 111.159 66.7871 110.201 66.7871 108.516ZM70.2665 108.516C70.2665 107.193 69.7062 106.531 68.8983 106.531C68.0904 106.531 67.526 107.193 67.526 108.516C67.526 109.84 68.0863 110.501 68.8983 110.501C69.7103 110.501 70.2665 109.84 70.2665 108.516Z" fill="#263238"/>
<path d="M82.9054 110.457V111.086H79.1905V110.599L81.2936 108.569C81.8417 108.037 81.9432 107.712 81.9432 107.387C81.9432 106.855 81.5697 106.531 80.843 106.531C80.5948 106.517 80.3468 106.56 80.118 106.657C79.8893 106.754 79.6859 106.903 79.5235 107.091L79.02 106.657C79.2575 106.394 79.5505 106.187 79.8777 106.052C80.2049 105.916 80.5582 105.855 80.912 105.873C81.9879 105.873 82.6821 106.425 82.6821 107.31C82.6821 107.814 82.536 108.264 81.8336 108.934L80.2543 110.453L82.9054 110.457Z" fill="#263238"/>
<path d="M93.7858 105.93V111.086H93.055V106.575H91.8857V105.93H93.7858Z" fill="#263238"/>
<g opacity="0.6">
<path d="M71.9552 101.257V101.439H70.5464V99.4458H71.9105V99.6285H70.7575V100.339H71.7847V100.53H70.7575V101.269L71.9552 101.257Z" fill="white"/>
<path d="M73.7821 100.57V101.439H73.5791V100.591C73.5912 100.528 73.5881 100.463 73.5702 100.401C73.5523 100.339 73.5201 100.283 73.4761 100.236C73.4321 100.189 73.3777 100.154 73.3172 100.132C73.2568 100.11 73.1921 100.103 73.1284 100.112C73.0569 100.107 72.9852 100.117 72.9182 100.143C72.8512 100.168 72.7907 100.208 72.7408 100.26C72.6909 100.311 72.6528 100.373 72.6293 100.441C72.6058 100.508 72.5974 100.58 72.6047 100.652V101.439H72.4058V99.9411H72.5966V100.217C72.6576 100.124 72.7424 100.048 72.8423 99.9981C72.9422 99.9481 73.0535 99.9256 73.165 99.933C73.2496 99.9258 73.3348 99.9375 73.4143 99.9673C73.4939 99.997 73.5658 100.044 73.6249 100.105C73.6839 100.166 73.7287 100.24 73.7559 100.32C73.7831 100.401 73.792 100.486 73.7821 100.57Z" fill="white"/>
<path d="M75.11 101.342C75.0207 101.414 74.9082 101.452 74.7934 101.448C74.7349 101.452 74.6761 101.445 74.621 101.424C74.5658 101.404 74.5157 101.373 74.474 101.331C74.4324 101.29 74.4001 101.24 74.3796 101.185C74.359 101.13 74.3506 101.072 74.3549 101.013V100.124H74.0869V99.9535H74.3549V99.6287H74.5579V99.9535H75.0126V100.124H74.5579V101.017C74.5579 101.196 74.6472 101.289 74.8137 101.289C74.8943 101.292 74.9734 101.266 75.037 101.216L75.11 101.342Z" fill="white"/>
<path d="M76.7339 100.753H75.4835C75.4929 100.9 75.5601 101.037 75.6704 101.135C75.7808 101.232 75.9252 101.282 76.0722 101.273C76.1582 101.276 76.2438 101.26 76.323 101.226C76.4022 101.192 76.4732 101.142 76.5309 101.078L76.6446 101.208C76.5339 101.312 76.3962 101.383 76.2472 101.412C76.0982 101.442 75.9439 101.429 75.8018 101.375C75.6597 101.322 75.5355 101.229 75.4433 101.108C75.3512 100.988 75.2947 100.843 75.2805 100.692C75.2748 100.593 75.2897 100.495 75.3241 100.402C75.3584 100.309 75.4116 100.224 75.4802 100.153C75.5488 100.082 75.6314 100.026 75.7227 99.9876C75.8141 99.9498 75.9123 99.9312 76.0113 99.933C76.1098 99.9311 76.2077 99.9497 76.2987 99.9876C76.3897 100.026 76.4718 100.082 76.5397 100.153C76.6077 100.225 76.6601 100.31 76.6935 100.402C76.7269 100.495 76.7407 100.594 76.7339 100.692C76.7339 100.692 76.7339 100.729 76.7339 100.753ZM75.4835 100.603H76.5431C76.5315 100.47 76.4707 100.347 76.3726 100.257C76.2745 100.167 76.1463 100.117 76.0133 100.117C75.8803 100.117 75.7521 100.167 75.654 100.257C75.5559 100.347 75.4951 100.47 75.4835 100.603Z" fill="white"/>
<path d="M77.8989 99.9331V100.124H77.8501C77.7788 100.12 77.7075 100.132 77.6413 100.159C77.5752 100.187 77.5159 100.228 77.4678 100.281C77.4196 100.334 77.3838 100.397 77.3628 100.465C77.3419 100.533 77.3364 100.605 77.3467 100.676V101.439H77.1396V99.9412H77.3345V100.234C77.3867 100.132 77.4688 100.049 77.5696 99.9949C77.6705 99.9412 77.7854 99.9196 77.8989 99.9331Z" fill="white"/>
<path d="M80.2865 99.9412L79.5394 101.618C79.4136 101.91 79.2552 102.004 79.0401 102.004C78.9736 102.006 78.9074 101.995 78.8454 101.971C78.7833 101.948 78.7266 101.912 78.6787 101.866L78.7721 101.715C78.8067 101.753 78.8489 101.782 78.8958 101.802C78.9427 101.821 78.9933 101.831 79.0441 101.829C79.1781 101.829 79.2674 101.768 79.3527 101.581L79.4176 101.435L78.764 99.9412H78.9751L79.5354 101.212L80.0997 99.9412H80.2865Z" fill="white"/>
<path d="M80.3876 100.692C80.3868 100.541 80.4309 100.393 80.5143 100.267C80.5977 100.141 80.7166 100.043 80.856 99.9843C80.9954 99.9259 81.149 99.9102 81.2973 99.9392C81.4456 99.9682 81.582 100.041 81.6892 100.147C81.7963 100.254 81.8694 100.39 81.8992 100.538C81.929 100.686 81.9141 100.84 81.8565 100.979C81.7988 101.119 81.701 101.239 81.5754 101.323C81.4498 101.407 81.302 101.452 81.1509 101.452C81.05 101.456 80.9493 101.439 80.8551 101.402C80.761 101.365 80.6755 101.31 80.6038 101.238C80.5322 101.167 80.476 101.082 80.4388 100.988C80.4016 100.894 80.3842 100.793 80.3876 100.692ZM81.7031 100.692C81.6983 100.583 81.6615 100.478 81.5974 100.39C81.5333 100.302 81.4446 100.234 81.3424 100.196C81.2402 100.158 81.129 100.15 81.0227 100.175C80.9163 100.199 80.8195 100.254 80.7443 100.333C80.6691 100.413 80.6189 100.512 80.5997 100.619C80.5806 100.727 80.5936 100.838 80.6369 100.938C80.6803 101.038 80.7521 101.123 80.8435 101.183C80.9349 101.242 81.0418 101.274 81.1509 101.273C81.2252 101.273 81.2986 101.257 81.3666 101.227C81.4347 101.197 81.4959 101.154 81.5464 101.099C81.597 101.045 81.636 100.981 81.6608 100.911C81.6856 100.841 81.6959 100.767 81.6909 100.692H81.7031Z" fill="white"/>
<path d="M83.6561 99.9412V101.439H83.4653V101.163C83.4097 101.256 83.3301 101.331 83.235 101.382C83.14 101.433 83.0329 101.457 82.9253 101.451C82.8395 101.46 82.7529 101.449 82.6718 101.42C82.5908 101.39 82.5173 101.343 82.457 101.281C82.3966 101.22 82.3508 101.146 82.3229 101.064C82.2951 100.982 82.2859 100.896 82.296 100.81V99.9412H82.4949V100.79C82.4829 100.853 82.4859 100.918 82.5038 100.979C82.5217 101.041 82.554 101.098 82.5979 101.144C82.6419 101.191 82.6964 101.227 82.7568 101.248C82.8172 101.27 82.8819 101.277 82.9456 101.269C83.0161 101.273 83.0867 101.261 83.1523 101.235C83.218 101.209 83.2771 101.169 83.3255 101.117C83.3738 101.066 83.4104 101.004 83.4324 100.937C83.4545 100.87 83.4615 100.799 83.4531 100.729V99.9412H83.6561Z" fill="white"/>
<path d="M84.9759 99.9331V100.124H84.9271C84.8558 100.12 84.7844 100.132 84.7183 100.159C84.6522 100.187 84.5929 100.228 84.5448 100.281C84.4966 100.334 84.4608 100.397 84.4398 100.465C84.4189 100.533 84.4134 100.605 84.4237 100.676V101.439H84.2207V99.9413H84.4156V100.234C84.4675 100.133 84.5489 100.05 84.649 99.9962C84.749 99.9425 84.863 99.9206 84.9759 99.9331Z" fill="white"/>
<path d="M85.9704 100.445C85.9631 100.236 86.0183 100.03 86.1289 99.8531C86.2394 99.6761 86.4004 99.5361 86.591 99.4512C86.7817 99.3663 86.9933 99.3403 87.1989 99.3765C87.4044 99.4127 87.5945 99.5094 87.7446 99.6544C87.8948 99.7993 87.9982 99.9858 88.0417 100.19C88.0852 100.394 88.0667 100.606 87.9886 100.8C87.9105 100.994 87.7764 101.159 87.6034 101.276C87.4304 101.393 87.2265 101.455 87.0178 101.456C86.8819 101.461 86.7463 101.439 86.6191 101.391C86.4919 101.342 86.3759 101.268 86.278 101.174C86.1801 101.08 86.1024 100.966 86.0495 100.841C85.9966 100.715 85.9697 100.581 85.9704 100.445ZM87.8501 100.445C87.855 100.277 87.8094 100.112 87.7194 99.971C87.6294 99.8298 87.499 99.7189 87.3453 99.6526C87.1915 99.5863 87.0213 99.5677 86.8569 99.5992C86.6924 99.6306 86.5411 99.7108 86.4227 99.8292C86.3043 99.9476 86.2242 100.099 86.1927 100.263C86.1612 100.428 86.1798 100.598 86.2461 100.752C86.3124 100.905 86.4233 101.036 86.5646 101.126C86.7058 101.216 86.8708 101.261 87.0381 101.257C87.2535 101.257 87.46 101.171 87.6123 101.019C87.7646 100.867 87.8501 100.66 87.8501 100.445Z" fill="white"/>
<path d="M88.8892 99.6285H88.1909V99.4458H89.8149V99.6285H89.1125V101.439H88.9014L88.8892 99.6285Z" fill="white"/>
<path d="M91.6949 100.124C91.6949 100.53 91.3864 100.802 90.8829 100.802H90.3511V101.431H90.1318V99.4377H90.8748C91.3864 99.4459 91.6949 99.7179 91.6949 100.124ZM91.4838 100.124C91.4838 99.8031 91.2727 99.6204 90.8748 99.6204H90.347V100.615H90.8748C91.2727 100.623 91.4838 100.445 91.4838 100.124Z" fill="white"/>
</g>
<g opacity="0.6">
<path d="M73.1411 118.349L73.2223 118.191C73.4045 118.349 73.6388 118.434 73.88 118.431C74.2495 118.431 74.4119 118.276 74.4119 118.077C74.4119 117.533 73.1939 117.866 73.1939 117.131C73.1939 116.839 73.4213 116.587 73.9247 116.587C74.143 116.584 74.3574 116.645 74.5418 116.762L74.4728 116.928C74.309 116.824 74.119 116.768 73.9247 116.766C73.5634 116.766 73.401 116.928 73.401 117.127C73.401 117.671 74.619 117.342 74.619 118.065C74.619 118.361 74.3875 118.609 73.88 118.609C73.6097 118.619 73.3456 118.526 73.1411 118.349Z" fill="white"/>
<path d="M76.3284 117.907H75.078C75.0874 118.054 75.1546 118.191 75.2649 118.288C75.3753 118.386 75.5197 118.435 75.6666 118.426C75.7527 118.429 75.8383 118.413 75.9175 118.38C75.9967 118.346 76.0677 118.295 76.1254 118.232L76.2391 118.361C76.1676 118.443 76.0787 118.508 75.979 118.551C75.8792 118.594 75.7711 118.614 75.6626 118.609C75.5596 118.615 75.4564 118.6 75.3597 118.564C75.2629 118.528 75.1747 118.473 75.1006 118.401C75.0265 118.329 74.9681 118.243 74.9293 118.147C74.8904 118.052 74.8719 117.949 74.875 117.846C74.8699 117.747 74.8852 117.649 74.9198 117.556C74.9544 117.464 75.0076 117.379 75.076 117.308C75.1445 117.237 75.2269 117.181 75.318 117.143C75.4091 117.104 75.507 117.085 75.6058 117.087C75.7047 117.084 75.803 117.102 75.8945 117.14C75.9859 117.178 76.0685 117.234 76.1369 117.306C76.2053 117.377 76.2581 117.462 76.2918 117.555C76.3254 117.648 76.3393 117.747 76.3325 117.846C76.3325 117.846 76.3284 117.886 76.3284 117.907ZM75.078 117.757H76.1376C76.126 117.624 76.0652 117.501 75.9671 117.411C75.869 117.321 75.7408 117.271 75.6078 117.271C75.4748 117.271 75.3466 117.321 75.2485 117.411C75.1504 117.501 75.0896 117.624 75.078 117.757Z" fill="white"/>
<path d="M78.127 117.724V118.593H77.928V117.744C77.9394 117.682 77.9358 117.617 77.9175 117.556C77.8993 117.495 77.8669 117.439 77.823 117.393C77.7791 117.347 77.725 117.311 77.6649 117.29C77.6049 117.268 77.5406 117.261 77.4774 117.269C77.4059 117.264 77.3341 117.275 77.2671 117.301C77.2002 117.326 77.1396 117.366 77.0897 117.417C77.0398 117.469 77.0017 117.531 76.9782 117.598C76.9547 117.666 76.9463 117.738 76.9536 117.809V118.593H76.7344V117.099H76.9293V117.375C76.9898 117.281 77.0743 117.204 77.1743 117.154C77.2742 117.103 77.3858 117.08 77.4977 117.087C77.5832 117.078 77.6698 117.088 77.7509 117.117C77.832 117.146 77.9055 117.193 77.9659 117.254C78.0264 117.315 78.0723 117.389 78.1002 117.471C78.1281 117.552 78.1372 117.639 78.127 117.724Z" fill="white"/>
<path d="M80.0474 116.482V118.593H79.8525V118.297C79.7931 118.395 79.7083 118.476 79.6069 118.531C79.5055 118.586 79.3913 118.613 79.276 118.609C79.0837 118.595 78.9039 118.509 78.7726 118.368C78.6413 118.226 78.5684 118.041 78.5684 117.848C78.5684 117.655 78.6413 117.469 78.7726 117.328C78.9039 117.187 79.0837 117.101 79.276 117.087C79.3883 117.083 79.4997 117.108 79.5993 117.16C79.6989 117.212 79.7834 117.289 79.8444 117.383V116.482H80.0474ZM79.8485 117.846C79.8437 117.737 79.8071 117.632 79.7431 117.544C79.6792 117.456 79.5907 117.388 79.4888 117.35C79.3868 117.311 79.2758 117.304 79.1696 117.328C79.0633 117.352 78.9665 117.407 78.8911 117.485C78.8158 117.564 78.7652 117.663 78.7456 117.77C78.726 117.878 78.7384 117.988 78.7811 118.088C78.8238 118.189 78.895 118.274 78.9859 118.334C79.0768 118.394 79.1833 118.426 79.2922 118.426C79.3677 118.428 79.4426 118.413 79.5123 118.384C79.582 118.355 79.6449 118.312 79.6971 118.258C79.7493 118.203 79.7897 118.138 79.8158 118.068C79.8418 117.997 79.8529 117.921 79.8485 117.846Z" fill="white"/>
<path d="M82.4831 117.667V118.593H82.2882V118.362C82.2318 118.445 82.1544 118.511 82.0638 118.555C81.9732 118.598 81.8727 118.617 81.7726 118.609C81.4356 118.609 81.2285 118.431 81.2285 118.171C81.2285 117.911 81.3747 117.765 81.805 117.765H82.2801V117.675C82.2858 117.621 82.2792 117.565 82.2609 117.513C82.2425 117.462 82.2128 117.414 82.1739 117.376C82.1349 117.337 82.0878 117.307 82.036 117.289C81.9841 117.27 81.9288 117.264 81.8741 117.269C81.6915 117.267 81.5141 117.33 81.3747 117.448L81.2854 117.298C81.4567 117.161 81.671 117.089 81.8903 117.095C81.9686 117.085 82.048 117.094 82.1228 117.119C82.1976 117.144 82.2658 117.186 82.3225 117.24C82.3793 117.295 82.4231 117.362 82.4509 117.436C82.4786 117.51 82.4896 117.589 82.4831 117.667ZM82.2801 118.142V117.899H81.8091C81.5208 117.899 81.4275 118.012 81.4275 118.167C81.4275 118.321 81.5655 118.447 81.805 118.447C81.9064 118.453 82.0072 118.427 82.0927 118.373C82.1781 118.318 82.2438 118.237 82.2801 118.142Z" fill="white"/>
<path d="M84.4196 117.099V118.394C84.4355 118.496 84.4272 118.6 84.3953 118.698C84.3634 118.796 84.3088 118.885 84.236 118.957C84.1632 119.03 84.0742 119.085 83.9763 119.117C83.8784 119.149 83.7743 119.157 83.6725 119.141C83.4201 119.151 83.1724 119.07 82.9742 118.914L83.0757 118.759C83.2421 118.894 83.4505 118.966 83.6644 118.962C84.0461 118.962 84.2166 118.792 84.2166 118.422V118.232C84.1524 118.325 84.0653 118.401 83.9637 118.451C83.8621 118.502 83.7493 118.525 83.636 118.52C83.5363 118.527 83.4361 118.514 83.3417 118.481C83.2473 118.448 83.1607 118.396 83.0874 118.328C83.0141 118.26 82.9556 118.177 82.9156 118.086C82.8756 117.994 82.855 117.895 82.855 117.795C82.855 117.695 82.8756 117.596 82.9156 117.504C82.9556 117.413 83.0141 117.33 83.0874 117.262C83.1607 117.194 83.2473 117.142 83.3417 117.109C83.4361 117.076 83.5363 117.063 83.636 117.07C83.7513 117.065 83.8662 117.089 83.9693 117.141C84.0725 117.193 84.1604 117.271 84.2247 117.367V117.083L84.4196 117.099ZM84.2247 117.809C84.2287 117.696 84.1989 117.584 84.1389 117.488C84.079 117.392 83.9917 117.316 83.8882 117.27C83.7848 117.224 83.6699 117.21 83.5584 117.229C83.4468 117.249 83.3436 117.301 83.2621 117.38C83.1806 117.458 83.1244 117.56 83.1008 117.67C83.0771 117.781 83.0871 117.897 83.1295 118.002C83.1719 118.107 83.2446 118.197 83.3385 118.26C83.4324 118.323 83.543 118.357 83.6563 118.357C83.7304 118.362 83.8046 118.351 83.8743 118.325C83.9439 118.3 84.0075 118.26 84.0609 118.208C84.1144 118.157 84.1565 118.095 84.1847 118.026C84.2129 117.957 84.2265 117.884 84.2247 117.809Z" fill="white"/>
<path d="M86.1129 117.667V118.593H85.9221V118.362C85.8654 118.444 85.788 118.511 85.6975 118.554C85.607 118.598 85.5066 118.617 85.4065 118.609C85.0655 118.609 84.8584 118.431 84.8584 118.171C84.8584 117.911 85.0086 117.765 85.439 117.765H85.9099V117.675C85.9099 117.42 85.7678 117.269 85.5039 117.269C85.3227 117.267 85.1468 117.331 85.0086 117.448L84.9152 117.298C85.0882 117.161 85.3037 117.089 85.5242 117.095C85.6023 117.086 85.6812 117.095 85.7555 117.12C85.8297 117.146 85.8974 117.187 85.9537 117.242C86.0099 117.297 86.0534 117.363 86.081 117.437C86.1085 117.51 86.1194 117.589 86.1129 117.667ZM85.9099 118.142V117.899H85.443C85.1507 117.899 85.0573 118.012 85.0573 118.167C85.0573 118.321 85.1994 118.447 85.439 118.447C85.5399 118.454 85.6403 118.428 85.7253 118.373C85.8102 118.318 85.875 118.237 85.9099 118.142Z" fill="white"/>
<path d="M86.6162 116.624C86.622 116.589 86.6401 116.557 86.6673 116.534C86.6944 116.511 86.7288 116.498 86.7644 116.498C86.8 116.498 86.8344 116.511 86.8615 116.534C86.8887 116.557 86.9068 116.589 86.9126 116.624C86.9068 116.659 86.8887 116.691 86.8615 116.714C86.8344 116.737 86.8 116.75 86.7644 116.75C86.7288 116.75 86.6944 116.737 86.6673 116.714C86.6401 116.691 86.622 116.659 86.6162 116.624ZM86.6609 117.099H86.8639V118.593H86.6609V117.099Z" fill="white"/>
<path d="M88.8005 117.724V118.593H88.6016V117.744C88.6129 117.682 88.6093 117.617 88.5911 117.556C88.5728 117.495 88.5405 117.439 88.4966 117.393C88.4527 117.346 88.3985 117.311 88.3385 117.29C88.2784 117.268 88.2142 117.261 88.1509 117.269C88.0794 117.264 88.0076 117.275 87.9407 117.3C87.8737 117.326 87.8131 117.366 87.7632 117.417C87.7133 117.469 87.6753 117.531 87.6518 117.598C87.6283 117.666 87.6199 117.738 87.6272 117.809V118.593H87.4282V117.099H87.619V117.375C87.6795 117.281 87.7641 117.204 87.8641 117.154C87.964 117.103 88.0756 117.08 88.1874 117.087C88.2718 117.08 88.3565 117.092 88.4355 117.122C88.5145 117.152 88.5859 117.2 88.6445 117.261C88.7032 117.322 88.7475 117.395 88.7745 117.475C88.8015 117.555 88.8104 117.64 88.8005 117.724Z" fill="white"/>
</g>
<path opacity="0.4" d="M92.3487 128.743H69.7223C68.8282 128.742 67.9711 128.386 67.3393 127.753C66.7074 127.121 66.3525 126.263 66.3525 125.369C66.3525 124.475 66.7074 123.617 67.3393 122.985C67.9711 122.352 68.8282 121.996 69.7223 121.995H92.3487C93.2435 121.995 94.1017 122.351 94.7344 122.983C95.3671 123.616 95.7226 124.474 95.7226 125.369C95.7226 126.264 95.3671 127.122 94.7344 127.755C94.1017 128.387 93.2435 128.743 92.3487 128.743Z" fill="white"/>
<path d="M72.211 125.199C72.2091 125.04 72.2397 124.884 72.3009 124.738C72.3621 124.592 72.4527 124.461 72.5669 124.351C72.6811 124.242 72.8166 124.157 72.9649 124.103C73.1132 124.048 73.2712 124.024 73.429 124.033C73.5903 124.028 73.751 124.056 73.9002 124.118C74.0494 124.18 74.1836 124.273 74.2938 124.391L74.0827 124.594C74.0011 124.506 73.9016 124.436 73.791 124.39C73.6803 124.344 73.5611 124.322 73.4412 124.326C73.297 124.327 73.1555 124.364 73.0291 124.434C72.9028 124.503 72.7956 124.603 72.7172 124.724C72.6388 124.844 72.5915 124.983 72.5796 125.127C72.5678 125.27 72.5917 125.415 72.6492 125.547C72.7067 125.679 72.7961 125.795 72.9093 125.884C73.0226 125.973 73.1561 126.033 73.2981 126.058C73.4401 126.083 73.586 126.073 73.7229 126.027C73.8598 125.982 73.9834 125.904 74.0827 125.799L74.2938 126.002C74.183 126.121 74.0481 126.214 73.8982 126.275C73.7483 126.337 73.5869 126.366 73.425 126.36C73.2677 126.369 73.1102 126.345 72.9624 126.291C72.8146 126.236 72.6796 126.152 72.5657 126.043C72.4519 125.934 72.3616 125.803 72.3006 125.658C72.2396 125.512 72.2091 125.356 72.211 125.199Z" fill="white"/>
<path d="M74.513 125.199C74.5017 124.956 74.5634 124.715 74.6901 124.507C74.8169 124.3 75.0029 124.135 75.2242 124.034C75.4455 123.933 75.692 123.9 75.9319 123.941C76.1718 123.981 76.3941 124.092 76.5702 124.26C76.7462 124.428 76.868 124.645 76.9198 124.883C76.9716 125.12 76.951 125.368 76.8607 125.594C76.7705 125.82 76.6146 126.013 76.4133 126.15C76.2119 126.286 75.9743 126.36 75.731 126.36C75.5737 126.368 75.4163 126.344 75.2686 126.29C75.1208 126.235 74.9858 126.151 74.8717 126.042C74.7577 125.933 74.667 125.802 74.6054 125.657C74.5437 125.512 74.5123 125.356 74.513 125.199ZM76.6039 125.199C76.6064 125.023 76.5564 124.85 76.4605 124.703C76.3645 124.556 76.2269 124.441 76.0652 124.372C75.9034 124.303 75.7249 124.284 75.5523 124.317C75.3797 124.35 75.2208 124.434 75.096 124.558C74.9712 124.681 74.886 124.84 74.8513 125.012C74.8166 125.184 74.834 125.363 74.9012 125.525C74.9685 125.688 75.0825 125.826 75.2289 125.923C75.3752 126.021 75.5472 126.072 75.7229 126.072C75.839 126.075 75.9546 126.056 76.0627 126.013C76.1709 125.971 76.2692 125.907 76.3517 125.825C76.4342 125.743 76.4991 125.646 76.5425 125.538C76.5859 125.43 76.6068 125.315 76.6039 125.199Z" fill="white"/>
<path d="M79.3812 124.078V126.351H79.1133L77.7491 124.654V126.351H77.4243V124.078H77.6923L79.0564 125.771V124.078H79.3812Z" fill="white"/>
<path d="M80.5139 124.342H79.7344V124.078H81.606V124.358H80.8346V126.351H80.5139V124.342Z" fill="white"/>
<path d="M81.9673 124.078H82.2921V126.351H81.9673V124.078Z" fill="white"/>
<path d="M84.931 124.078V126.351H84.6631L83.2989 124.654V126.351H82.9741V124.078H83.2299L84.5941 125.771V124.078H84.931Z" fill="white"/>
<path d="M85.5928 125.353V124.078H85.9176V125.357C85.9176 125.86 86.149 126.088 86.559 126.088C86.9691 126.088 87.2005 125.86 87.2005 125.357V124.078H87.5172V125.369C87.5172 125.624 87.4158 125.869 87.2354 126.049C87.0549 126.23 86.8102 126.331 86.555 126.331C86.2998 126.331 86.0551 126.23 85.8746 126.049C85.6941 125.869 85.5928 125.624 85.5928 125.369V125.353Z" fill="white"/>
<path d="M89.8315 126.051V126.335H88.1831V124.078H89.8071V124.358H88.5079V125.056H89.6447V125.332H88.5079V126.067L89.8315 126.051Z" fill="white"/>
<path opacity="0.1" d="M120.375 72.7271C107.095 86.0317 72.9865 115.645 34.3394 113.453V72.7271H120.375Z" fill="white"/>
<path opacity="0.1" d="M130.383 97.1806V136.461H72.5605C74.7773 128.528 79.2108 117.663 87.8099 109.901C103.279 95.9341 121.232 95.9747 130.383 97.1806Z" fill="white"/>
<path d="M142.6 66.4624L143.948 72.4144L145.295 66.4624H142.6Z" fill="#AFA11E"/>
<path opacity="0.7" d="M142.6 66.4624L143.948 72.4144L145.295 66.4624H142.6Z" fill="white"/>
<path d="M159.034 49.6094H128.864C126.938 49.6094 125.377 51.1708 125.377 53.0969V64.2944C125.377 66.2205 126.938 67.7819 128.864 67.7819H159.034C160.96 67.7819 162.522 66.2205 162.522 64.2944V53.0969C162.522 51.1708 160.96 49.6094 159.034 49.6094Z" fill="#AFA11E"/>
<path opacity="0.7" d="M159.034 49.6094H128.864C126.938 49.6094 125.377 51.1708 125.377 53.0969V64.2944C125.377 66.2205 126.938 67.7819 128.864 67.7819H159.034C160.96 67.7819 162.522 66.2205 162.522 64.2944V53.0969C162.522 51.1708 160.96 49.6094 159.034 49.6094Z" fill="white"/>
<g opacity="0.5">
<path d="M132.795 56.2759V57.0595H132.474V56.2759L131.573 54.7981H131.922L132.649 56.0161L133.379 54.7981H133.7L132.795 56.2759Z" fill="#263238"/>
<path d="M133.627 56.2028C133.624 56.0247 133.674 55.8496 133.771 55.7C133.867 55.5503 134.006 55.4328 134.17 55.3624C134.333 55.2919 134.514 55.2718 134.689 55.3046C134.865 55.3374 135.026 55.4215 135.153 55.5463C135.28 55.6712 135.367 55.831 135.403 56.0055C135.439 56.1799 135.422 56.3612 135.355 56.5261C135.288 56.691 135.173 56.8321 135.025 56.9314C134.877 57.0307 134.703 57.0838 134.525 57.0838C134.407 57.0895 134.289 57.0707 134.178 57.0286C134.068 56.9866 133.968 56.9221 133.883 56.8394C133.799 56.7567 133.733 56.6574 133.689 56.5479C133.645 56.4383 133.624 56.3208 133.627 56.2028ZM135.101 56.2028C135.108 56.1228 135.098 56.0422 135.072 55.9662C135.046 55.8902 135.004 55.8204 134.95 55.7613C134.896 55.7022 134.829 55.655 134.756 55.6227C134.682 55.5904 134.603 55.5737 134.523 55.5737C134.442 55.5737 134.363 55.5904 134.289 55.6227C134.216 55.655 134.15 55.7022 134.095 55.7613C134.041 55.8204 133.999 55.8902 133.973 55.9662C133.947 56.0422 133.937 56.1228 133.944 56.2028C133.937 56.2829 133.947 56.3634 133.973 56.4394C133.999 56.5154 134.041 56.5852 134.095 56.6443C134.15 56.7035 134.216 56.7507 134.289 56.7829C134.363 56.8152 134.442 56.8319 134.523 56.8319C134.603 56.8319 134.682 56.8152 134.756 56.7829C134.829 56.7507 134.896 56.7035 134.95 56.6443C135.004 56.5852 135.046 56.5154 135.072 56.4394C135.098 56.3634 135.108 56.2829 135.101 56.2028Z" fill="#263238"/>
<path d="M137.451 55.342V57.0635H137.159V56.8036C137.092 56.8941 137.003 56.9669 136.901 57.0157C136.799 57.0645 136.687 57.0878 136.574 57.0838C136.474 57.0941 136.372 57.0818 136.276 57.0476C136.181 57.0134 136.094 56.9582 136.023 56.8861C135.952 56.8141 135.898 56.7269 135.864 56.6312C135.831 56.5354 135.82 56.4334 135.831 56.3327V55.342H136.144V56.3002C136.144 56.6372 136.315 56.8036 136.611 56.8036C136.685 56.8085 136.76 56.7968 136.829 56.7694C136.898 56.742 136.961 56.6996 137.011 56.6452C137.062 56.5909 137.1 56.5259 137.123 56.455C137.146 56.3841 137.153 56.3091 137.143 56.2352V55.342H137.451Z" fill="#263238"/>
<path d="M138.974 55.3259V55.6304H138.901C138.825 55.6255 138.75 55.6375 138.679 55.6655C138.609 55.6935 138.545 55.7369 138.493 55.7925C138.442 55.8481 138.403 55.9145 138.38 55.9869C138.357 56.0592 138.351 56.1358 138.361 56.211V57.0676H138.041V55.3421H138.341V55.6345C138.406 55.5279 138.5 55.4422 138.613 55.3876C138.725 55.3329 138.85 55.3115 138.974 55.3259Z" fill="#263238"/>
<path d="M140.115 55.9268C140.104 55.6839 140.167 55.4435 140.294 55.2363C140.421 55.0292 140.608 54.8649 140.829 54.7646C141.051 54.6643 141.297 54.6325 141.537 54.6733C141.776 54.7142 141.998 54.8258 142.174 54.9939C142.349 55.1619 142.471 55.3787 142.522 55.6163C142.574 55.8539 142.553 56.1014 142.462 56.3271C142.372 56.5528 142.216 56.7462 142.015 56.8825C141.813 57.0188 141.576 57.0918 141.333 57.092C141.175 57.1009 141.017 57.0773 140.869 57.0226C140.721 56.9679 140.585 56.8833 140.471 56.774C140.357 56.6647 140.266 56.5331 140.205 56.3874C140.144 56.2416 140.113 56.0849 140.115 55.9268ZM142.206 55.9268C142.208 55.7511 142.158 55.5786 142.062 55.4314C141.966 55.2841 141.829 55.1688 141.667 55.1001C141.505 55.0313 141.327 55.0123 141.154 55.0454C140.982 55.0785 140.823 55.1622 140.698 55.2859C140.573 55.4096 140.488 55.5676 140.453 55.7399C140.418 55.9122 140.436 56.0909 140.503 56.2533C140.57 56.4156 140.684 56.5543 140.831 56.6516C140.977 56.7489 141.149 56.8005 141.325 56.7997C141.441 56.8036 141.557 56.7838 141.665 56.7414C141.773 56.699 141.871 56.635 141.954 56.5532C142.036 56.4715 142.101 56.3738 142.144 56.2661C142.188 56.1583 142.209 56.0429 142.206 55.9268Z" fill="#263238"/>
<path d="M143.448 55.058H142.669V54.7778H144.537V55.058H143.757V57.0474H143.436L143.448 55.058Z" fill="#263238"/>
<path d="M146.737 55.5856C146.737 56.0769 146.38 56.3773 145.787 56.3773H145.227V57.0635H144.902V54.7939H145.787C146.38 54.7939 146.737 55.0903 146.737 55.5856ZM146.412 55.5856C146.412 55.2608 146.193 55.0741 145.779 55.0741H145.227V56.0931H145.779C146.193 56.0931 146.412 55.9104 146.412 55.5856Z" fill="#263238"/>
<path d="M147.935 55.9266C147.945 55.6916 148.024 55.4649 148.161 55.2737C148.298 55.0825 148.488 54.9351 148.707 54.8492C148.926 54.7633 149.165 54.7427 149.395 54.7898C149.626 54.8369 149.837 54.9497 150.005 55.1146L149.794 55.3217C149.713 55.2333 149.613 55.1633 149.503 55.1164C149.392 55.0695 149.273 55.0467 149.153 55.0496C148.921 55.0496 148.699 55.1416 148.535 55.3053C148.372 55.469 148.28 55.691 148.28 55.9225C148.28 56.154 148.372 56.3761 148.535 56.5398C148.699 56.7035 148.921 56.7954 149.153 56.7954C149.273 56.7983 149.392 56.7756 149.503 56.7287C149.613 56.6818 149.713 56.6118 149.794 56.5234L150.005 56.7305C149.837 56.8954 149.626 57.0082 149.395 57.0553C149.165 57.1024 148.926 57.0817 148.707 56.9959C148.488 56.91 148.298 56.7626 148.161 56.5714C148.024 56.3802 147.945 56.1534 147.935 55.9185V55.9266Z" fill="#263238"/>
<path d="M150.192 56.2028C150.189 56.0247 150.238 55.8496 150.335 55.7C150.432 55.5503 150.571 55.4328 150.734 55.3624C150.898 55.2919 151.079 55.2718 151.254 55.3046C151.429 55.3374 151.59 55.4215 151.718 55.5463C151.845 55.6712 151.932 55.831 151.968 56.0055C152.004 56.1799 151.987 56.3612 151.919 56.5261C151.852 56.691 151.737 56.8321 151.589 56.9314C151.441 57.0307 151.267 57.0838 151.089 57.0838C150.971 57.0895 150.853 57.0707 150.743 57.0286C150.633 56.9866 150.532 56.9221 150.448 56.8394C150.364 56.7567 150.297 56.6574 150.253 56.5479C150.209 56.4383 150.188 56.3208 150.192 56.2028ZM151.666 56.2028C151.672 56.1228 151.662 56.0422 151.636 55.9662C151.61 55.8902 151.569 55.8204 151.514 55.7613C151.46 55.7022 151.394 55.655 151.32 55.6227C151.247 55.5904 151.167 55.5737 151.087 55.5737C151.007 55.5737 150.927 55.5904 150.854 55.6227C150.78 55.655 150.714 55.7022 150.66 55.7613C150.605 55.8204 150.564 55.8902 150.538 55.9662C150.512 56.0422 150.502 56.1228 150.508 56.2028C150.502 56.2829 150.512 56.3634 150.538 56.4394C150.564 56.5154 150.605 56.5852 150.66 56.6443C150.714 56.7035 150.78 56.7507 150.854 56.7829C150.927 56.8152 151.007 56.8319 151.087 56.8319C151.167 56.8319 151.247 56.8152 151.32 56.7829C151.394 56.7507 151.46 56.7035 151.514 56.6443C151.569 56.5852 151.61 56.5154 151.636 56.4394C151.662 56.3634 151.672 56.2829 151.666 56.2028Z" fill="#263238"/>
<path d="M154.037 54.6519V57.0594H153.74V56.7874C153.67 56.8821 153.577 56.9582 153.47 57.0091C153.363 57.06 153.246 57.0843 153.127 57.0797C152.905 57.0646 152.696 56.9654 152.543 56.8022C152.391 56.639 152.306 56.4241 152.306 56.2007C152.306 55.9774 152.391 55.7624 152.543 55.5993C152.696 55.4361 152.905 55.3369 153.127 55.3218C153.242 55.3183 153.356 55.3414 153.46 55.3893C153.564 55.4372 153.656 55.5086 153.728 55.5978V54.6519H154.037ZM153.728 56.1987C153.723 56.0851 153.684 55.9756 153.617 55.8839C153.549 55.7921 153.457 55.7222 153.35 55.6827C153.243 55.6432 153.127 55.6359 153.017 55.6617C152.906 55.6876 152.805 55.7454 152.727 55.828C152.649 55.9106 152.596 56.0144 152.577 56.1264C152.557 56.2385 152.57 56.3538 152.616 56.4582C152.661 56.5626 152.736 56.6513 152.831 56.7135C152.927 56.7756 153.038 56.8084 153.152 56.8077C153.23 56.8096 153.309 56.795 153.381 56.7649C153.454 56.7348 153.52 56.6898 153.574 56.6329C153.628 56.5759 153.67 56.5082 153.697 56.4341C153.723 56.3601 153.734 56.2813 153.728 56.2028V56.1987Z" fill="#263238"/>
<path d="M156.177 56.3082H154.784C154.803 56.4558 154.878 56.5902 154.994 56.6839C155.11 56.7776 155.257 56.8233 155.405 56.8117C155.498 56.815 155.59 56.7982 155.675 56.7624C155.761 56.7267 155.838 56.6729 155.9 56.6046L156.075 56.8035C155.948 56.9325 155.786 57.0218 155.609 57.0608C155.432 57.0997 155.248 57.0866 155.078 57.0231C154.909 56.9596 154.761 56.8483 154.653 56.7027C154.546 56.5571 154.482 56.3834 154.471 56.2027C154.467 56.0873 154.486 55.9723 154.528 55.8647C154.57 55.7571 154.633 55.6592 154.714 55.577C154.795 55.4948 154.892 55.4301 154.999 55.3869C155.106 55.3437 155.221 55.3228 155.336 55.3257C155.453 55.3199 155.569 55.3393 155.677 55.3825C155.786 55.4257 155.883 55.4917 155.964 55.5761C156.044 55.6605 156.106 55.7612 156.144 55.8714C156.182 55.9816 156.196 56.0988 156.185 56.2148C156.184 56.2461 156.181 56.2773 156.177 56.3082ZM154.784 56.0849H155.905C155.893 55.9472 155.83 55.8189 155.728 55.7254C155.626 55.6319 155.493 55.5801 155.354 55.5801C155.216 55.5801 155.083 55.6319 154.981 55.7254C154.879 55.8189 154.816 55.9472 154.804 56.0849H154.784Z" fill="#263238"/>
</g>
<g opacity="0.5">
<path d="M139.258 60.6198C139.258 61.8987 138.539 62.5808 137.488 62.5808C137.164 62.5923 136.843 62.5166 136.558 62.3616L136.761 61.9556C136.981 62.0806 137.231 62.1411 137.484 62.1302C138.243 62.1302 138.726 61.6551 138.726 60.7173V60.5874C138.601 60.752 138.436 60.883 138.248 60.9687C138.059 61.0545 137.853 61.0922 137.646 61.0786C137.486 61.0962 137.324 61.0801 137.171 61.0314C137.018 60.9826 136.876 60.9023 136.756 60.7956C136.635 60.6889 136.538 60.5582 136.471 60.4119C136.405 60.2655 136.369 60.1068 136.367 59.9459C136.371 59.7798 136.409 59.6162 136.478 59.4652C136.548 59.3143 136.647 59.1791 136.771 59.0681C136.894 58.957 137.039 58.8724 137.197 58.8195C137.354 58.7666 137.521 58.7465 137.687 58.7604C138.69 58.7522 139.258 59.4262 139.258 60.6198ZM138.596 59.9296C138.596 59.5439 138.288 59.207 137.703 59.207C137.601 59.1962 137.498 59.2069 137.4 59.2385C137.302 59.27 137.212 59.3217 137.136 59.3902C137.059 59.4587 136.998 59.5424 136.956 59.636C136.914 59.7296 136.891 59.831 136.891 59.9337C136.891 60.3722 137.216 60.6564 137.739 60.6564C137.844 60.667 137.949 60.6564 138.049 60.6253C138.15 60.5941 138.242 60.5431 138.322 60.4753C138.402 60.4074 138.468 60.3241 138.515 60.2304C138.562 60.1366 138.59 60.0343 138.596 59.9296Z" fill="#263238"/>
<path d="M139.77 60.6688C139.77 59.4508 140.423 58.7524 141.3 58.7524C142.177 58.7524 142.823 59.4508 142.823 60.6688C142.823 61.8868 142.169 62.581 141.3 62.581C140.431 62.581 139.77 61.8868 139.77 60.6688ZM142.287 60.6688C142.287 59.7106 141.881 59.2315 141.3 59.2315C140.72 59.2315 140.305 59.7106 140.305 60.6688C140.305 61.6269 140.711 62.106 141.3 62.106C141.889 62.106 142.287 61.6269 142.287 60.6688Z" fill="#263238"/>
<path d="M145.953 62.0736V62.5405H143.261V62.1751L144.788 60.7054C145.194 60.3197 145.255 60.0842 145.255 59.8488C145.255 59.4671 144.983 59.2316 144.443 59.2316C144.263 59.2211 144.083 59.2522 143.918 59.3227C143.752 59.3931 143.605 59.5009 143.488 59.6376L143.123 59.321C143.295 59.1308 143.507 58.9811 143.743 58.8828C143.98 58.7845 144.235 58.74 144.491 58.7526C145.271 58.7526 145.774 59.1586 145.774 59.796C145.768 60.0259 145.71 60.2514 145.604 60.4554C145.497 60.6594 145.346 60.8366 145.161 60.9734L144.016 62.0736H145.953Z" fill="#263238"/>
<path d="M147.552 58.7971V62.5404H147.02V59.264H146.16V58.7971H147.552Z" fill="#263238"/>
<path d="M148.369 60.6688C148.369 59.4508 149.022 58.7524 149.899 58.7524C150.776 58.7524 151.422 59.4508 151.422 60.6688C151.422 61.8868 150.772 62.581 149.899 62.581C149.026 62.581 148.369 61.8868 148.369 60.6688ZM150.89 60.6688C150.89 59.7106 150.484 59.2315 149.899 59.2315C149.315 59.2315 148.905 59.7106 148.905 60.6688C148.905 61.6269 149.311 62.106 149.899 62.106C150.488 62.106 150.89 61.6269 150.89 60.6688Z" fill="#263238"/>
</g>
<path d="M140.61 83.9205C143.034 85.5977 145.745 86.8156 148.608 87.5136H148.637C148.422 87.5075 148.211 87.567 148.032 87.6841C147.855 87.7945 147.714 87.9539 147.626 88.1429C147.596 88.2009 147.579 88.2646 147.577 88.3297C147.642 87.4771 147.272 86.5189 147.013 85.5973C146.546 84.1398 145.998 82.6457 145.45 81.18L147.017 80.3396C148.312 82.3249 152.636 88.6098 149.684 90.4287C149.178 90.7238 148.58 90.8194 148.007 90.6967C144.791 90.2203 141.724 89.0239 139.035 87.1969C138.848 87.067 138.686 86.9533 138.466 86.7909L140.618 83.9124L140.61 83.9205Z" fill="#DC897C"/>
<path d="M140.155 83.4781C141.577 83.6495 142.927 84.1975 144.065 85.0656L142.441 90.0918C142.441 90.0918 134.548 82.8163 140.155 83.4781Z" fill="#AFA11E"/>
<path opacity="0.6" d="M140.139 87.7046C140.862 88.532 141.626 89.322 142.429 90.0715L143.099 88.005L144.065 85.0453C142.928 84.1779 141.58 83.6299 140.16 83.4578C136.709 83.0721 138.357 85.6543 140.139 87.7046Z" fill="white"/>
<path opacity="0.2" d="M140.139 87.7046C140.862 88.532 141.626 89.322 142.429 90.0715L143.099 88.005C142.256 87.3486 141.219 86.9915 140.151 86.99C140.127 87.2274 140.123 87.4665 140.139 87.7046Z" fill="black"/>
<path d="M122.612 76.0442C122.612 76.0442 118.836 88.5977 126.79 90.2826C134.743 91.9675 135.604 86.1901 135.604 86.1901C135.604 86.1901 129.067 76.3 122.612 76.0442Z" fill="#263238"/>
<path d="M120.749 80.2017C120.734 80.2059 120.719 80.2059 120.704 80.2017C120.693 80.1961 120.682 80.1883 120.674 80.1786C120.666 80.1689 120.659 80.1577 120.656 80.1455C120.652 80.1333 120.651 80.1205 120.652 80.1078C120.653 80.0951 120.657 80.0829 120.663 80.0718C120.782 79.8551 120.95 79.669 121.152 79.5281C121.355 79.3872 121.588 79.2954 121.833 79.2598C121.858 79.2606 121.882 79.2704 121.901 79.2876C121.919 79.3047 121.931 79.328 121.934 79.3531C121.935 79.3659 121.934 79.3788 121.93 79.3911C121.926 79.4033 121.92 79.4147 121.912 79.4245C121.903 79.4343 121.893 79.4424 121.882 79.4483C121.87 79.4541 121.858 79.4577 121.845 79.4587C121.633 79.4933 121.432 79.5756 121.257 79.6994C121.082 79.8232 120.937 79.9852 120.834 80.1733C120.824 80.1851 120.81 80.194 120.795 80.199C120.78 80.204 120.764 80.2049 120.749 80.2017Z" fill="#263238"/>
<path d="M121.885 81.7607C121.835 82.2501 121.724 82.7313 121.557 83.1939C121.682 83.269 121.826 83.3087 121.973 83.3087C122.119 83.3087 122.263 83.269 122.389 83.1939L121.885 81.7607Z" fill="#DE5753"/>
<path d="M121.118 81.2125C121.203 81.4358 121.394 81.5698 121.524 81.513C121.654 81.4561 121.727 81.2328 121.642 81.0095C121.556 80.7862 121.366 80.6523 121.236 80.7091C121.106 80.7659 121.037 80.9892 121.118 81.2125Z" fill="#263238"/>
<path d="M121.301 80.697H120.745C120.745 80.697 121.143 81.0056 121.301 80.697Z" fill="#263238"/>
<path d="M129.201 83.3196C129.187 83.356 129.168 83.3902 129.145 83.4211C129.108 83.4901 129.067 83.5551 129.027 83.6241C128.789 84.052 128.472 84.4308 128.093 84.7406C126.875 85.711 125.815 86.0033 124.894 85.7231L124.76 85.6785C123.392 85.1223 122.324 83.4861 121.475 81.3221C121.099 80.4753 120.861 79.5731 120.773 78.6506C120.773 78.6506 120.773 78.6181 120.773 78.61C120.773 78.6019 120.773 78.5369 120.773 78.5045C120.741 77.9757 120.842 77.4475 121.066 76.9675C121.29 76.4875 121.63 76.0711 122.056 75.7558C122.42 75.4702 122.815 75.2264 123.233 75.0291C127.289 73.0519 131.235 79.491 129.201 83.3196Z" fill="#E4897B"/>
<path opacity="0.2" d="M129.027 83.6243C128.789 84.0521 128.472 84.4309 128.093 84.7408C126.875 85.7111 125.816 86.0034 124.894 85.7233C125.79 85.5061 126.597 85.0168 127.204 84.3226C127.438 84.0799 127.723 83.8917 128.038 83.771C128.353 83.6504 128.691 83.6003 129.027 83.6243Z" fill="black"/>
<path d="M120.752 78.6265C120.752 78.6265 121.885 81.6065 125.194 81.5537C125.194 81.5537 127.776 83.9897 129.518 83.2143C131.893 82.1627 132.38 77.8429 129.961 74.8263C126.818 70.9125 119.965 73.7342 120.752 78.6265Z" fill="#263238"/>
<path d="M123.424 81.3831C123.213 80.9325 123.217 80.0109 123.96 79.7835C124.703 79.5561 125.99 81.1355 124.39 82.3697C124.163 82.5484 123.862 82.3169 123.424 81.3831Z" fill="#E4897B"/>
<path d="M124.313 73.2021C124.313 73.2021 121.244 73.8071 120.253 75.6381C119.092 77.7656 119.035 79.4139 122.121 80.5101C122.121 80.5101 126.023 76.8561 127.703 76.4501C128.683 76.2071 129.681 76.0468 130.688 75.9711C129.567 72.7271 125.552 71.8583 124.313 73.2021Z" fill="#263238"/>
<path d="M127.289 84.8179C127.289 84.8179 129.4 86.2795 129.949 88.6912L136.53 84.8504C136.53 84.8504 131.378 83.6771 130.493 81.6836C130.493 81.6836 127.05 82.1099 127.289 84.8179Z" fill="#E4897B"/>
<path d="M133.826 100.632C133.826 100.632 125.3 92.2558 124.382 89.625C124.382 89.625 127.967 84.0425 135.133 83.807C142.299 83.5715 147.175 97.205 147.175 97.205L133.826 100.632Z" fill="#AFA11E"/>
<path opacity="0.6" d="M147.175 97.209L133.83 100.636C133.83 100.636 131.97 98.8046 129.892 96.5756C129.25 95.8814 128.58 95.1506 127.935 94.4279C126.242 92.5075 124.748 90.6318 124.386 89.6127C124.386 89.6127 127.967 84.0302 135.133 83.7948C142.299 83.5593 147.175 97.209 147.175 97.209Z" fill="white"/>
<path d="M125.86 80.1245C125.86 80.1245 127.107 84.2657 131.483 85.638C135.86 87.0103 134.76 91.4803 139.002 90.9525C141.26 90.6724 143.192 86.0805 136.27 82.0205C132.234 79.6617 133.801 71.9071 125.235 72.6338C125.227 72.6379 127.005 77.9524 125.86 80.1245Z" fill="#263238"/>
<path d="M130.111 163.757L128.081 163.294C128.386 153.144 129.851 140.87 131.146 131.65C131.349 130.205 131.552 128.841 131.739 127.566C131.832 126.961 131.918 126.38 132.003 125.82C132.409 123.055 132.783 120.871 133.006 119.519C133.172 118.532 133.266 117.992 133.266 117.992L140.574 119.775L140.05 121.618L138.324 127.708L138.13 128.402L136.985 132.417L135.044 139.25C135.166 149.567 130.111 163.757 130.111 163.757Z" fill="#E4897B"/>
<path d="M147.488 162.059L145.409 161.954C143.826 151.04 143.16 137.391 142.872 127.902C142.831 126.433 142.794 125.06 142.766 123.81C142.766 123.749 142.766 123.688 142.766 123.627C142.713 121.155 142.689 119.19 142.677 117.943C142.677 116.969 142.677 116.437 142.677 116.437L150.176 116.928L149.855 120.054L149.384 124.642L149.29 125.544L148.966 128.67L148.089 137.07C150.005 147.22 147.488 162.059 147.488 162.059Z" fill="#E4897B"/>
<path d="M148.267 161.653C148.267 161.393 145.06 161.596 145.06 161.596C145.06 161.596 143.091 163.598 141.178 164.032C139.266 164.467 140.338 165.632 142.473 165.632H147.751C149.278 165.648 148.328 164.353 148.267 161.653Z" fill="#263238"/>
<path d="M143.095 162.34C143.049 162.298 143.016 162.242 143.003 162.181C142.989 162.12 142.994 162.056 143.018 161.999C143.031 161.953 143.052 161.911 143.081 161.874C143.111 161.837 143.147 161.806 143.188 161.783C143.416 161.691 143.665 161.662 143.907 161.702C143.647 161.564 143.42 161.398 143.408 161.227C143.408 161.118 143.473 161.028 143.619 160.959C143.683 160.93 143.752 160.915 143.822 160.915C143.892 160.915 143.961 160.93 144.025 160.959C144.459 161.142 144.727 161.889 144.739 161.917C144.748 161.938 144.748 161.961 144.739 161.982V162.003C144.732 162.012 144.722 162.019 144.711 162.023C144.297 162.235 143.849 162.372 143.387 162.429C143.282 162.436 143.178 162.404 143.095 162.34ZM143.274 161.934C143.252 161.945 143.232 161.96 143.216 161.979C143.2 161.998 143.188 162.02 143.18 162.043C143.148 162.169 143.18 162.202 143.18 162.214C143.335 162.34 143.919 162.161 144.398 161.962C144.034 161.847 143.644 161.836 143.274 161.93V161.934ZM143.68 161.122C143.635 161.122 143.562 161.182 143.566 161.227C143.566 161.369 144.033 161.633 144.504 161.8C144.399 161.518 144.207 161.278 143.956 161.113C143.915 161.094 143.871 161.085 143.826 161.085C143.78 161.085 143.734 161.095 143.692 161.113L143.68 161.122Z" fill="#263238"/>
<path d="M131.138 161.653C131.138 161.393 127.935 161.596 127.935 161.596C127.935 161.596 125.966 163.598 124.054 164.032C122.141 164.467 123.209 165.632 125.345 165.632H130.623C132.153 165.648 131.207 164.353 131.138 161.653Z" fill="#263238"/>
<path d="M125.97 162.34C125.924 162.297 125.893 162.242 125.879 162.181C125.865 162.12 125.87 162.057 125.892 161.999C125.905 161.953 125.927 161.911 125.956 161.874C125.985 161.837 126.022 161.806 126.063 161.783C126.29 161.691 126.539 161.663 126.782 161.702C126.522 161.564 126.294 161.398 126.286 161.227C126.286 161.119 126.355 161.03 126.493 160.959C126.557 160.93 126.626 160.915 126.696 160.915C126.766 160.915 126.835 160.93 126.899 160.959C127.334 161.142 127.602 161.889 127.614 161.917C127.619 161.927 127.621 161.939 127.621 161.95C127.621 161.961 127.619 161.972 127.614 161.982C127.614 161.982 127.614 161.982 127.614 162.003L127.585 162.023C127.17 162.234 126.721 162.372 126.258 162.429C126.154 162.434 126.052 162.403 125.97 162.34ZM126.148 161.934C126.127 161.945 126.108 161.96 126.092 161.979C126.077 161.998 126.065 162.02 126.059 162.043C126.026 162.169 126.059 162.202 126.079 162.214C126.229 162.34 126.814 162.161 127.297 161.962C126.925 161.842 126.526 161.831 126.148 161.93V161.934ZM126.554 161.122C126.509 161.122 126.436 161.182 126.44 161.227C126.44 161.369 126.907 161.633 127.382 161.8C127.276 161.518 127.083 161.278 126.83 161.113C126.79 161.094 126.745 161.084 126.7 161.085C126.654 161.085 126.608 161.095 126.566 161.113L126.554 161.122Z" fill="#263238"/>
<path d="M132.096 121.045L133.826 108.865V100.623C138.385 97.1968 147.175 97.1968 147.175 97.1968C147.175 97.1968 153.927 106.563 150.646 121.963L142.169 123.181L141.629 120.306L140.565 123.181L132.096 121.045Z" fill="#263238"/>
<path opacity="0.2" d="M132.096 121.045L133.826 108.865V100.623C138.385 97.1968 147.175 97.1968 147.175 97.1968C147.175 97.1968 153.927 106.563 150.646 121.963L142.169 123.181L141.629 120.306L140.565 123.181L132.096 121.045Z" fill="white"/>
<path opacity="0.2" d="M141.629 120.351L143.253 115.28C143.253 115.28 144.966 114.76 147.167 111.358C147.175 111.358 146.793 117.148 141.629 120.351Z" fill="black"/>
<path opacity="0.2" d="M138.016 102.966L141.82 102.605C142.427 104.027 142.637 105.587 142.429 107.119L139.993 108.585L138.227 107.331C138.227 107.331 138.17 104.111 138.016 102.966Z" fill="black"/>
<path opacity="0.2" d="M147.175 102.036C147.686 103.291 148.063 104.596 148.3 105.93L149.648 106.502L150.375 105.597C150.375 105.597 149.883 102.946 149.051 101.646L147.175 102.036Z" fill="black"/>
<path d="M131.938 120.351L140.935 122.99L140.371 124.2L131.824 121.569L131.938 120.351Z" fill="#263238"/>
<path d="M141.82 122.815L141.97 123.928L150.792 122.815L150.926 121.415L141.82 122.815Z" fill="#263238"/>
<path d="M143.671 98.906C145.114 98.6623 146.573 98.5198 148.036 98.4797L147.492 97.5824C146.069 97.5448 144.645 97.6291 143.237 97.8341L143.671 98.906Z" fill="#263238"/>
<path d="M135.58 100.01C134.415 100.514 133.745 100.891 133.745 100.891V102C134.4 101.669 135.056 101.368 135.714 101.094L135.58 100.01Z" fill="#263238"/>
<path d="M136.14 100.936C138.397 100.051 140.738 99.3997 143.127 98.9913L142.721 97.9114C140.405 98.2976 138.141 98.9487 135.974 99.8521L136.14 100.936Z" fill="#263238"/>
<path d="M111.748 104.107L109.442 103.181L109.036 105.357C109.036 105.357 111.114 106.616 111.983 105.118L111.748 104.107Z" fill="#E4897B"/>
<path d="M108.297 103.315L107.558 104.996L109.052 105.357L109.441 103.181L108.297 103.315Z" fill="#E4897B"/>
<path d="M147.139 80.7173L146.867 78.2488L144.763 78.9309C144.763 78.9309 144.634 81.3669 146.367 81.4156L147.139 80.7173Z" fill="#E4897B"/>
<path d="M146.205 77.3027L144.374 77.4489L144.763 78.9308L146.866 78.2487L146.205 77.3027Z" fill="#E4897B"/>
<path opacity="0.2" d="M129.892 96.5879C129.25 95.8936 128.58 95.1628 127.935 94.4401C127.687 92.9298 127.529 91.5981 127.529 91.5981C128.302 92.1718 128.922 92.9272 129.334 93.7975C129.747 94.6677 129.938 95.6261 129.892 96.5879Z" fill="black"/>
<path d="M127.764 90.8997C126.834 94.6489 125.43 98.2643 123.586 101.659C121.759 105.13 114.813 105.548 111.321 105.637L111.159 103.867C113.262 103.372 119.798 102.069 120.692 100.173C122.15 96.8877 123.35 93.4941 124.281 90.0227L127.764 90.8915V90.8997Z" fill="#DC897C"/>
<path d="M125.775 87.8385C123.789 89.1377 122.726 92.5156 122.389 94.168L126.514 97.2049L128.596 95.1749C129.441 90.514 126.53 87.3472 125.775 87.8385Z" fill="#AFA11E"/>
<path opacity="0.6" d="M125.775 87.8385C123.789 89.1377 122.726 92.5156 122.389 94.168L126.514 97.2049L128.596 95.1749C129.441 90.514 126.53 87.3472 125.775 87.8385Z" fill="white"/>
<path d="M145.913 81.509L142.965 81.8257C142.923 81.8268 142.882 81.8194 142.844 81.8038C142.805 81.7882 142.77 81.7648 142.741 81.735C142.712 81.7052 142.69 81.6698 142.675 81.6309C142.661 81.592 142.654 81.5505 142.656 81.509L142.478 75.2688C142.472 75.1805 142.499 75.0933 142.552 75.0231C142.606 74.9529 142.683 74.9046 142.77 74.8871L145.714 74.5745C145.755 74.5727 145.797 74.5797 145.836 74.5951C145.875 74.6105 145.91 74.6339 145.939 74.6638C145.968 74.6937 145.99 74.7294 146.005 74.7686C146.019 74.8078 146.025 74.8495 146.022 74.8912L146.201 81.1314C146.207 81.2185 146.18 81.3048 146.127 81.3742C146.074 81.4436 145.998 81.4915 145.913 81.509Z" fill="#263238"/>
<path opacity="0.6" d="M145.913 81.509L142.965 81.8257C142.923 81.8268 142.882 81.8194 142.844 81.8038C142.805 81.7882 142.77 81.7648 142.741 81.735C142.712 81.7052 142.69 81.6698 142.675 81.6309C142.661 81.592 142.654 81.5505 142.656 81.509L142.478 75.2688C142.472 75.1805 142.499 75.0933 142.552 75.0231C142.606 74.9529 142.683 74.9046 142.77 74.8871L145.714 74.5745C145.755 74.5727 145.797 74.5797 145.836 74.5951C145.875 74.6105 145.91 74.6339 145.939 74.6638C145.968 74.6937 145.99 74.7294 146.005 74.7686C146.019 74.8078 146.025 74.8495 146.022 74.8912L146.201 81.1314C146.207 81.2185 146.18 81.3048 146.127 81.3742C146.074 81.4436 145.998 81.4915 145.913 81.509Z" fill="white"/>
<path d="M145.653 81.5373L142.709 81.8499C142.668 81.8523 142.626 81.8458 142.587 81.8309C142.548 81.816 142.512 81.7931 142.483 81.7636C142.453 81.7341 142.43 81.6986 142.416 81.6597C142.401 81.6207 142.394 81.579 142.397 81.5373L142.222 75.293C142.214 75.2055 142.24 75.1183 142.293 75.0485C142.346 74.9787 142.424 74.9313 142.51 74.9154L145.454 74.6028C145.495 74.601 145.536 74.608 145.575 74.6231C145.613 74.6382 145.648 74.6613 145.677 74.6907C145.706 74.7202 145.729 74.7554 145.744 74.7941C145.758 74.8328 145.765 74.8741 145.762 74.9154L145.941 81.1597C145.948 81.2472 145.923 81.3344 145.87 81.4042C145.816 81.474 145.739 81.5215 145.653 81.5373Z" fill="#263238"/>
<path opacity="0.7" d="M145.653 81.5373L142.709 81.8499C142.668 81.8523 142.626 81.8458 142.587 81.8309C142.548 81.816 142.512 81.7931 142.483 81.7636C142.453 81.7341 142.43 81.6986 142.416 81.6597C142.401 81.6207 142.394 81.579 142.397 81.5373L142.222 75.293C142.214 75.2055 142.24 75.1183 142.293 75.0485C142.346 74.9787 142.424 74.9313 142.51 74.9154L145.454 74.6028C145.495 74.601 145.536 74.608 145.575 74.6231C145.613 74.6382 145.648 74.6613 145.677 74.6907C145.706 74.7202 145.729 74.7554 145.744 74.7941C145.758 74.8328 145.765 74.8741 145.762 74.9154L145.941 81.1597C145.948 81.2472 145.923 81.3344 145.87 81.4042C145.816 81.474 145.739 81.5215 145.653 81.5373Z" fill="white"/>
<path d="M145.458 74.7248L144.686 74.806L144.589 75.0455L143.395 75.1714L143.285 74.9562L142.514 75.0374C142.458 75.0491 142.408 75.0806 142.374 75.1261C142.34 75.1717 142.323 75.2282 142.327 75.2851L142.502 81.5253C142.5 81.5524 142.504 81.5796 142.514 81.605C142.523 81.6305 142.538 81.6536 142.557 81.6728C142.577 81.692 142.6 81.7069 142.625 81.7165C142.651 81.7261 142.678 81.7301 142.705 81.7283L145.648 81.4157C145.704 81.4049 145.754 81.3742 145.788 81.3293C145.822 81.2844 145.839 81.2285 145.835 81.1721L145.661 74.9278C145.662 74.9008 145.657 74.8739 145.647 74.8488C145.638 74.8236 145.623 74.8008 145.604 74.7817C145.585 74.7626 145.562 74.7477 145.537 74.7379C145.511 74.7281 145.485 74.7236 145.458 74.7248Z" fill="#AFA11E"/>
<path opacity="0.8" d="M145.064 76.982L142.9 77.2134C142.874 77.2145 142.847 77.2102 142.823 77.2006C142.798 77.191 142.776 77.1764 142.757 77.1577C142.738 77.139 142.724 77.1166 142.714 77.0919C142.704 77.0672 142.7 77.0409 142.701 77.0144V76.4136C142.696 76.3575 142.712 76.3016 142.746 76.2567C142.779 76.2117 142.829 76.1808 142.884 76.17L145.052 75.9385C145.078 75.9379 145.105 75.9428 145.129 75.9529C145.154 75.963 145.176 75.9781 145.194 75.9972C145.212 76.0162 145.226 76.0389 145.236 76.0638C145.245 76.0886 145.248 76.1151 145.247 76.1415L145.267 76.7424C145.27 76.8008 145.251 76.8582 145.214 76.9029C145.176 76.9475 145.122 76.9758 145.064 76.982Z" fill="white"/>
</svg>
