<svg width="166" height="143" viewBox="0 0 166 143" fill="none" xmlns="http://www.w3.org/2000/svg">
<g clip-path="url(#clip0_1_48222)">
<g filter="url(#filter0_f_1_48222)">
<path d="M117.23 95.3731C123.027 93.6221 133.582 88.8376 137.375 85.2965C141.75 81.5899 132.677 77.443 131.6 76.8181C130.524 76.1932 77.6217 49.9469 68.3946 45.885C59.1675 41.8231 29.9492 50.3922 22.8743 54.3213C17.1073 57.5239 21.1826 59.7892 21.9516 60.4142C22.7205 61.0391 66.7881 85.6089 82.628 93.1078C94.6235 98.7868 105.849 98.8102 117.23 95.3731Z" fill="black" fill-opacity="0.2"/>
</g>
<path fill-rule="evenodd" clip-rule="evenodd" d="M75.376 67.8468L81.2285 65.1317L81.2298 65.1347C81.2673 65.1165 81.305 65.0989 81.3432 65.0817C84.8292 63.5167 89.8024 67.0624 92.4511 73.0013C95.0997 78.9403 94.4209 85.0235 90.9348 86.5886C90.8895 86.6089 90.8439 86.6284 90.798 86.6471L85.1469 89.2724L82.0147 82.4041C81.191 81.3127 80.4455 80.0561 79.8269 78.669C79.2564 77.3897 78.8403 76.1038 78.5733 74.8578L75.376 67.8468Z" fill="black"/>
<ellipse cx="6.92221" cy="11.7598" rx="6.92221" ry="11.7598" transform="matrix(-0.911862 0.409373 0.407504 0.913706 81.8555 64.9561)" fill="black"/>
<g filter="url(#filter1_i_1_48222)">
<ellipse cx="5.19191" cy="8.82023" rx="5.19191" ry="8.82023" transform="matrix(-0.911862 0.409373 0.407504 0.913706 81.2754 68.3574)" fill="url(#paint0_linear_1_48222)"/>
</g>
<g filter="url(#filter2_di_1_48222)">
<path fill-rule="evenodd" clip-rule="evenodd" d="M82.3387 73.9816C82.3931 74.0457 82.4471 74.111 82.5006 74.1773L82.3387 74.4587L82.3387 73.9816ZM80.045 84.8909L80.045 83.0453L80.0449 83.0451L79.2758 84.3815C79.5297 84.5757 79.7869 84.7461 80.045 84.8909ZM82.3387 82.4279L82.3387 82.4308L83.7348 84.8571C84.0829 84.566 84.3655 84.1823 84.5802 83.7263L82.3387 82.4279ZM80.045 76.0514L80.045 72.088C79.0343 71.5715 78.0203 71.4541 77.1536 71.8432C76.9111 71.9521 76.6905 72.0959 76.492 72.2708L78.7247 76.1506C78.8016 76.0829 78.8871 76.0272 78.9811 75.985C79.3008 75.8415 79.6722 75.8756 80.045 76.0514ZM76.917 79.2874L75.9014 79.5604C75.77 79.2062 75.6574 78.853 75.5633 78.5033L76.917 79.2874ZM76.9153 81.666L78.4247 81.2603L77.6064 82.6823C77.3644 82.3656 77.133 82.0261 76.9153 81.666ZM83.1754 77.6049L83.886 76.3701C83.9509 76.5028 84.0139 76.6375 84.0749 76.7744C84.1535 76.9506 84.2274 77.1271 84.2967 77.3035L83.1754 77.6049ZM76.0748 76.1461L75.2046 75.642C75.2143 75.3408 75.2408 75.05 75.284 74.7718L76.0748 76.1461ZM84.927 79.5122C85.0417 80.155 85.0916 80.7771 85.0785 81.3616L82.8499 80.0706L84.927 79.5122Z" fill="#4C4C4C"/>
</g>
<path fill-rule="evenodd" clip-rule="evenodd" d="M75.3772 67.7249L81.2297 65.0098L81.2303 65.0111C81.2666 64.9935 81.3033 64.9764 81.3403 64.9597C84.8264 63.3947 89.7995 66.9404 92.4482 72.8793C95.0968 78.8183 94.418 84.9015 90.9319 86.4666C90.8988 86.4815 90.8655 86.4959 90.8321 86.5098L85.1482 89.1505L82.0222 82.2959C81.1944 81.2013 80.4453 79.94 79.824 78.547C79.251 77.262 78.8337 75.9703 78.5669 74.7191L75.3772 67.7249Z" fill="black"/>
<path d="M73.9552 81.3694C76.6018 87.3036 81.5734 90.8456 85.0595 89.2806C88.5456 87.7155 89.2261 81.6361 86.5794 75.7019C83.9328 69.7676 78.8116 65.9061 75.3255 67.4712C71.8394 69.0362 71.3085 75.4351 73.9552 81.3694Z" fill="#2D2C2C"/>
<g filter="url(#filter3_i_1_48222)">
<ellipse cx="4.86544" cy="8.50684" rx="4.86544" ry="8.50684" transform="matrix(-0.907827 0.41954 0.394422 0.918899 81.2607 68.6836)" fill="url(#paint1_linear_1_48222)"/>
</g>
<g filter="url(#filter4_di_1_48222)">
<path fill-rule="evenodd" clip-rule="evenodd" d="M83.3954 76.8629C82.0943 73.9601 79.8 72.1662 78.0558 72.628L79.3553 75.5971C80.1476 75.5517 81.1032 76.3369 81.6984 77.5637L83.3954 76.8629Z" fill="#A9A8A8"/>
</g>
<path fill-rule="evenodd" clip-rule="evenodd" d="M31.3976 45.7218L36.5547 44.3878L36.5555 44.391C36.5885 44.3819 36.6217 44.3732 36.6551 44.365C39.7192 43.6128 43.2324 47.2337 44.502 52.4525C45.7717 57.6714 44.3169 62.5118 41.2528 63.264C41.2085 63.2749 41.1642 63.2849 41.1197 63.2939L36.153 64.5816L34.6292 58.5381C34.1218 57.5284 33.7026 56.3961 33.4059 55.1765C33.1322 54.0518 32.9852 52.9446 32.9534 51.8921L31.3976 45.7218Z" fill="black"/>
<ellipse cx="5.71699" cy="9.71044" rx="5.71699" ry="9.71044" transform="matrix(-0.970456 0.238231 0.236561 0.972367 37.0859 44.3337)" fill="black"/>
<g filter="url(#filter5_i_1_48222)">
<ellipse cx="4.28796" cy="7.28323" rx="4.28796" ry="7.28323" transform="matrix(-0.970456 0.238231 0.236561 0.972367 36.1143 47.0105)" fill="url(#paint2_linear_1_48222)"/>
</g>
<g filter="url(#filter6_di_1_48222)">
<path fill-rule="evenodd" clip-rule="evenodd" d="M36.1402 51.7328C36.1759 51.7945 36.2109 51.8571 36.2454 51.9206L36.0676 52.1305L36.1402 51.7328ZM32.6571 60.2549L32.9298 58.7631L32.1109 59.7292C32.2874 59.9237 32.47 60.0995 32.6571 60.2549ZM33.9689 53.0785L34.5582 49.8548C33.8145 49.2858 33.009 49.04 32.2479 49.2269C32.035 49.2791 31.8346 49.363 31.6476 49.4753L32.8851 52.9596C32.9565 52.9172 33.0329 52.8855 33.1139 52.8657C33.3951 52.7966 33.692 52.8798 33.9689 53.0785ZM35.662 60.7781L34.8885 58.6003L36.5148 59.9874C36.2731 60.3249 35.9872 60.5939 35.662 60.7781ZM30.948 55.2394L30.0849 55.3097C30.0308 55.0032 29.9919 54.7003 29.9674 54.403L30.948 55.2394ZM30.596 57.1714L31.8836 57.0665L31.0069 58.1007C30.8572 57.8072 30.7195 57.4966 30.596 57.1714ZM36.2854 54.8043L37.0449 53.9084C37.0777 54.0253 37.1087 54.1436 37.1378 54.2633C37.1755 54.4183 37.2094 54.5729 37.2394 54.7266L36.2854 54.8043ZM30.7352 52.5661L30.1002 52.0245C30.153 51.7801 30.218 51.5467 30.2948 51.3262L30.7352 52.5661ZM37.4234 56.6149C37.4211 57.1546 37.3691 57.6679 37.2715 58.1411L35.6515 56.7593L37.4234 56.6149Z" fill="#4C4C4C"/>
</g>
<path fill-rule="evenodd" clip-rule="evenodd" d="M31.3819 45.8586L36.539 44.5246L36.5395 44.5264C36.5719 44.5174 36.6046 44.5089 36.6374 44.5008C39.7015 43.7486 43.2147 47.3695 44.4844 52.5884C45.754 57.8072 44.2993 62.6477 41.2351 63.3999C41.2005 63.4084 41.1658 63.4163 41.1311 63.4237L36.1373 64.7184L34.6149 58.6807C34.106 57.6693 33.6856 56.5347 33.3882 55.3123C33.1139 54.1849 32.9668 53.075 32.9355 52.0203L31.3819 45.8586Z" fill="black"/>
<ellipse cx="5.78051" cy="9.81834" rx="5.78051" ry="9.81834" transform="matrix(-0.970456 0.238231 0.236561 0.972367 37.1074 44.2383)" fill="#2C2C2C"/>
<g filter="url(#filter7_i_1_48222)">
<g filter="url(#filter8_i_1_48222)">
<ellipse cx="4.02226" cy="7.03315" rx="4.02226" ry="7.03315" transform="matrix(-0.955804 0.291458 0.30431 0.953325 35.1816 47.9316)" fill="url(#paint3_linear_1_48222)"/>
</g>
<g filter="url(#filter9_di_1_48222)">
<path fill-rule="evenodd" clip-rule="evenodd" d="M36.2065 54.9206C35.4706 52.389 33.7828 50.6088 32.2865 50.7305L33.0129 53.3128C33.6749 53.3868 34.3762 54.1601 34.7258 55.2392L36.2065 54.9206Z" fill="#A9A8A8"/>
</g>
</g>
<g filter="url(#filter10_dii_1_48222)">
<path fill-rule="evenodd" clip-rule="evenodd" d="M107.905 42.3955C108.278 42.7199 108.666 43.0592 109.144 43.1871C111.317 43.7689 129.519 53.7534 133.487 57.7657C137.349 61.6703 137.135 64.0041 137.036 65.0876C137.021 65.244 137.009 65.3744 137.012 65.4797C137.028 66.0047 137.024 67.0612 137.019 68.4054C137.016 69.1971 137.012 70.0885 137.012 71.03L137.012 74.2284C137.005 74.4674 137.006 74.7112 137.007 74.9601C137.012 76.0171 137.017 77.1663 136.369 78.4255C135.57 79.9777 131.714 85.6691 113.001 91.5487C106.65 93.5441 99.2721 91.3235 94.5728 89.3743C93.7779 89.0778 93.0614 88.7855 92.4418 88.5185C91.8482 88.2627 91.3105 87.89 90.7351 87.5956C90.5526 87.5023 90.3949 87.4206 90.2639 87.3527C90.1061 87.2709 90.0019 87.1134 89.9862 86.9363C89.8444 85.3399 89.4685 83.1621 88.9288 80.9896C88.2992 78.5916 87.4726 76.2224 86.5663 74.6724C84.4171 70.997 79.8429 66.4641 76.246 67.706C72.1638 69.1155 72.4774 74.9864 72.5558 76.3882C72.5789 76.8004 72.6266 77.0753 72.6738 77.3469C72.6738 77.3469 72.6738 77.3469 72.6738 77.3469C72.6738 77.347 72.6738 77.347 72.6739 77.347C72.6859 77.4166 72.6916 77.4843 72.6914 77.5499C72.6909 77.7079 72.701 77.8679 72.7346 78.0223C72.74 78.0471 72.7451 78.0734 72.7498 78.1015C72.8357 78.6085 72.2569 78.9311 71.8 78.695C71.6866 78.6364 71.5589 78.6143 71.4317 78.6028C71.2703 78.5883 71.1061 78.5427 70.9479 78.4618L42.0888 63.6967C41.6509 63.4727 41.2596 63.1821 40.9348 62.8389C40.829 62.7271 40.7093 62.6285 40.5726 62.5579C40.2534 62.3929 40.0163 62.0892 40.0183 61.7299C40.0186 61.6701 40.0204 61.61 40.0237 61.5496C40.0341 61.3593 40.021 61.1683 39.9894 60.9804C39.9585 60.7971 39.9425 60.609 39.9424 60.4169C39.9423 60.2713 39.9427 60.123 39.9431 59.9721C39.9493 57.4863 39.9574 54.2912 37.9739 50.8199C36.1608 47.6471 33.5194 45.5469 31.1215 46.2995C28.7236 47.052 28.0714 49.6348 27.9407 51.0733C27.8123 52.4859 27.8886 53.7823 27.9329 54.5341C27.9507 54.8368 27.9633 55.0511 27.9553 55.1494C27.9274 55.4918 24.4748 52.5207 24.2529 51.3887C23.5774 47.9433 23.4366 44.717 23.7911 41.2198C23.8282 40.8543 23.9276 40.1323 24.0365 39.5103C24.1537 38.8416 24.2215 38.1536 24.2453 37.4752C24.2825 36.4149 24.465 35.235 24.7181 34.6591C24.7475 34.5923 24.7761 34.5219 24.8062 34.448C25.1572 33.5853 25.7054 32.2381 29.9305 30.3485C35.9299 27.6653 52.2662 21.6922 52.8983 21.5526C54.3917 21.2227 56.3046 21.3644 57.8532 21.4792C58.7619 21.5465 59.5451 21.6045 60.0446 21.5525C67.2598 20.8015 75.6242 21.798 86.6616 27.3668C88.1367 27.993 89.5952 28.7075 91.0076 29.5229C94.5317 31.5575 97.5021 33.7175 99.9737 35.7063C102.871 37.9191 105.104 39.9089 106.707 41.3365L106.707 41.3365C107.155 41.736 107.554 42.0915 107.905 42.3955Z" fill="url(#paint4_linear_1_48222)"/>
</g>
<g filter="url(#filter11_ddi_1_48222)">
<path d="M79.4984 55.3304C75.9554 53.8638 73.7827 49.4401 69.1312 44.0276C68.0682 42.7907 68.4861 40.8358 69.9998 40.2278L91.6562 31.5297C91.9993 31.3919 92.3691 31.3484 92.713 31.484C93.7706 31.9012 96.5491 33.367 102.364 38.481C105.932 41.6184 106.646 42.4356 108.49 43.678C108.781 43.8745 108.731 44.3072 107.66 45.1899C104.245 48.004 85.4315 57.7865 79.4984 55.3304Z" fill="url(#paint5_linear_1_48222)"/>
</g>
<g filter="url(#filter12_di_1_48222)">
<path d="M51.2003 34.1975C45.9263 32.5375 44.5691 32.5281 40.9282 32.3228C38.423 32.1816 34.4453 32.5521 34.0113 33.6801C33.5773 34.8081 38.393 38.3509 40.3864 39.454C41.3606 39.9932 74.9699 56.8373 73.9012 54.8465C72.5845 52.3938 66.5242 45.3877 64.4545 42.5268C61.0037 37.757 56.4743 35.8574 51.2003 34.1975Z" fill="url(#paint6_linear_1_48222)"/>
</g>
<g filter="url(#filter13_di_1_48222)">
<path d="M39.2458 30.8767L61.3721 21.8643C61.3721 21.8643 60.8761 22.0391 58.1611 21.9991C57.2137 21.9852 34.25 31.4255 34.0822 31.573L39.2458 30.8767Z" fill="url(#paint7_linear_1_48222)"/>
</g>
<g filter="url(#filter14_f_1_48222)">
<path d="M89.664 67.483C81.1666 63.5327 76.3918 58.5739 71.2726 54.0412C86.5172 58.5617 118.425 68.4538 117.925 69.0976C117.3 69.9023 115.009 70.8569 107.394 71.3704C99.8968 71.8759 90.6369 67.9353 89.664 67.483Z" fill="url(#paint8_linear_1_48222)" fill-opacity="0.21"/>
</g>
<g filter="url(#filter15_f_1_48222)">
<path d="M122.478 48.6275C121.995 48.2304 115.928 41.9426 111.385 38.8123C115.14 46.1401 123.701 62.0678 124.497 61.9881C125.492 61.8884 130.045 61.0357 131.387 57.9374C132.707 54.8871 123.081 49.1238 122.478 48.6275Z" fill="url(#paint9_linear_1_48222)" fill-opacity="0.13"/>
</g>
<g filter="url(#filter16_di_1_48222)">
<path d="M59.4293 55.7749C59.4293 55.5784 59.3172 55.3991 59.1408 55.3133L56.662 54.1076C56.3211 53.9418 55.925 54.19 55.925 54.5695C55.925 54.7671 56.0379 54.9474 56.2156 55.0334L58.6962 56.2351C59.0356 56.3995 59.4293 56.1524 59.4293 55.7749Z" fill="#323232"/>
</g>
<g filter="url(#filter17_di_1_48222)">
<path d="M43.1715 48.5981C43.1715 48.4017 43.0594 48.2223 42.883 48.1365L40.4042 46.9309C40.0633 46.765 39.6672 47.0133 39.6672 47.3928C39.6672 47.5903 39.7801 47.7706 39.9578 47.8567L42.4384 49.0584C42.7778 49.2228 43.1715 48.9756 43.1715 48.5981Z" fill="#323232"/>
</g>
<g filter="url(#filter18_f_1_48222)">
<path d="M65.7207 74.1745L43.4496 63.2708C42.3034 62.7097 41.4405 61.6977 41.0852 60.472C40.3576 57.9621 39.4808 54.7535 39.4581 53.9526C39.4216 52.6633 72.2356 68.2751 71.0869 71.1919C70.3132 73.1567 67.617 75.1029 65.7207 74.1745Z" fill="url(#paint10_linear_1_48222)" fill-opacity="0.12"/>
</g>
<path d="M96.0459 51.6139L76.6783 37.5029C74.4602 38.1036 69.4124 40.3636 68.4506 40.7249C67.2044 41.1931 66.9972 41.454 66.9972 41.454C66.9972 41.8303 67.1893 41.9949 67.7942 42.5829C68.6615 43.4258 69.0287 43.8139 71.1773 46.5574C74.2715 50.5085 76.6258 54.1847 78.8833 55.0669C80.6793 55.7687 83.4804 56.3824 87.4665 55.0669C91.0295 53.891 93.2228 52.5622 96.0459 51.6139Z" fill="#C4C4C4" fill-opacity="0.2"/>
<g opacity="0.17" filter="url(#filter19_f_1_48222)">
<path d="M130.391 62.7939C125.114 66.9698 113.374 72.9392 108.133 73.8495" stroke="url(#paint11_linear_1_48222)" stroke-width="75.7446" stroke-linecap="round" stroke-linejoin="round"/>
</g>
<g filter="url(#filter20_ddii_1_48222)">
<path d="M134.419 64.3181C135.342 63.0708 135.195 62.0499 135.048 60.5815C135.013 60.2266 134.737 59.4287 135.015 59.6527C135.369 59.9391 136.508 61.9199 136.661 63.4017C136.727 64.0502 136.685 64.3785 136.625 64.977C136.597 65.2508 136.034 66.9223 136.117 67.2832C136.201 67.644 136.017 70.1312 136.03 70.5071C136.042 70.883 134.473 73.68 130.35 76.3776C126.925 78.6185 122.007 80.0894 121.503 80.1619C120.999 80.2344 120.505 78.5429 120.139 78.4495C119.181 78.2049 116.352 79.2444 115.296 79.5099C114.064 79.8198 111.188 80.5343 108.045 80.1306C104.158 79.6312 103.563 79.1892 99.9901 77.243C99.7826 77.13 99.5805 77.0077 99.3838 76.8776C96.6891 75.0954 98.7489 72.6429 101.871 73.4754C104.081 74.065 106.639 74.6139 109.342 74.891C117.921 75.7706 124.696 71.6932 125.667 71.1071C129.748 68.6432 131.891 67.7322 134.419 64.3181Z" fill="#272727"/>
</g>
<mask id="mask0_1_48222" style="mask-type:alpha" maskUnits="userSpaceOnUse" x="98" y="62" width="40" height="19">
<path d="M134.404 64.4245C134.474 64.3302 134.538 64.2346 134.597 64.1379C135.299 62.9803 136.858 62.2461 137.063 63.5843C137.13 64.2327 137.115 64.6445 137.054 65.243C137.027 65.5168 136.021 67.0276 136.105 67.3884C136.189 67.7492 136.007 70.2365 136.019 70.6124C136.032 70.9883 134.465 73.7863 130.344 76.4865C126.92 78.7296 122.003 80.2037 121.499 80.2765C120.995 80.3494 120.5 78.6582 120.134 78.565C119.176 78.321 116.348 79.3623 115.292 79.6285C114.059 79.9392 111.184 80.6556 108.041 80.2538C104.154 79.7569 103.559 79.3154 99.984 77.3714C99.7765 77.2585 99.5743 77.1364 99.3776 77.0064C96.6817 75.2259 98.74 72.7721 101.862 73.6026C104.073 74.1908 106.632 74.738 109.334 75.0134C117.914 75.8876 124.687 71.8058 125.657 71.219C129.736 68.7526 131.879 67.8401 134.404 64.4245Z" fill="#999999"/>
</mask>
<g mask="url(#mask0_1_48222)">
<g filter="url(#filter21_d_1_48222)">
<path d="M111.63 74.4231C111.576 74.5141 111.491 74.6149 111.351 74.7202C111.068 74.9318 110.49 75.2168 109.366 75.3677C108.76 75.449 107.861 75.45 106.928 75.2729C106.022 75.1011 105.2 74.7806 104.589 74.3166L111.63 74.4231Z" stroke="white" stroke-opacity="0.9" stroke-width="3.41524" shape-rendering="crispEdges"/>
</g>
<g filter="url(#filter22_d_1_48222)">
<mask id="path-32-inside-1_1_48222" fill="white">
<path d="M135.03 60.292C135.03 60.292 136.385 62.0678 135.447 64.0861C135.165 64.6929 134.596 65.008 134.025 64.5765C133.601 64.2553 132.231 64.5363 132.231 64.5363L135.03 60.292Z"/>
</mask>
<path d="M135.03 60.292L137.746 58.2211L134.829 54.3954L132.18 58.4104L135.03 60.292ZM135.447 64.0861L138.544 65.5256L135.447 64.0861ZM134.025 64.5765L131.966 67.3004L134.025 64.5765ZM132.231 64.5363L129.38 62.6547L124.839 69.5387L132.917 67.8823L132.231 64.5363ZM135.03 60.292C132.315 62.3629 132.314 62.3617 132.314 62.3606C132.313 62.3602 132.312 62.359 132.312 62.3583C132.311 62.3568 132.31 62.3553 132.308 62.3538C132.306 62.3508 132.304 62.348 132.302 62.3452C132.298 62.3396 132.294 62.3344 132.29 62.3295C132.283 62.3197 132.277 62.3111 132.271 62.3038C132.261 62.2893 132.254 62.2795 132.251 62.274C132.244 62.2634 132.247 62.2682 132.257 62.2857C132.28 62.3255 132.312 62.3918 132.336 62.4666C132.381 62.6093 132.357 62.6308 132.35 62.6467L138.544 65.5256C139.474 63.5232 139.242 61.6476 138.845 60.3978C138.647 59.7764 138.4 59.2725 138.198 58.9163C138.095 58.7357 138 58.586 137.923 58.4705C137.884 58.4125 137.849 58.3625 137.819 58.321C137.805 58.3002 137.791 58.2814 137.778 58.2648C137.772 58.2565 137.766 58.2486 137.761 58.2414C137.758 58.2377 137.756 58.2342 137.753 58.2308C137.752 58.2291 137.751 58.2275 137.749 58.2259C137.749 58.225 137.748 58.2238 137.747 58.2234C137.747 58.2223 137.746 58.2211 135.03 60.292ZM132.35 62.6467C132.454 62.4237 132.78 61.8711 133.564 61.5541C133.982 61.3849 134.473 61.3138 134.977 61.3929C135.473 61.4707 135.846 61.6716 136.085 61.8527L131.966 67.3004C133.107 68.1641 134.649 68.4843 136.125 67.8873C137.407 67.3689 138.159 66.3554 138.544 65.5256L132.35 62.6467ZM136.085 61.8527C135.202 61.1846 134.248 61.0703 133.905 61.0361C133.439 60.9894 133.007 61.0075 132.709 61.0302C132.393 61.0542 132.113 61.0928 131.918 61.1235C131.818 61.1393 131.734 61.1541 131.671 61.1657C131.639 61.1715 131.612 61.1767 131.591 61.1808C131.581 61.1829 131.571 61.1847 131.563 61.1863C131.559 61.1871 131.556 61.1878 131.553 61.1885C131.551 61.1888 131.55 61.1891 131.548 61.1894C131.547 61.1896 131.547 61.1897 131.546 61.1898C131.546 61.1899 131.545 61.19 131.545 61.19C131.545 61.1901 131.544 61.1902 132.231 64.5363C132.917 67.8823 132.917 67.8824 132.916 67.8825C132.916 67.8825 132.916 67.8826 132.915 67.8827C132.915 67.8828 132.914 67.8829 132.914 67.883C132.912 67.8833 132.911 67.8835 132.91 67.8837C132.909 67.884 132.907 67.8844 132.906 67.8846C132.903 67.8852 132.901 67.8855 132.901 67.8856C132.9 67.8858 132.903 67.8852 132.91 67.8839C132.923 67.8815 132.949 67.8768 132.984 67.8713C133.06 67.8593 133.149 67.8478 133.228 67.8417C133.326 67.8343 133.317 67.8424 133.227 67.8334C133.178 67.8285 133.044 67.8127 132.86 67.7584C132.689 67.7079 132.343 67.5862 131.966 67.3004L136.085 61.8527ZM135.081 66.4178L137.881 62.1736L132.18 58.4104L129.38 62.6547L135.081 66.4178Z" fill="white" fill-opacity="0.9" mask="url(#path-32-inside-1_1_48222)"/>
</g>
</g>
</g>
<defs>
<filter id="filter0_f_1_48222" x="9.83667" y="34.8181" width="138.723" height="72.8953" filterUnits="userSpaceOnUse" color-interpolation-filters="sRGB">
<feFlood flood-opacity="0" result="BackgroundImageFix"/>
<feBlend mode="normal" in="SourceGraphic" in2="BackgroundImageFix" result="shape"/>
<feGaussianBlur stdDeviation="5" result="effect1_foregroundBlur_1_48222"/>
</filter>
<filter id="filter1_i_1_48222" x="74.1909" y="70.2053" width="11.8889" height="16.6733" filterUnits="userSpaceOnUse" color-interpolation-filters="sRGB">
<feFlood flood-opacity="0" result="BackgroundImageFix"/>
<feBlend mode="normal" in="SourceGraphic" in2="BackgroundImageFix" result="shape"/>
<feColorMatrix in="SourceAlpha" type="matrix" values="0 0 0 0 0 0 0 0 0 0 0 0 0 0 0 0 0 0 127 0" result="hardAlpha"/>
<feMorphology radius="1.14765" operator="erode" in="SourceAlpha" result="effect1_innerShadow_1_48222"/>
<feOffset/>
<feGaussianBlur stdDeviation="0.573823"/>
<feComposite in2="hardAlpha" operator="arithmetic" k2="-1" k3="1"/>
<feColorMatrix type="matrix" values="0 0 0 0 0 0 0 0 0 0 0 0 0 0 0 0 0 0 0.25 0"/>
<feBlend mode="normal" in2="shape" result="effect1_innerShadow_1_48222"/>
</filter>
<filter id="filter2_di_1_48222" x="71.7617" y="71.383" width="14.0075" height="15.8031" filterUnits="userSpaceOnUse" color-interpolation-filters="sRGB">
<feFlood flood-opacity="0" result="BackgroundImageFix"/>
<feColorMatrix in="SourceAlpha" type="matrix" values="0 0 0 0 0 0 0 0 0 0 0 0 0 0 0 0 0 0 127 0" result="hardAlpha"/>
<feOffset dy="0.459058"/>
<feGaussianBlur stdDeviation="0.344294"/>
<feColorMatrix type="matrix" values="0 0 0 0 1 0 0 0 0 1 0 0 0 0 1 0 0 0 0.41 0"/>
<feBlend mode="normal" in2="BackgroundImageFix" result="effect1_dropShadow_1_48222"/>
<feBlend mode="normal" in="SourceGraphic" in2="effect1_dropShadow_1_48222" result="shape"/>
<feColorMatrix in="SourceAlpha" type="matrix" values="0 0 0 0 0 0 0 0 0 0 0 0 0 0 0 0 0 0 127 0" result="hardAlpha"/>
<feOffset dx="-3.44294" dy="2.29529"/>
<feGaussianBlur stdDeviation="1.72147"/>
<feComposite in2="hardAlpha" operator="arithmetic" k2="-1" k3="1"/>
<feColorMatrix type="matrix" values="0 0 0 0 0 0 0 0 0 0 0 0 0 0 0 0 0 0 0.25 0"/>
<feBlend mode="normal" in2="shape" result="effect2_innerShadow_1_48222"/>
</filter>
<filter id="filter3_i_1_48222" x="74.6519" y="70.4607" width="11.0942" height="16.1621" filterUnits="userSpaceOnUse" color-interpolation-filters="sRGB">
<feFlood flood-opacity="0" result="BackgroundImageFix"/>
<feBlend mode="normal" in="SourceGraphic" in2="BackgroundImageFix" result="shape"/>
<feColorMatrix in="SourceAlpha" type="matrix" values="0 0 0 0 0 0 0 0 0 0 0 0 0 0 0 0 0 0 127 0" result="hardAlpha"/>
<feMorphology radius="2.84604" operator="erode" in="SourceAlpha" result="effect1_innerShadow_1_48222"/>
<feOffset/>
<feGaussianBlur stdDeviation="1.42302"/>
<feComposite in2="hardAlpha" operator="arithmetic" k2="-1" k3="1"/>
<feColorMatrix type="matrix" values="0 0 0 0 0 0 0 0 0 0 0 0 0 0 0 0 0 0 0.25 0"/>
<feBlend mode="normal" in2="shape" result="effect1_innerShadow_1_48222"/>
</filter>
<filter id="filter4_di_1_48222" x="74.4161" y="72.3133" width="10.1924" height="7.67701" filterUnits="userSpaceOnUse" color-interpolation-filters="sRGB">
<feFlood flood-opacity="0" result="BackgroundImageFix"/>
<feColorMatrix in="SourceAlpha" type="matrix" values="0 0 0 0 0 0 0 0 0 0 0 0 0 0 0 0 0 0 127 0" result="hardAlpha"/>
<feOffset dy="0.970617"/>
<feGaussianBlur stdDeviation="0.606636"/>
<feColorMatrix type="matrix" values="0 0 0 0 1 0 0 0 0 1 0 0 0 0 1 0 0 0 0.59 0"/>
<feBlend mode="normal" in2="BackgroundImageFix" result="effect1_dropShadow_1_48222"/>
<feBlend mode="normal" in="SourceGraphic" in2="effect1_dropShadow_1_48222" result="shape"/>
<feColorMatrix in="SourceAlpha" type="matrix" values="0 0 0 0 0 0 0 0 0 0 0 0 0 0 0 0 0 0 127 0" result="hardAlpha"/>
<feOffset dx="-3.63981" dy="2.42654"/>
<feGaussianBlur stdDeviation="1.81991"/>
<feComposite in2="hardAlpha" operator="arithmetic" k2="-1" k3="1"/>
<feColorMatrix type="matrix" values="0 0 0 0 0 0 0 0 0 0 0 0 0 0 0 0 0 0 0.25 0"/>
<feBlend mode="normal" in2="shape" result="effect2_innerShadow_1_48222"/>
</filter>
<filter id="filter5_i_1_48222" x="29.1709" y="47.9578" width="9.01001" height="14.3125" filterUnits="userSpaceOnUse" color-interpolation-filters="sRGB">
<feFlood flood-opacity="0" result="BackgroundImageFix"/>
<feBlend mode="normal" in="SourceGraphic" in2="BackgroundImageFix" result="shape"/>
<feColorMatrix in="SourceAlpha" type="matrix" values="0 0 0 0 0 0 0 0 0 0 0 0 0 0 0 0 0 0 127 0" result="hardAlpha"/>
<feMorphology radius="0.947741" operator="erode" in="SourceAlpha" result="effect1_innerShadow_1_48222"/>
<feOffset/>
<feGaussianBlur stdDeviation="0.47387"/>
<feComposite in2="hardAlpha" operator="arithmetic" k2="-1" k3="1"/>
<feColorMatrix type="matrix" values="0 0 0 0 0 0 0 0 0 0 0 0 0 0 0 0 0 0 0.25 0"/>
<feBlend mode="normal" in2="shape" result="effect1_innerShadow_1_48222"/>
</filter>
<filter id="filter6_di_1_48222" x="27.1241" y="48.9757" width="10.8679" height="13.6978" filterUnits="userSpaceOnUse" color-interpolation-filters="sRGB">
<feFlood flood-opacity="0" result="BackgroundImageFix"/>
<feColorMatrix in="SourceAlpha" type="matrix" values="0 0 0 0 0 0 0 0 0 0 0 0 0 0 0 0 0 0 127 0" result="hardAlpha"/>
<feOffset dy="0.379096"/>
<feGaussianBlur stdDeviation="0.284322"/>
<feColorMatrix type="matrix" values="0 0 0 0 1 0 0 0 0 1 0 0 0 0 1 0 0 0 0.41 0"/>
<feBlend mode="normal" in2="BackgroundImageFix" result="effect1_dropShadow_1_48222"/>
<feBlend mode="normal" in="SourceGraphic" in2="effect1_dropShadow_1_48222" result="shape"/>
<feColorMatrix in="SourceAlpha" type="matrix" values="0 0 0 0 0 0 0 0 0 0 0 0 0 0 0 0 0 0 127 0" result="hardAlpha"/>
<feOffset dx="-2.84322" dy="1.89548"/>
<feGaussianBlur stdDeviation="1.42161"/>
<feComposite in2="hardAlpha" operator="arithmetic" k2="-1" k3="1"/>
<feColorMatrix type="matrix" values="0 0 0 0 0 0 0 0 0 0 0 0 0 0 0 0 0 0 0.25 0"/>
<feBlend mode="normal" in2="shape" result="effect2_innerShadow_1_48222"/>
</filter>
<filter id="filter7_i_1_48222" x="29.0764" y="49.0012" width="8.80176" height="13.6152" filterUnits="userSpaceOnUse" color-interpolation-filters="sRGB">
<feFlood flood-opacity="0" result="BackgroundImageFix"/>
<feBlend mode="normal" in="SourceGraphic" in2="BackgroundImageFix" result="shape"/>
<feColorMatrix in="SourceAlpha" type="matrix" values="0 0 0 0 0 0 0 0 0 0 0 0 0 0 0 0 0 0 127 0" result="hardAlpha"/>
<feMorphology radius="2.84604" operator="erode" in="SourceAlpha" result="effect1_innerShadow_1_48222"/>
<feOffset/>
<feGaussianBlur stdDeviation="1.42302"/>
<feComposite in2="hardAlpha" operator="arithmetic" k2="-1" k3="1"/>
<feColorMatrix type="matrix" values="0 0 0 0 0 0 0 0 0 0 0 0 0 0 0 0 0 0 0.25 0"/>
<feBlend mode="normal" in2="shape" result="effect1_innerShadow_1_48222"/>
</filter>
<filter id="filter8_i_1_48222" x="29.0764" y="49.0012" width="8.80176" height="13.6152" filterUnits="userSpaceOnUse" color-interpolation-filters="sRGB">
<feFlood flood-opacity="0" result="BackgroundImageFix"/>
<feBlend mode="normal" in="SourceGraphic" in2="BackgroundImageFix" result="shape"/>
<feColorMatrix in="SourceAlpha" type="matrix" values="0 0 0 0 0 0 0 0 0 0 0 0 0 0 0 0 0 0 127 0" result="hardAlpha"/>
<feMorphology radius="0.852955" operator="erode" in="SourceAlpha" result="effect1_innerShadow_1_48222"/>
<feOffset/>
<feGaussianBlur stdDeviation="0.426477"/>
<feComposite in2="hardAlpha" operator="arithmetic" k2="-1" k3="1"/>
<feColorMatrix type="matrix" values="0 0 0 0 0 0 0 0 0 0 0 0 0 0 0 0 0 0 0.25 0"/>
<feBlend mode="normal" in2="shape" result="effect1_innerShadow_1_48222"/>
</filter>
<filter id="filter9_di_1_48222" x="28.6468" y="50.482" width="8.77301" height="7.18385" filterUnits="userSpaceOnUse" color-interpolation-filters="sRGB">
<feFlood flood-opacity="0" result="BackgroundImageFix"/>
<feColorMatrix in="SourceAlpha" type="matrix" values="0 0 0 0 0 0 0 0 0 0 0 0 0 0 0 0 0 0 127 0" result="hardAlpha"/>
<feOffset dy="0.970618"/>
<feGaussianBlur stdDeviation="0.606636"/>
<feColorMatrix type="matrix" values="0 0 0 0 1 0 0 0 0 1 0 0 0 0 1 0 0 0 0.59 0"/>
<feBlend mode="normal" in2="BackgroundImageFix" result="effect1_dropShadow_1_48222"/>
<feBlend mode="normal" in="SourceGraphic" in2="effect1_dropShadow_1_48222" result="shape"/>
<feColorMatrix in="SourceAlpha" type="matrix" values="0 0 0 0 0 0 0 0 0 0 0 0 0 0 0 0 0 0 127 0" result="hardAlpha"/>
<feOffset dx="-3.63982" dy="2.42654"/>
<feGaussianBlur stdDeviation="1.81991"/>
<feComposite in2="hardAlpha" operator="arithmetic" k2="-1" k3="1"/>
<feColorMatrix type="matrix" values="0 0 0 0 0 0 0 0 0 0 0 0 0 0 0 0 0 0 0.25 0"/>
<feBlend mode="normal" in2="shape" result="effect2_innerShadow_1_48222"/>
</filter>
<filter id="filter10_dii_1_48222" x="19.6025" y="-1.43528" width="134.55" height="101.767" filterUnits="userSpaceOnUse" color-interpolation-filters="sRGB">
<feFlood flood-opacity="0" result="BackgroundImageFix"/>
<feColorMatrix in="SourceAlpha" type="matrix" values="0 0 0 0 0 0 0 0 0 0 0 0 0 0 0 0 0 0 127 0" result="hardAlpha"/>
<feOffset dy="4"/>
<feGaussianBlur stdDeviation="2"/>
<feComposite in2="hardAlpha" operator="out"/>
<feColorMatrix type="matrix" values="0 0 0 0 0 0 0 0 0 0 0 0 0 0 0 0 0 0 0.25 0"/>
<feBlend mode="normal" in2="BackgroundImageFix" result="effect1_dropShadow_1_48222"/>
<feBlend mode="normal" in="SourceGraphic" in2="effect1_dropShadow_1_48222" result="shape"/>
<feColorMatrix in="SourceAlpha" type="matrix" values="0 0 0 0 0 0 0 0 0 0 0 0 0 0 0 0 0 0 127 0" result="hardAlpha"/>
<feOffset dx="17.0762" dy="-22.7683"/>
<feGaussianBlur stdDeviation="68.3049"/>
<feComposite in2="hardAlpha" operator="arithmetic" k2="-1" k3="1"/>
<feColorMatrix type="matrix" values="0 0 0 0 0 0 0 0 0 0 0 0 0 0 0 0 0 0 0.07 0"/>
<feBlend mode="normal" in2="shape" result="effect2_innerShadow_1_48222"/>
<feColorMatrix in="SourceAlpha" type="matrix" values="0 0 0 0 0 0 0 0 0 0 0 0 0 0 0 0 0 0 127 0" result="hardAlpha"/>
<feOffset dy="-2.84604"/>
<feGaussianBlur stdDeviation="5.69207"/>
<feComposite in2="hardAlpha" operator="arithmetic" k2="-1" k3="1"/>
<feColorMatrix type="matrix" values="0 0 0 0 0 0 0 0 0 0 0 0 0 0 0 0 0 0 0.09 0"/>
<feBlend mode="normal" in2="effect2_innerShadow_1_48222" result="effect3_innerShadow_1_48222"/>
</filter>
<filter id="filter11_ddi_1_48222" x="63.9492" y="27.9587" width="46.9884" height="31.2064" filterUnits="userSpaceOnUse" color-interpolation-filters="sRGB">
<feFlood flood-opacity="0" result="BackgroundImageFix"/>
<feColorMatrix in="SourceAlpha" type="matrix" values="0 0 0 0 0 0 0 0 0 0 0 0 0 0 0 0 0 0 127 0" result="hardAlpha"/>
<feOffset dx="-2.29529" dy="1.14765"/>
<feGaussianBlur stdDeviation="1.14765"/>
<feColorMatrix type="matrix" values="0 0 0 0 1 0 0 0 0 1 0 0 0 0 1 0 0 0 0.28 0"/>
<feBlend mode="normal" in2="BackgroundImageFix" result="effect1_dropShadow_1_48222"/>
<feColorMatrix in="SourceAlpha" type="matrix" values="0 0 0 0 0 0 0 0 0 0 0 0 0 0 0 0 0 0 127 0" result="hardAlpha"/>
<feOffset dy="-1.14765"/>
<feGaussianBlur stdDeviation="1.14765"/>
<feColorMatrix type="matrix" values="0 0 0 0 1 0 0 0 0 1 0 0 0 0 1 0 0 0 0.56 0"/>
<feBlend mode="normal" in2="effect1_dropShadow_1_48222" result="effect2_dropShadow_1_48222"/>
<feBlend mode="normal" in="SourceGraphic" in2="effect2_dropShadow_1_48222" result="shape"/>
<feColorMatrix in="SourceAlpha" type="matrix" values="0 0 0 0 0 0 0 0 0 0 0 0 0 0 0 0 0 0 127 0" result="hardAlpha"/>
<feOffset dx="-1.14765" dy="3.44294"/>
<feGaussianBlur stdDeviation="1.72147"/>
<feComposite in2="hardAlpha" operator="arithmetic" k2="-1" k3="1"/>
<feColorMatrix type="matrix" values="0 0 0 0 0 0 0 0 0 0 0 0 0 0 0 0 0 0 0.75 0"/>
<feBlend mode="normal" in2="shape" result="effect3_innerShadow_1_48222"/>
</filter>
<filter id="filter12_di_1_48222" x="29.3933" y="32.2942" width="45.7195" height="27.3064" filterUnits="userSpaceOnUse" color-interpolation-filters="sRGB">
<feFlood flood-opacity="0" result="BackgroundImageFix"/>
<feColorMatrix in="SourceAlpha" type="matrix" values="0 0 0 0 0 0 0 0 0 0 0 0 0 0 0 0 0 0 127 0" result="hardAlpha"/>
<feOffset dy="1.18682"/>
<feGaussianBlur stdDeviation="0.593408"/>
<feColorMatrix type="matrix" values="0 0 0 0 0.925374 0 0 0 0 0.925374 0 0 0 0 0.925374 0 0 0 0.37 0"/>
<feBlend mode="normal" in2="BackgroundImageFix" result="effect1_dropShadow_1_48222"/>
<feBlend mode="normal" in="SourceGraphic" in2="effect1_dropShadow_1_48222" result="shape"/>
<feColorMatrix in="SourceAlpha" type="matrix" values="0 0 0 0 0 0 0 0 0 0 0 0 0 0 0 0 0 0 127 0" result="hardAlpha"/>
<feOffset dx="-4.59058" dy="5.73823"/>
<feGaussianBlur stdDeviation="2.29529"/>
<feComposite in2="hardAlpha" operator="arithmetic" k2="-1" k3="1"/>
<feColorMatrix type="matrix" values="0 0 0 0 0 0 0 0 0 0 0 0 0 0 0 0 0 0 0.8 0"/>
<feBlend mode="normal" in2="shape" result="effect2_innerShadow_1_48222"/>
</filter>
<filter id="filter13_di_1_48222" x="29.4917" y="21.8643" width="33.0672" height="14.2993" filterUnits="userSpaceOnUse" color-interpolation-filters="sRGB">
<feFlood flood-opacity="0" result="BackgroundImageFix"/>
<feColorMatrix in="SourceAlpha" type="matrix" values="0 0 0 0 0 0 0 0 0 0 0 0 0 0 0 0 0 0 127 0" result="hardAlpha"/>
<feOffset dy="1.18682"/>
<feGaussianBlur stdDeviation="0.593408"/>
<feColorMatrix type="matrix" values="0 0 0 0 0.925374 0 0 0 0 0.925374 0 0 0 0 0.925374 0 0 0 0.37 0"/>
<feBlend mode="normal" in2="BackgroundImageFix" result="effect1_dropShadow_1_48222"/>
<feBlend mode="normal" in="SourceGraphic" in2="effect1_dropShadow_1_48222" result="shape"/>
<feColorMatrix in="SourceAlpha" type="matrix" values="0 0 0 0 0 0 0 0 0 0 0 0 0 0 0 0 0 0 127 0" result="hardAlpha"/>
<feOffset dx="-4.59058" dy="5.73823"/>
<feGaussianBlur stdDeviation="2.29529"/>
<feComposite in2="hardAlpha" operator="arithmetic" k2="-1" k3="1"/>
<feColorMatrix type="matrix" values="0 0 0 0 0 0 0 0 0 0 0 0 0 0 0 0 0 0 0.8 0"/>
<feBlend mode="normal" in2="shape" result="effect2_innerShadow_1_48222"/>
</filter>
<filter id="filter14_f_1_48222" x="39.1386" y="21.9072" width="110.927" height="81.642" filterUnits="userSpaceOnUse" color-interpolation-filters="sRGB">
<feFlood flood-opacity="0" result="BackgroundImageFix"/>
<feBlend mode="normal" in="SourceGraphic" in2="BackgroundImageFix" result="shape"/>
<feGaussianBlur stdDeviation="16.067" result="effect1_foregroundBlur_1_48222"/>
</filter>
<filter id="filter15_f_1_48222" x="90.7276" y="18.1546" width="61.441" height="64.4913" filterUnits="userSpaceOnUse" color-interpolation-filters="sRGB">
<feFlood flood-opacity="0" result="BackgroundImageFix"/>
<feBlend mode="normal" in="SourceGraphic" in2="BackgroundImageFix" result="shape"/>
<feGaussianBlur stdDeviation="10.3288" result="effect1_foregroundBlur_1_48222"/>
</filter>
<filter id="filter16_di_1_48222" x="55.3558" y="52.9168" width="4.64281" height="6.21614" filterUnits="userSpaceOnUse" color-interpolation-filters="sRGB">
<feFlood flood-opacity="0" result="BackgroundImageFix"/>
<feColorMatrix in="SourceAlpha" type="matrix" values="0 0 0 0 0 0 0 0 0 0 0 0 0 0 0 0 0 0 127 0" result="hardAlpha"/>
<feOffset dy="-0.569207"/>
<feGaussianBlur stdDeviation="0.284604"/>
<feColorMatrix type="matrix" values="0 0 0 0 0.78755 0 0 0 0 0.78755 0 0 0 0 0.78755 0 0 0 0.19 0"/>
<feBlend mode="normal" in2="BackgroundImageFix" result="effect1_dropShadow_1_48222"/>
<feBlend mode="normal" in="SourceGraphic" in2="effect1_dropShadow_1_48222" result="shape"/>
<feColorMatrix in="SourceAlpha" type="matrix" values="0 0 0 0 0 0 0 0 0 0 0 0 0 0 0 0 0 0 127 0" result="hardAlpha"/>
<feOffset dy="2.84604"/>
<feGaussianBlur stdDeviation="1.42302"/>
<feComposite in2="hardAlpha" operator="arithmetic" k2="-1" k3="1"/>
<feColorMatrix type="matrix" values="0 0 0 0 0 0 0 0 0 0 0 0 0 0 0 0 0 0 0.74 0"/>
<feBlend mode="normal" in2="shape" result="effect2_innerShadow_1_48222"/>
</filter>
<filter id="filter17_di_1_48222" x="39.098" y="45.74" width="4.64281" height="6.21614" filterUnits="userSpaceOnUse" color-interpolation-filters="sRGB">
<feFlood flood-opacity="0" result="BackgroundImageFix"/>
<feColorMatrix in="SourceAlpha" type="matrix" values="0 0 0 0 0 0 0 0 0 0 0 0 0 0 0 0 0 0 127 0" result="hardAlpha"/>
<feOffset dy="-0.569207"/>
<feGaussianBlur stdDeviation="0.284604"/>
<feColorMatrix type="matrix" values="0 0 0 0 0.78755 0 0 0 0 0.78755 0 0 0 0 0.78755 0 0 0 0.19 0"/>
<feBlend mode="normal" in2="BackgroundImageFix" result="effect1_dropShadow_1_48222"/>
<feBlend mode="normal" in="SourceGraphic" in2="effect1_dropShadow_1_48222" result="shape"/>
<feColorMatrix in="SourceAlpha" type="matrix" values="0 0 0 0 0 0 0 0 0 0 0 0 0 0 0 0 0 0 127 0" result="hardAlpha"/>
<feOffset dy="2.84604"/>
<feGaussianBlur stdDeviation="1.42302"/>
<feComposite in2="hardAlpha" operator="arithmetic" k2="-1" k3="1"/>
<feColorMatrix type="matrix" values="0 0 0 0 0 0 0 0 0 0 0 0 0 0 0 0 0 0 0.74 0"/>
<feBlend mode="normal" in2="shape" result="effect2_innerShadow_1_48222"/>
</filter>
<filter id="filter18_f_1_48222" x="32.5721" y="46.9913" width="45.4302" height="34.3076" filterUnits="userSpaceOnUse" color-interpolation-filters="sRGB">
<feFlood flood-opacity="0" result="BackgroundImageFix"/>
<feBlend mode="normal" in="SourceGraphic" in2="BackgroundImageFix" result="shape"/>
<feGaussianBlur stdDeviation="3.44294" result="effect1_foregroundBlur_1_48222"/>
</filter>
<filter id="filter19_f_1_48222" x="58.7777" y="13.4437" width="120.963" height="109.761" filterUnits="userSpaceOnUse" color-interpolation-filters="sRGB">
<feFlood flood-opacity="0" result="BackgroundImageFix"/>
<feBlend mode="normal" in="SourceGraphic" in2="BackgroundImageFix" result="shape"/>
<feGaussianBlur stdDeviation="5.73823" result="effect1_foregroundBlur_1_48222"/>
</filter>
<filter id="filter20_ddii_1_48222" x="96.7078" y="57.4712" width="41.4152" height="32.6262" filterUnits="userSpaceOnUse" color-interpolation-filters="sRGB">
<feFlood flood-opacity="0" result="BackgroundImageFix"/>
<feColorMatrix in="SourceAlpha" type="matrix" values="0 0 0 0 0 0 0 0 0 0 0 0 0 0 0 0 0 0 127 0" result="hardAlpha"/>
<feOffset dy="1.07131"/>
<feGaussianBlur stdDeviation="0.714204"/>
<feColorMatrix type="matrix" values="0 0 0 0 0 0 0 0 0 0 0 0 0 0 0 0 0 0 0.57 0"/>
<feBlend mode="normal" in2="BackgroundImageFix" result="effect1_dropShadow_1_48222"/>
<feColorMatrix in="SourceAlpha" type="matrix" values="0 0 0 0 0 0 0 0 0 0 0 0 0 0 0 0 0 0 127 0" result="hardAlpha"/>
<feOffset dy="-0.714204"/>
<feGaussianBlur stdDeviation="0.714204"/>
<feColorMatrix type="matrix" values="0 0 0 0 0 0 0 0 0 0 0 0 0 0 0 0 0 0 1 0"/>
<feBlend mode="normal" in2="effect1_dropShadow_1_48222" result="effect2_dropShadow_1_48222"/>
<feBlend mode="normal" in="SourceGraphic" in2="effect2_dropShadow_1_48222" result="shape"/>
<feColorMatrix in="SourceAlpha" type="matrix" values="0 0 0 0 0 0 0 0 0 0 0 0 0 0 0 0 0 0 127 0" result="hardAlpha"/>
<feOffset dy="9.84614"/>
<feGaussianBlur stdDeviation="10.0343"/>
<feComposite in2="hardAlpha" operator="arithmetic" k2="-1" k3="1"/>
<feColorMatrix type="matrix" values="0 0 0 0 0 0 0 0 0 0 0 0 0 0 0 0 0 0 1 0"/>
<feBlend mode="normal" in2="shape" result="effect3_innerShadow_1_48222"/>
<feColorMatrix in="SourceAlpha" type="matrix" values="0 0 0 0 0 0 0 0 0 0 0 0 0 0 0 0 0 0 127 0" result="hardAlpha"/>
<feOffset dy="-1.07294"/>
<feGaussianBlur stdDeviation="1.07294"/>
<feComposite in2="hardAlpha" operator="arithmetic" k2="-1" k3="1"/>
<feColorMatrix type="matrix" values="0 0 0 0 0 0 0 0 0 0 0 0 0 0 0 0 0 0 1 0"/>
<feBlend mode="normal" in2="effect3_innerShadow_1_48222" result="effect4_innerShadow_1_48222"/>
</filter>
<filter id="filter21_d_1_48222" x="97.7331" y="70.0566" width="21.3538" height="13.571" filterUnits="userSpaceOnUse" color-interpolation-filters="sRGB">
<feFlood flood-opacity="0" result="BackgroundImageFix"/>
<feColorMatrix in="SourceAlpha" type="matrix" values="0 0 0 0 0 0 0 0 0 0 0 0 0 0 0 0 0 0 127 0" result="hardAlpha"/>
<feOffset dx="1.13841" dy="2"/>
<feGaussianBlur stdDeviation="2.25"/>
<feComposite in2="hardAlpha" operator="out"/>
<feColorMatrix type="matrix" values="0 0 0 0 1 0 0 0 0 1 0 0 0 0 1 0 0 0 0.5 0"/>
<feBlend mode="normal" in2="BackgroundImageFix" result="effect1_dropShadow_1_48222"/>
<feBlend mode="normal" in="SourceGraphic" in2="effect1_dropShadow_1_48222" result="shape"/>
</filter>
<filter id="filter22_d_1_48222" x="131.955" y="60.292" width="6.37561" height="7.31262" filterUnits="userSpaceOnUse" color-interpolation-filters="sRGB">
<feFlood flood-opacity="0" result="BackgroundImageFix"/>
<feColorMatrix in="SourceAlpha" type="matrix" values="0 0 0 0 0 0 0 0 0 0 0 0 0 0 0 0 0 0 127 0" result="hardAlpha"/>
<feOffset dx="1.13841" dy="1.41412"/>
<feGaussianBlur stdDeviation="0.707062"/>
<feColorMatrix type="matrix" values="0 0 0 0 1 0 0 0 0 1 0 0 0 0 1 0 0 0 0.24 0"/>
<feBlend mode="normal" in2="BackgroundImageFix" result="effect1_dropShadow_1_48222"/>
<feBlend mode="normal" in="SourceGraphic" in2="effect1_dropShadow_1_48222" result="shape"/>
</filter>
<linearGradient id="paint0_linear_1_48222" x1="12.2466" y1="13.4551" x2="12.8564" y2="4.3843" gradientUnits="userSpaceOnUse">
<stop stop-color="#3F3F3F"/>
<stop offset="1" stop-color="#5C5C5C"/>
</linearGradient>
<linearGradient id="paint1_linear_1_48222" x1="11.4765" y1="12.977" x2="12.0817" y2="4.23085" gradientUnits="userSpaceOnUse">
<stop stop-color="#AAAAAA"/>
<stop offset="1" stop-color="#C2C2C2"/>
</linearGradient>
<linearGradient id="paint2_linear_1_48222" x1="10.1144" y1="11.1104" x2="10.6179" y2="3.62029" gradientUnits="userSpaceOnUse">
<stop stop-color="#3F3F3F"/>
<stop offset="1" stop-color="#5C5C5C"/>
</linearGradient>
<linearGradient id="paint3_linear_1_48222" x1="9.48763" y1="10.7289" x2="9.98804" y2="3.49792" gradientUnits="userSpaceOnUse">
<stop stop-color="#AAAAAA"/>
<stop offset="1" stop-color="#C2C2C2"/>
</linearGradient>
<linearGradient id="paint4_linear_1_48222" x1="87.5504" y1="89.0024" x2="139.559" y2="25.6294" gradientUnits="userSpaceOnUse">
<stop stop-color="#D8D8D8"/>
<stop offset="1" stop-color="white"/>
</linearGradient>
<linearGradient id="paint5_linear_1_48222" x1="92.4249" y1="9.82807" x2="62.7933" y2="37.8609" gradientUnits="userSpaceOnUse">
<stop stop-color="#E8EAE9"/>
<stop offset="0.498386" stop-color="#707072"/>
<stop offset="1" stop-color="#2F3032"/>
</linearGradient>
<linearGradient id="paint6_linear_1_48222" x1="43.7772" y1="103.743" x2="72.087" y2="52.0091" gradientUnits="userSpaceOnUse">
<stop stop-color="#E8EAE9"/>
<stop offset="0.498386" stop-color="#707072"/>
<stop offset="1" stop-color="#2F3032"/>
</linearGradient>
<linearGradient id="paint7_linear_1_48222" x1="31.7023" y1="50.2757" x2="47.4876" y2="27.1766" gradientUnits="userSpaceOnUse">
<stop stop-color="#E8EAE9"/>
<stop offset="0.498386" stop-color="#707072"/>
<stop offset="1" stop-color="#2F3032"/>
</linearGradient>
<linearGradient id="paint8_linear_1_48222" x1="93.06" y1="72.4218" x2="96.7379" y2="61.6718" gradientUnits="userSpaceOnUse">
<stop stop-color="#ECEAEA"/>
<stop offset="1" stop-color="white" stop-opacity="0"/>
</linearGradient>
<linearGradient id="paint9_linear_1_48222" x1="134.847" y1="53.2695" x2="120.972" y2="58.1114" gradientUnits="userSpaceOnUse">
<stop stop-color="#ECEAEA"/>
<stop offset="1" stop-color="white" stop-opacity="0"/>
</linearGradient>
<linearGradient id="paint10_linear_1_48222" x1="60.0645" y1="74.2642" x2="64.2395" y2="65.383" gradientUnits="userSpaceOnUse">
<stop stop-color="#040404"/>
<stop offset="1" stop-color="#3C3C3C" stop-opacity="0"/>
</linearGradient>
<linearGradient id="paint11_linear_1_48222" x1="119.603" y1="73.7321" x2="117.124" y2="68.9105" gradientUnits="userSpaceOnUse">
<stop stop-color="#4B4B4B"/>
<stop offset="0.899322" stop-opacity="0"/>
</linearGradient>
<clipPath id="clip0_1_48222">
<rect width="166" height="143" fill="white"/>
</clipPath>
</defs>
</svg>
